<svg width="30" height="32" viewBox="0 0 30 32" fill="none" xmlns="http://www.w3.org/2000/svg">
<g clip-path="url(#clip0_153_134)">
<path d="M29.9098 9.70272C29.8368 8.09337 29.5832 6.99432 29.2124 6.03277C28.8359 5.02392 28.2454 4.11013 27.4823 3.35482C26.7332 2.58567 25.8263 1.99024 24.8254 1.61051C23.8712 1.23701 22.7811 0.981627 21.1844 0.908495C19.5847 0.834672 19.0736 0.817139 15 0.817139C10.9264 0.817139 10.4153 0.834672 8.81561 0.908034C7.21893 0.981627 6.12877 1.23724 5.17456 1.61097C4.17366 1.99047 3.26706 2.58567 2.5177 3.35482C1.75461 4.1099 1.16386 5.02369 0.787125 6.03254C0.416565 6.99432 0.163193 8.09337 0.0906372 9.70249C0.017395 11.3151 0 11.83 0 15.936C0 20.0422 0.017395 20.5573 0.0906372 22.1697C0.163422 23.7788 0.417023 24.8778 0.787811 25.8396C1.16432 26.8482 1.75484 27.7622 2.51793 28.5173C3.26706 29.2865 4.17389 29.8817 5.17479 30.2612C6.12877 30.6351 7.21916 30.8905 8.81584 30.9641C10.4157 31.0377 10.9266 31.055 15.0002 31.055C19.0739 31.055 19.585 31.0377 21.1846 30.9641C22.7813 30.8905 23.8715 30.6351 24.8257 30.2612C26.8405 29.4759 28.4333 27.8704 29.2124 25.8396C29.5834 24.8778 29.8368 23.7788 29.9098 22.1697C29.9826 20.5571 30 20.0422 30 15.9362C30 11.83 29.9826 11.3151 29.9098 9.70272ZM27.2097 22.0458C27.1431 23.5199 26.8987 24.3205 26.6933 24.8531C26.1887 26.1718 25.1548 27.2139 23.8465 27.7226C23.318 27.9295 22.5238 28.1759 21.0612 28.243C19.4799 28.3159 19.0054 28.3312 15 28.3312C10.9943 28.3312 10.5201 28.3159 8.93852 28.243C7.4762 28.1759 6.68198 27.9295 6.15326 27.7226C5.50186 27.4801 4.91249 27.0937 4.42863 26.5915C3.93036 26.1038 3.54698 25.5099 3.30643 24.8531C3.10112 24.3205 2.85667 23.5199 2.79007 22.0458C2.71797 20.4516 2.70264 19.9734 2.70264 15.9364C2.70264 11.8992 2.71797 11.4212 2.79007 9.82683C2.8569 8.35267 3.10112 7.55215 3.30643 7.01946C3.54698 6.36267 3.93059 5.76862 4.42863 5.28092C4.91249 4.77869 5.50186 4.39227 6.15349 4.15004C6.68198 3.94287 7.4762 3.69672 8.93875 3.62935C10.5203 3.55668 10.9948 3.54123 15 3.54123H14.9998C19.005 3.54123 19.4794 3.55668 21.0612 3.62958C22.5238 3.69672 23.3178 3.9431 23.8465 4.15004C24.4979 4.3925 25.0873 4.77892 25.5711 5.28092C26.0694 5.76862 26.4528 6.36267 26.6931 7.01946C26.8987 7.55215 27.1431 8.35267 27.2097 9.82683C27.2818 11.421 27.2971 11.8992 27.2971 15.9362C27.2971 19.9734 27.282 20.4514 27.2097 22.0458Z" fill="url(#paint0_linear_153_134)"/>
<path d="M14.9998 8.17224C10.7458 8.17224 7.29724 11.6484 7.29724 15.9362C7.29724 20.2239 10.7458 23.6999 14.9998 23.6999C19.254 23.6999 22.7026 20.2239 22.7026 15.9362C22.7026 11.6484 19.254 8.17224 14.9998 8.17224ZM14.9998 20.9758C12.2386 20.9755 9.99988 18.7193 10.0001 15.9359C10.0001 13.1528 12.2386 10.8963 15 10.8963C17.7615 10.8966 20 13.1528 20 15.9359C20 18.7193 17.7613 20.9758 14.9998 20.9758Z" fill="url(#paint1_linear_153_134)"/>
<path d="M24.8069 7.86571C24.8069 8.86763 24.001 9.67992 23.0069 9.67992C22.0127 9.67992 21.2068 8.86763 21.2068 7.86571C21.2068 6.86356 22.0127 6.05127 23.0069 6.05127C24.001 6.05127 24.8069 6.86356 24.8069 7.86571Z" fill="url(#paint2_linear_153_134)"/>
</g>
<defs>
<linearGradient id="paint0_linear_153_134" x1="9.6204" y1="31.055" x2="28.7897" y2="24.1437" gradientUnits="userSpaceOnUse">
<stop stop-color="#6FE3BC"/>
<stop offset="1" stop-color="#008891"/>
</linearGradient>
<linearGradient id="paint1_linear_153_134" x1="12.2374" y1="23.6998" x2="22.0811" y2="20.1508" gradientUnits="userSpaceOnUse">
<stop stop-color="#6FE3BC"/>
<stop offset="1" stop-color="#008891"/>
</linearGradient>
<linearGradient id="paint2_linear_153_134" x1="22.3613" y1="9.67992" x2="24.6616" y2="8.85056" gradientUnits="userSpaceOnUse">
<stop stop-color="#6FE3BC"/>
<stop offset="1" stop-color="#008891"/>
</linearGradient>
<clipPath id="clip0_153_134">
<rect width="30" height="30.2381" fill="white" transform="translate(0 0.817139)"/>
</clipPath>
</defs>
</svg>
