<svg width="159" height="27" viewBox="0 0 159 27" fill="none" xmlns="http://www.w3.org/2000/svg">
<path d="M13.12 26L7.864 16.46H6.388V26H0.232V0.727999H10.564C12.556 0.727999 14.248 1.076 15.64 1.772C17.056 2.468 18.112 3.428 18.808 4.652C19.504 5.852 19.852 7.196 19.852 8.684C19.852 10.364 19.372 11.864 18.412 13.184C17.476 14.504 16.084 15.44 14.236 15.992L20.068 26H13.12ZM6.388 12.104H10.204C11.332 12.104 12.172 11.828 12.724 11.276C13.3 10.724 13.588 9.944 13.588 8.936C13.588 7.976 13.3 7.22 12.724 6.668C12.172 6.116 11.332 5.84 10.204 5.84H6.388V12.104ZM42.6524 15.632C42.6524 16.208 42.6164 16.808 42.5444 17.432H28.6124C28.7084 18.68 29.1044 19.64 29.8004 20.312C30.5204 20.96 31.3964 21.284 32.4284 21.284C33.9644 21.284 35.0324 20.636 35.6324 19.34H42.1844C41.8484 20.66 41.2364 21.848 40.3484 22.904C39.4844 23.96 38.3924 24.788 37.0724 25.388C35.7524 25.988 34.2764 26.288 32.6444 26.288C30.6764 26.288 28.9244 25.868 27.3884 25.028C25.8524 24.188 24.6524 22.988 23.7884 21.428C22.9244 19.868 22.4924 18.044 22.4924 15.956C22.4924 13.868 22.9124 12.044 23.7524 10.484C24.6164 8.924 25.8164 7.724 27.3524 6.884C28.8884 6.044 30.6524 5.624 32.6444 5.624C34.5884 5.624 36.3164 6.032 37.8284 6.848C39.3404 7.664 40.5164 8.828 41.3564 10.34C42.2204 11.852 42.6524 13.616 42.6524 15.632ZM36.3524 14.012C36.3524 12.956 35.9924 12.116 35.2724 11.492C34.5524 10.868 33.6524 10.556 32.5724 10.556C31.5404 10.556 30.6644 10.856 29.9444 11.456C29.2484 12.056 28.8164 12.908 28.6484 14.012H36.3524ZM54.072 26.288C52.32 26.288 50.76 25.988 49.392 25.388C48.024 24.788 46.944 23.972 46.152 22.94C45.36 21.884 44.916 20.708 44.82 19.412H50.904C50.976 20.108 51.3 20.672 51.876 21.104C52.452 21.536 53.16 21.752 54 21.752C54.768 21.752 55.356 21.608 55.764 21.32C56.196 21.008 56.412 20.612 56.412 20.132C56.412 19.556 56.112 19.136 55.512 18.872C54.912 18.584 53.94 18.272 52.596 17.936C51.156 17.6 49.956 17.252 48.996 16.892C48.036 16.508 47.208 15.92 46.512 15.128C45.816 14.312 45.468 13.22 45.468 11.852C45.468 10.7 45.78 9.656 46.404 8.72C47.052 7.76 47.988 7.004 49.212 6.452C50.46 5.9 51.936 5.624 53.64 5.624C56.16 5.624 58.14 6.248 59.58 7.496C61.044 8.744 61.884 10.4 62.1 12.464H56.412C56.316 11.768 56.004 11.216 55.476 10.808C54.972 10.4 54.3 10.196 53.46 10.196C52.74 10.196 52.188 10.34 51.804 10.628C51.42 10.892 51.228 11.264 51.228 11.744C51.228 12.32 51.528 12.752 52.128 13.04C52.752 13.328 53.712 13.616 55.008 13.904C56.496 14.288 57.708 14.672 58.644 15.056C59.58 15.416 60.396 16.016 61.092 16.856C61.812 17.672 62.184 18.776 62.208 20.168C62.208 21.344 61.872 22.4 61.2 23.336C60.552 24.248 59.604 24.968 58.356 25.496C57.132 26.024 55.704 26.288 54.072 26.288ZM84.9102 15.632C84.9102 16.208 84.8742 16.808 84.8022 17.432H70.8702C70.9662 18.68 71.3622 19.64 72.0582 20.312C72.7782 20.96 73.6542 21.284 74.6862 21.284C76.2222 21.284 77.2902 20.636 77.8902 19.34H84.4422C84.1062 20.66 83.4942 21.848 82.6062 22.904C81.7422 23.96 80.6502 24.788 79.3302 25.388C78.0102 25.988 76.5342 26.288 74.9022 26.288C72.9342 26.288 71.1822 25.868 69.6462 25.028C68.1102 24.188 66.9102 22.988 66.0462 21.428C65.1822 19.868 64.7502 18.044 64.7502 15.956C64.7502 13.868 65.1702 12.044 66.0102 10.484C66.8742 8.924 68.0742 7.724 69.6102 6.884C71.1462 6.044 72.9102 5.624 74.9022 5.624C76.8462 5.624 78.5742 6.032 80.0862 6.848C81.5982 7.664 82.7742 8.828 83.6142 10.34C84.4782 11.852 84.9102 13.616 84.9102 15.632ZM78.6102 14.012C78.6102 12.956 78.2502 12.116 77.5302 11.492C76.8102 10.868 75.9102 10.556 74.8302 10.556C73.7982 10.556 72.9222 10.856 72.2022 11.456C71.5062 12.056 71.0742 12.908 70.9062 14.012H78.6102ZM94.3138 9.26C95.0338 8.156 95.9338 7.292 97.0138 6.668C98.0938 6.02 99.2938 5.696 100.614 5.696V12.212H98.9218C97.3858 12.212 96.2338 12.548 95.4658 13.22C94.6978 13.868 94.3138 15.02 94.3138 16.676V26H88.1578V5.912H94.3138V9.26ZM112.592 20.24L116.948 5.912H123.5L116.372 26H108.776L101.648 5.912H108.236L112.592 20.24Z" fill="#1C1C1C"/>
<path d="M141.823 21.536H132.391L130.879 26H124.435L133.579 0.727999H140.707L149.851 26H143.335L141.823 21.536ZM140.239 16.784L137.107 7.532L134.011 16.784H140.239ZM158.79 0.727999V26H152.634V0.727999H158.79Z" fill="#6FE3BC"/>
</svg>
