<svg width="20" height="21" viewBox="0 0 20 21" fill="none" xmlns="http://www.w3.org/2000/svg">
<path d="M18.1818 8.99023V12.6126H1.81812V8.99023H18.1818Z" fill="#66BFBF"/>
<path d="M8.18188 2.65099H11.8182V18.9517H8.18188L8.18188 2.65099Z" fill="#66BFBF"/>
<path d="M11.8182 2.65103C11.8182 3.65132 11.0042 4.46221 10.0001 4.46221C8.99591 4.46221 8.18188 3.65132 8.18188 2.65103C8.18188 1.65074 8.99591 0.839844 10.0001 0.839844C11.0042 0.839844 11.8182 1.65074 11.8182 2.65103Z" fill="#66BFBF"/>
<path d="M19.9999 10.8014C19.9999 11.8017 19.1859 12.6126 18.1817 12.6126C17.1776 12.6126 16.3635 11.8017 16.3635 10.8014C16.3635 9.80113 17.1776 8.99023 18.1817 8.99023C19.1859 8.99023 19.9999 9.80113 19.9999 10.8014Z" fill="#66BFBF"/>
<path d="M11.8182 18.9517C11.8182 19.952 11.0042 20.7629 10.0001 20.7629C8.99591 20.7629 8.18188 19.952 8.18188 18.9517C8.18188 17.9514 8.99591 17.1405 10.0001 17.1405C11.0042 17.1405 11.8182 17.9514 11.8182 18.9517Z" fill="#66BFBF"/>
<path d="M3.63636 10.8014C3.63636 11.8017 2.82234 12.6126 1.81818 12.6126C0.814028 12.6126 0 11.8017 0 10.8014C0 9.80113 0.814028 8.99023 1.81818 8.99023C2.82234 8.99023 3.63636 9.80113 3.63636 10.8014Z" fill="#66BFBF"/>
</svg>
