<svg width="440" height="417" viewBox="0 0 440 417" fill="none" xmlns="http://www.w3.org/2000/svg">
<g clip-path="url(#clip0_176_2070)">
<path d="M60.9785 353.688L50.7409 346.623C50.7409 346.623 44.8276 355.241 35.7938 349.238C34.0321 348.113 32.6637 346.466 31.8785 344.524C31.0933 342.584 30.9301 340.447 31.4119 338.409C31.7937 336.692 32.5756 335.089 33.6938 333.732C34.8119 332.375 36.2344 331.302 37.8452 330.601C41.5434 328.932 47.139 328.951 53.2064 334.926L69.0781 311.761L58.956 304.784L49.6623 318.296C49.6623 318.296 32.9431 312.187 22.1759 327.861C11.8805 342.859 22.9078 355.599 28.6574 359.556C33.0491 362.654 48.6992 371.91 60.9785 353.688Z" fill="#EBEBEB"/>
<path d="M62.0588 299.972L72.3255 307.051L78.9256 297.438L68.6588 290.359L62.0588 299.972Z" fill="#EBEBEB"/>
<path d="M104.567 382.053L109.999 380.616C109.838 379.996 109.801 379.351 109.891 378.717C109.981 378.084 110.196 377.474 110.523 376.925C110.85 376.375 111.283 375.896 111.797 375.516C112.31 375.135 112.895 374.861 113.515 374.709C114.419 374.433 115.387 374.447 116.284 374.75C117.18 375.053 117.959 375.629 118.513 376.397C118.989 377.034 119.308 377.774 119.443 378.557C119.578 379.341 119.527 380.145 119.293 380.905C118.773 382.671 117.116 384.592 113.283 384.91L116.51 397.197L121.883 395.778L119.958 388.578C121.99 387.343 123.561 385.474 124.43 383.259C125.301 381.042 125.421 378.602 124.773 376.311C122.674 368.348 115.055 368.377 112.012 369.188C109.729 369.805 101.938 372.47 104.567 382.053Z" fill="#EBEBEB"/>
<path d="M122.641 398.272L117.185 399.715L118.528 404.82L123.985 403.376L122.641 398.272Z" fill="#EBEBEB"/>
<path d="M194.847 38.1523C197.595 36.4746 200.555 35.176 203.65 34.2917L205.46 25.6054L220.186 25.3448L222.304 34.0311C225.428 34.7978 228.434 35.9828 231.241 37.554L238.687 32.6606L249.28 42.9105L244.667 50.5351C246.335 53.2952 247.632 56.2647 248.52 59.3662L257.235 61.1807L257.486 75.9378L248.818 78.0611C248.049 81.19 246.867 84.202 245.303 87.0177L250.177 94.4783L239.948 105.095L232.34 100.472C229.589 102.15 226.625 103.448 223.527 104.332L221.717 113.077L206.992 113.328L204.872 104.642C201.748 103.879 198.741 102.694 195.935 101.119L188.49 106.011L177.897 95.7619L182.51 88.1373C180.836 85.3804 179.54 82.4099 178.658 79.3062L169.99 77.4917L169.73 62.7346L178.397 60.6113C179.149 57.4626 180.321 54.4302 181.884 51.5968L177.001 44.1363L187.229 33.5196L194.847 38.1523ZM202.696 57.8124C200.53 60.0677 199.079 62.9161 198.528 65.9975C197.977 69.0789 198.35 72.2549 199.6 75.1238C200.851 77.9927 202.921 80.4257 205.551 82.1153C208.18 83.8048 211.251 84.6749 214.375 84.6155C217.498 84.5561 220.533 83.5699 223.098 81.7817C225.661 79.9934 227.638 77.4834 228.78 74.5689C229.92 71.6546 230.172 68.4667 229.504 65.4085C228.838 62.3503 227.28 59.559 225.03 57.3877C222.011 54.4782 217.964 52.8886 213.776 52.9683C209.588 53.0479 205.602 54.7902 202.696 57.8124Z" fill="#CDCDCD"/>
<path d="M133.21 7.38338C134.797 6.4281 136.504 5.68812 138.285 5.18284L139.325 0.14477L147.81 0L149.033 4.98981C150.83 5.43031 152.56 6.11207 154.176 7.01662L158.462 4.19839L164.529 10.0954L161.871 14.4869C162.83 16.076 163.571 17.7866 164.077 19.5732L169.094 20.6155L169.238 29.1185L164.259 30.3635C163.821 32.1654 163.141 33.8993 162.237 35.5174L165.05 39.8123L159.155 45.9313L154.773 43.2676C153.188 44.2281 151.481 44.9715 149.697 45.4778L148.619 50.4965L140.135 50.6509L138.988 45.6611C137.192 45.213 135.463 44.5282 133.846 43.6247L129.56 46.4429L123.453 40.5361L126.073 36.1545C125.113 34.5696 124.371 32.8618 123.868 31.0777L118.85 30.0257L118.696 21.5228L123.685 20.3067C124.123 18.5017 124.803 16.7647 125.707 15.1431L122.895 10.8483L128.789 4.73887L133.21 7.38338ZM137.727 18.7142C136.47 20.0098 135.625 21.6504 135.301 23.4276C134.976 25.205 135.185 27.039 135.901 28.6971C136.617 30.3551 137.81 31.7624 139.325 32.7406C140.842 33.7186 142.614 34.2234 144.417 34.1908C146.219 34.1582 147.972 33.5898 149.451 32.5575C150.931 31.5253 152.072 30.0758 152.728 28.393C153.385 26.7101 153.528 24.8698 153.14 23.1053C152.751 21.3409 151.848 19.732 150.545 18.4826C148.808 16.8067 146.48 15.8899 144.069 15.9333C141.658 15.9767 139.363 16.9769 137.688 18.7142H137.727Z" fill="#EBEBEB"/>
<path d="M403.904 165.204C405.487 164.246 407.19 163.502 408.969 162.994L410.019 157.966L418.494 157.821L419.718 162.811C421.518 163.25 423.252 163.931 424.87 164.837L429.155 162.02L435.251 167.926L432.594 172.317C433.552 173.907 434.294 175.617 434.799 177.404L439.827 178.446L439.971 186.949L434.992 188.175C434.544 189.973 433.864 191.706 432.969 193.328L435.772 197.624L429.887 203.742L425.505 201.079C423.92 202.039 422.212 202.782 420.43 203.289L419.38 208.317L410.905 208.472L409.682 203.472C407.883 203.033 406.154 202.352 404.54 201.445L400.244 204.264L394.147 198.357L396.806 193.966C395.845 192.377 395.104 190.666 394.6 188.879L389.582 187.837L389.428 179.334L394.408 178.109C394.856 176.309 395.536 174.577 396.43 172.954L393.627 168.66L399.512 162.541L403.904 165.204ZM408.421 176.525C407.17 177.823 406.33 179.462 406.009 181.238C405.688 183.012 405.899 184.844 406.617 186.498C407.334 188.152 408.525 189.557 410.039 190.533C411.552 191.51 413.321 192.014 415.121 191.983C416.921 191.953 418.672 191.386 420.15 190.359C421.63 189.331 422.772 187.886 423.432 186.208C424.092 184.529 424.241 182.693 423.858 180.929C423.477 179.166 422.581 177.557 421.287 176.303C419.55 174.626 417.22 173.706 414.808 173.749C412.396 173.79 410.098 174.789 408.421 176.525Z" fill="#EBEBEB"/>
<path d="M426.738 416.722C426.738 416.866 335.409 416.972 222.786 416.972C110.163 416.972 18.8147 416.866 18.8147 416.722C18.8147 416.577 110.115 416.471 222.786 416.471C335.457 416.471 426.738 416.587 426.738 416.722Z" fill="black"/>
<path d="M382.321 416.017L245.563 415.94C237.664 415.934 230.089 412.786 224.506 407.186C218.921 401.587 215.785 393.994 215.785 386.078L215.852 42.4858C215.87 34.5623 219.023 26.9695 224.62 21.3731C230.217 15.7767 237.801 12.6337 245.708 12.6337L382.466 12.7207C390.364 12.7257 397.939 15.8742 403.523 21.4738C409.107 27.0734 412.243 34.6658 412.243 42.5823L412.177 386.175C412.177 390.101 411.404 393.987 409.902 397.612C408.401 401.239 406.201 404.531 403.427 407.304C400.654 410.076 397.362 412.272 393.74 413.767C390.118 415.262 386.238 416.027 382.321 416.017Z" fill="#455A64"/>
<path d="M382.273 24.8332H355.759C354.011 24.8737 352.351 25.608 351.142 26.8748C349.934 28.1417 349.278 29.8373 349.316 31.5893V36.415C349.354 38.1669 348.698 39.8626 347.489 41.1294C346.281 42.3962 344.621 43.1305 342.873 43.171H291.184C289.438 43.128 287.78 42.3925 286.573 41.126C285.367 39.8595 284.712 38.1653 284.751 36.415V31.5893C284.79 29.8373 284.133 28.1417 282.925 26.8748C281.717 25.608 280.056 24.8737 278.307 24.8332H245.775C240.253 24.8281 234.953 27.0177 231.039 30.922C227.126 34.8264 224.916 40.1268 224.895 45.6611L224.828 381.069C224.838 386.608 227.04 391.916 230.95 395.829C234.861 399.744 240.161 401.943 245.688 401.945L382.186 402.023C384.927 402.024 387.641 401.484 390.174 400.434C392.705 399.384 395.007 397.845 396.946 395.903C398.884 393.962 400.424 391.657 401.474 389.12C402.524 386.583 403.064 383.864 403.066 381.117L403.123 45.7094C403.115 40.1717 400.916 34.8633 397.007 30.9494C393.097 27.0354 387.799 24.8358 382.273 24.8332Z" fill="white"/>
<path d="M403.113 95.3276V45.3619C403.016 39.8864 400.776 34.6682 396.88 30.8292C392.982 26.9903 387.737 24.8374 382.273 24.8332H355.759C354.893 24.852 354.04 25.0418 353.247 25.3916C352.454 25.7415 351.737 26.2446 351.14 26.8721C350.541 27.4996 350.071 28.2393 349.758 29.0487C349.446 29.8582 349.295 30.7214 349.315 31.5893V36.415C349.354 38.1669 348.698 39.8626 347.489 41.1294C346.281 42.3962 344.621 43.1305 342.873 43.171H291.184C289.438 43.128 287.78 42.3925 286.573 41.126C285.367 39.8595 284.712 38.1653 284.751 36.415V31.5893C284.79 29.8373 284.133 28.1417 282.925 26.8748C281.717 25.608 280.056 24.8737 278.307 24.8332H245.775C240.253 24.8281 234.953 27.0177 231.039 30.922C227.126 34.8264 224.916 40.1268 224.895 45.6611V95.482H403.113V95.3276Z" fill="#EBEBEB"/>
<path d="M261.242 163.101C273.172 163.101 282.844 153.43 282.844 141.501C282.844 129.571 273.172 119.9 261.242 119.9C249.311 119.9 239.64 129.571 239.64 141.501C239.64 153.43 249.311 163.101 261.242 163.101Z" fill="#6FE3BC"/>
<path d="M251.149 146.905L256.812 146.423L270.622 148.758L272.25 159.172L272.019 160.388C268.908 162.148 265.412 163.112 261.84 163.194C258.269 163.276 254.732 162.475 251.543 160.862L251.149 146.905Z" fill="#455A64"/>
<path d="M267.666 148.594C269.035 148.394 270.433 148.583 271.701 149.142C272.967 149.7 274.052 150.603 274.831 151.75C275.766 153.06 276.626 154.423 277.402 155.832C275.149 158.284 273.319 160.147 270.199 161.238L267.666 148.594Z" fill="#455A64"/>
<path d="M251.149 146.905C251.149 146.905 247.412 147.368 245.967 150.563C244.522 153.758 244.186 154.751 244.186 154.751C246.112 157.087 248.577 159.847 251.592 160.88C251.592 160.88 252.276 152.831 252.363 150.563C252.468 148.111 252.565 146.838 251.149 146.905Z" fill="#455A64"/>
<path d="M254.558 126.444C255.499 125.236 256.699 124.254 258.07 123.573C259.44 122.892 260.945 122.527 262.474 122.506C263.79 122.506 265.094 122.742 266.327 123.201C267.625 123.509 268.771 124.268 269.563 125.344C270.545 126.609 271.188 128.104 271.431 129.687C271.658 131.308 271.735 132.946 271.663 134.58C271.584 136.227 271.054 137.82 270.131 139.184L265.98 139.898C263.691 140.081 261.389 139.958 259.132 139.532C256.852 139.093 254.837 137.767 253.528 135.845C251.861 133.133 252.554 128.914 254.558 126.444Z" fill="black"/>
<path d="M250.552 138.46C250.594 137.989 250.743 137.534 250.987 137.13C251.23 136.725 251.562 136.381 251.958 136.124C252.363 135.881 252.834 135.772 253.305 135.813C253.776 135.855 254.222 136.045 254.578 136.356L255.233 137.128C255.737 137.362 256.158 137.748 256.434 138.233C256.71 138.717 256.828 139.276 256.773 139.831C256.701 140.386 256.47 140.909 256.107 141.335C255.745 141.761 255.268 142.074 254.731 142.234C254.196 142.386 253.63 142.398 253.089 142.267C252.547 142.138 252.049 141.869 251.64 141.49C251.239 141.103 250.932 140.627 250.744 140.102C250.555 139.577 250.489 139.015 250.552 138.46Z" fill="black"/>
<path d="M251.37 141.297C251.214 141.054 251.137 140.767 251.149 140.477C251.287 139.774 251.621 139.126 252.111 138.605C252.577 138.058 253.142 137.606 253.778 137.273C254.26 137.012 254.597 136.915 254.587 136.887C254.279 136.909 253.981 136.999 253.711 137.148C253.031 137.45 252.431 137.906 251.958 138.479C251.692 138.77 251.466 139.095 251.284 139.444C251.126 139.743 251.034 140.072 251.014 140.409C251.009 140.641 251.074 140.87 251.197 141.066C251.284 141.259 251.37 141.356 251.37 141.297Z" fill="#455A64"/>
<path d="M265.942 147.851V143.99C265.942 143.99 269.322 143.614 270.266 139.271C270.71 136.397 270.884 133.489 270.786 130.584C270.786 127.949 268.523 124.359 265.267 124.35L263.823 124.176L258.285 126.376C257.901 126.398 257.538 126.561 257.267 126.837C256.996 127.111 256.838 127.477 256.821 127.862L256.658 146.403L259.191 149.965C259.654 150.594 260.302 151.061 261.045 151.302C261.788 151.543 262.587 151.545 263.33 151.308C264.074 151.07 264.725 150.605 265.192 149.978C265.658 149.351 265.916 148.594 265.932 147.812L265.942 147.851Z" fill="#FFBE9D"/>
<path d="M263.736 138.267C263.766 138.044 263.88 137.84 264.054 137.697C264.212 137.565 264.41 137.486 264.616 137.474C264.822 137.462 265.027 137.517 265.2 137.63C265.377 137.768 265.515 137.951 265.6 138.159C265.684 138.367 265.712 138.594 265.682 138.817C265.585 138.951 265.461 139.064 265.319 139.147C265.176 139.23 265.017 139.282 264.853 139.299H264.699C264.572 139.302 264.445 139.281 264.326 139.235C264.206 139.188 264.098 139.119 264.006 139.029C263.909 138.929 263.834 138.809 263.788 138.678C263.741 138.546 263.723 138.406 263.736 138.267Z" fill="#EB996E"/>
<path d="M268.773 133.634C268.768 133.781 268.706 133.92 268.6 134.021C268.493 134.122 268.352 134.178 268.205 134.175C268.133 134.176 268.062 134.163 267.994 134.137C267.927 134.11 267.866 134.071 267.815 134.021C267.762 133.97 267.72 133.911 267.691 133.844C267.663 133.778 267.647 133.706 267.646 133.634C267.654 133.486 267.718 133.347 267.826 133.247C267.934 133.146 268.077 133.091 268.225 133.094C268.296 133.093 268.367 133.106 268.434 133.132C268.501 133.158 268.561 133.198 268.612 133.249C268.663 133.299 268.704 133.359 268.731 133.426C268.759 133.491 268.773 133.562 268.773 133.634Z" fill="black"/>
<path d="M269.698 132.245C269.621 132.312 269.207 131.975 268.609 131.945C268.012 131.916 267.541 132.197 267.482 132.119C267.425 132.041 267.53 131.955 267.734 131.819C268.006 131.657 268.321 131.579 268.639 131.598C268.953 131.61 269.253 131.726 269.495 131.926C269.669 132.08 269.727 132.215 269.698 132.245Z" fill="black"/>
<path d="M265.894 136.819C266.21 136.745 266.533 136.706 266.857 136.704C267.011 136.704 267.164 136.704 267.194 136.568C267.216 136.41 267.189 136.248 267.117 136.105L266.721 134.909C266.354 133.887 266.067 132.838 265.865 131.771C266.315 132.76 266.686 133.783 266.973 134.831C267.107 135.247 267.223 135.651 267.348 136.038C267.429 136.23 267.446 136.443 267.396 136.645C267.338 136.749 267.24 136.825 267.126 136.858C267.04 136.867 266.953 136.867 266.866 136.858C266.542 136.889 266.215 136.876 265.894 136.819Z" fill="black"/>
<path d="M265.923 144C263.854 143.907 261.854 143.238 260.145 142.07C260.145 142.07 261.54 145.188 265.923 145.023V144Z" fill="#EB996E"/>
<path d="M264.092 137.148C264.199 137.148 264.16 137.803 264.699 138.295C265.239 138.788 265.932 138.759 265.932 138.846C265.932 138.933 265.769 138.972 265.48 138.962C265.094 138.945 264.727 138.795 264.44 138.537C264.168 138.286 264.002 137.941 263.977 137.572C263.967 137.292 264.054 137.137 264.092 137.148Z" fill="black"/>
<path d="M269.573 129.967C269.466 130.112 269.004 129.967 268.465 129.967C267.926 129.967 267.502 130.101 267.357 129.967C267.213 129.832 267.357 129.754 267.569 129.619C267.835 129.452 268.142 129.361 268.455 129.358C268.771 129.35 269.082 129.434 269.352 129.6C269.554 129.773 269.621 129.899 269.573 129.967Z" fill="black"/>
<path d="M262.147 133.634C262.145 133.782 262.199 133.925 262.3 134.033C262.4 134.141 262.539 134.206 262.686 134.214C262.758 134.22 262.83 134.212 262.899 134.19C262.967 134.169 263.031 134.134 263.085 134.086C263.141 134.04 263.186 133.983 263.218 133.918C263.25 133.854 263.269 133.783 263.274 133.711C263.274 133.565 263.219 133.425 263.118 133.319C263.018 133.213 262.88 133.149 262.735 133.142C262.664 133.134 262.592 133.141 262.523 133.162C262.455 133.182 262.391 133.216 262.336 133.262C262.281 133.308 262.236 133.365 262.204 133.429C262.172 133.492 262.152 133.562 262.147 133.634Z" fill="black"/>
<path d="M261.415 132.032C261.483 132.109 261.916 131.801 262.522 131.81C263.129 131.82 263.563 132.129 263.631 132.061C263.698 131.993 263.631 131.897 263.399 131.753C263.143 131.564 262.832 131.462 262.513 131.463C262.2 131.453 261.894 131.544 261.636 131.723C261.445 131.868 261.377 131.993 261.415 132.032Z" fill="black"/>
<path d="M261.068 130.738C261.184 130.883 261.656 130.738 262.215 130.738C262.774 130.738 263.245 130.855 263.361 130.738C263.476 130.623 263.361 130.527 263.129 130.391C262.85 130.227 262.53 130.14 262.206 130.14C261.881 130.14 261.561 130.227 261.281 130.391C261.079 130.527 261.011 130.661 261.068 130.738Z" fill="black"/>
<path d="M257.553 135.265C257.553 134.937 257.246 134.146 256.918 134.078C256.071 133.895 254.519 133.885 254.385 136.067C254.202 139.049 257.274 138.614 257.274 138.528C257.274 138.44 257.496 136.385 257.553 135.265Z" fill="#FFBE9D"/>
<path d="M256.485 137.389C256.485 137.389 256.437 137.389 256.34 137.456C256.279 137.483 256.213 137.496 256.147 137.496C256.081 137.496 256.015 137.483 255.955 137.456C255.768 137.322 255.62 137.14 255.527 136.93C255.435 136.72 255.399 136.488 255.425 136.26C255.436 136.004 255.501 135.754 255.617 135.526C255.652 135.435 255.708 135.353 255.779 135.288C255.851 135.223 255.938 135.176 256.032 135.15C256.093 135.137 256.157 135.146 256.211 135.176C256.266 135.205 256.308 135.255 256.33 135.313C256.337 135.362 256.337 135.41 256.33 135.458C256.33 135.458 256.398 135.458 256.378 135.295C256.366 135.22 256.329 135.151 256.273 135.102C256.236 135.066 256.192 135.038 256.143 135.021C256.095 135.005 256.044 134.999 255.993 135.005C255.87 135.02 255.753 135.068 255.653 135.143C255.554 135.217 255.475 135.315 255.425 135.429C255.282 135.68 255.203 135.962 255.194 136.249C255.161 136.516 255.208 136.784 255.328 137.023C255.448 137.262 255.636 137.46 255.868 137.591C255.948 137.618 256.031 137.627 256.114 137.619C256.197 137.611 256.278 137.585 256.349 137.543C256.484 137.495 256.485 137.398 256.485 137.389Z" fill="#EB996E"/>
<path d="M256.802 134.087L257.553 134.869C260.827 131.742 267.232 123.896 266.876 124.359C265.381 123.806 263.773 123.634 262.195 123.858C259.759 124.273 255.146 125.488 255.213 128.354C255.357 130.353 255.896 132.302 256.802 134.087Z" fill="black"/>
<path d="M252.468 133.432C252.468 133.432 252.468 133.364 252.468 133.258C252.525 133.096 252.592 132.938 252.67 132.785C252.98 132.232 253.408 131.754 253.922 131.386C254.685 130.84 255.535 130.429 256.437 130.169C257.4 129.851 258.555 129.6 259.663 129.127C261.558 128.325 263.268 127.143 264.69 125.653C265.118 125.2 265.52 124.723 265.894 124.224L266.192 123.809C266.225 123.759 266.263 123.714 266.308 123.674L266.221 123.829C266.153 123.924 266.067 124.08 265.942 124.263C265.583 124.777 265.191 125.268 264.767 125.73C264.133 126.412 263.437 127.033 262.686 127.583C261.769 128.259 260.772 128.823 259.72 129.262C258.659 129.67 257.575 130.018 256.475 130.305C255.588 130.552 254.748 130.947 253.99 131.472C253.479 131.825 253.049 132.282 252.729 132.814C252.626 133.014 252.539 133.219 252.468 133.432Z" fill="#455A64"/>
<path d="M253.335 133.895C253.328 133.673 253.368 133.453 253.451 133.248C253.673 132.677 254.063 132.185 254.567 131.839C255.326 131.354 256.175 131.025 257.062 130.874C258.125 130.671 259.163 130.347 260.154 129.909C261.139 129.46 262.064 128.889 262.908 128.211C263.608 127.653 264.253 127.029 264.835 126.348C265.217 125.889 265.568 125.406 265.884 124.9C265.99 124.735 266.076 124.59 266.135 124.484C266.165 124.433 266.199 124.384 266.241 124.34C266.22 124.394 266.194 124.445 266.164 124.495L265.932 124.928C265.637 125.454 265.295 125.951 264.912 126.415C264.342 127.127 263.696 127.775 262.985 128.345C262.134 129.039 261.199 129.622 260.202 130.083C259.199 130.525 258.149 130.848 257.071 131.048C256.2 131.211 255.366 131.539 254.616 132.013C254.116 132.339 253.724 132.806 253.49 133.355C253.422 133.529 253.371 133.71 253.335 133.895Z" fill="#455A64"/>
<path d="M251.592 160.861C251.45 158.959 251.45 157.049 251.592 155.147C251.72 157.05 251.72 158.958 251.592 160.861Z" fill="black"/>
<path d="M272.029 160.456C272.003 160.134 272.003 159.811 272.029 159.491C272.086 158.685 272.058 157.876 271.942 157.078C271.792 156.28 271.559 155.501 271.249 154.751C271.103 154.442 270.986 154.118 270.902 153.786C271.09 154.068 271.249 154.369 271.374 154.685C271.731 155.429 271.986 156.217 272.135 157.03C272.249 157.846 272.249 158.674 272.135 159.491C272.14 159.815 272.104 160.14 272.029 160.456Z" fill="black"/>
<path d="M375.983 168.93H302.356C300.602 168.927 298.92 168.227 297.68 166.985C296.44 165.742 295.742 164.057 295.739 162.299V131.318L287.621 124.099H375.983C376.858 124.092 377.723 124.259 378.532 124.59C379.341 124.921 380.078 125.409 380.697 126.027C381.316 126.644 381.807 127.378 382.143 128.187C382.478 128.996 382.649 129.863 382.648 130.738V162.299C382.647 163.174 382.473 164.039 382.138 164.847C381.801 165.653 381.31 166.386 380.691 167.002C380.071 167.618 379.336 168.105 378.529 168.436C377.721 168.767 376.856 168.934 375.983 168.93Z" fill="#EBEBEB"/>
<path d="M370.937 173.948C368.325 174.197 365.7 174.281 363.078 174.2C360.46 174.281 357.838 174.197 355.229 173.948C357.838 173.7 360.46 173.616 363.078 173.697C365.7 173.616 368.325 173.7 370.937 173.948Z" fill="#6FE3BC"/>
<path d="M374.183 174.567C374.15 174.566 374.118 174.558 374.088 174.545C374.058 174.532 374.032 174.513 374.009 174.488L372.488 172.897C372.443 172.852 372.419 172.791 372.419 172.727C372.419 172.665 372.443 172.604 372.488 172.559C372.509 172.536 372.536 172.518 372.564 172.504C372.593 172.492 372.625 172.486 372.656 172.486C372.687 172.486 372.719 172.492 372.748 172.504C372.777 172.518 372.803 172.536 372.825 172.559L374.173 173.967L377.13 170.957C377.151 170.933 377.178 170.915 377.206 170.902C377.235 170.89 377.267 170.884 377.299 170.884C377.329 170.884 377.361 170.89 377.39 170.902C377.419 170.915 377.445 170.933 377.467 170.957C377.511 171.002 377.536 171.062 377.536 171.125C377.536 171.189 377.511 171.249 377.467 171.295L374.336 174.488C374.295 174.531 374.241 174.557 374.183 174.567Z" fill="#6FE3BC"/>
<path d="M376.349 174.518H376.07C376.007 174.518 375.945 174.493 375.9 174.447C375.855 174.402 375.829 174.341 375.829 174.277C375.837 174.213 375.865 174.155 375.911 174.11C375.957 174.066 376.017 174.039 376.08 174.035H376.253L379.306 170.918C379.329 170.895 379.356 170.875 379.385 170.863C379.415 170.851 379.447 170.844 379.48 170.844C379.512 170.844 379.544 170.851 379.574 170.863C379.604 170.875 379.631 170.895 379.653 170.918C379.697 170.963 379.722 171.023 379.722 171.087C379.722 171.15 379.697 171.21 379.653 171.256L376.523 174.44C376.502 174.466 376.475 174.485 376.445 174.499C376.415 174.512 376.382 174.518 376.349 174.518Z" fill="#6FE3BC"/>
<path d="M370.937 295.239C368.325 295.487 365.7 295.571 363.078 295.489C360.46 295.571 357.838 295.487 355.229 295.239C357.838 294.99 360.46 294.907 363.078 294.988C365.7 294.906 368.325 294.99 370.937 295.239Z" fill="#6FE3BC"/>
<path d="M374.183 295.856C374.146 295.86 374.108 295.855 374.073 295.842C374.037 295.829 374.006 295.807 373.981 295.779L372.459 294.186C372.432 294.165 372.41 294.138 372.394 294.107C372.379 294.076 372.37 294.043 372.369 294.008C372.368 293.974 372.374 293.939 372.386 293.907C372.399 293.875 372.419 293.846 372.443 293.823C372.469 293.799 372.499 293.781 372.532 293.77C372.564 293.759 372.598 293.755 372.633 293.758C372.667 293.761 372.7 293.772 372.73 293.79C372.76 293.806 372.786 293.83 372.805 293.859L374.154 295.267L377.11 292.257C377.132 292.233 377.158 292.214 377.187 292.202C377.216 292.19 377.247 292.183 377.279 292.183C377.311 292.183 377.342 292.19 377.37 292.202C377.4 292.214 377.426 292.233 377.447 292.257C377.491 292.302 377.516 292.362 377.516 292.425C377.516 292.488 377.491 292.548 377.447 292.594L374.356 295.779C374.309 295.824 374.248 295.851 374.183 295.856Z" fill="#6FE3BC"/>
<path d="M376.349 295.779H376.07C376.006 295.776 375.944 295.749 375.899 295.702C375.855 295.656 375.829 295.593 375.829 295.528C375.829 295.496 375.837 295.464 375.849 295.435C375.861 295.405 375.881 295.378 375.904 295.357C375.928 295.335 375.955 295.319 375.985 295.308C376.016 295.297 376.048 295.294 376.08 295.296H376.253L379.306 292.178C379.329 292.156 379.356 292.137 379.385 292.124C379.415 292.112 379.447 292.105 379.48 292.105C379.512 292.105 379.544 292.112 379.574 292.124C379.604 292.137 379.631 292.156 379.653 292.178C379.697 292.224 379.722 292.284 379.722 292.348C379.722 292.411 379.697 292.471 379.653 292.517L376.523 295.702C376.502 295.727 376.475 295.746 376.445 295.76C376.415 295.773 376.382 295.78 376.349 295.779Z" fill="#6FE3BC"/>
<path d="M375.04 132.968C375.04 133.103 358.966 133.219 339.136 133.219C319.306 133.219 303.242 133.103 303.242 132.968C303.242 132.833 319.306 132.718 339.136 132.718C358.966 132.718 375.04 132.823 375.04 132.968Z" fill="white"/>
<path d="M375.04 138.248C375.04 138.392 358.966 138.499 339.136 138.499C319.306 138.499 303.242 138.392 303.242 138.248C303.242 138.103 319.306 137.996 339.136 137.996C358.966 137.996 375.04 138.112 375.04 138.248Z" fill="white"/>
<path d="M375.04 143.536C375.04 143.672 358.966 143.788 339.136 143.788C319.306 143.788 303.242 143.672 303.242 143.536C303.242 143.402 319.306 143.285 339.136 143.285C358.966 143.285 375.04 143.402 375.04 143.536Z" fill="white"/>
<path d="M261.242 297.806C273.172 297.806 282.844 288.135 282.844 276.206C282.844 264.276 273.172 254.605 261.242 254.605C249.311 254.605 239.64 264.276 239.64 276.206C239.64 288.135 249.311 297.806 261.242 297.806Z" fill="#6FE3BC"/>
<path d="M251.149 281.611L256.812 281.128L270.622 283.463L272.25 293.848L272.019 295.055C268.909 296.817 265.412 297.782 261.84 297.865C258.269 297.947 254.731 297.145 251.543 295.528L251.149 281.582" fill="#455A64"/>
<path d="M267.666 283.29C269.035 283.091 270.432 283.283 271.699 283.841C272.966 284.399 274.051 285.301 274.831 286.446C275.769 287.758 276.627 289.124 277.402 290.538C275.149 292.989 273.319 294.852 270.199 295.933L267.666 283.29Z" fill="#455A64"/>
<path d="M251.149 281.611C251.149 281.611 247.412 282.064 245.967 285.259C244.522 288.453 244.186 289.457 244.186 289.457C246.112 291.783 248.577 294.544 251.592 295.577C251.592 295.577 252.276 287.537 252.363 285.259C252.468 282.769 252.565 281.534 251.149 281.611Z" fill="#455A64"/>
<path d="M254.558 261.149C255.498 259.94 256.698 258.957 258.068 258.276C259.439 257.594 260.944 257.231 262.474 257.211C263.79 257.204 265.095 257.436 266.327 257.897C267.622 258.212 268.766 258.97 269.563 260.039C270.543 261.305 271.186 262.799 271.431 264.383C271.657 266.007 271.735 267.648 271.663 269.286C271.585 270.93 271.055 272.519 270.131 273.88L265.98 274.603C263.691 274.782 261.389 274.659 259.132 274.237C256.852 273.798 254.837 272.472 253.528 270.55C251.861 267.789 252.554 263.61 254.558 261.149Z" fill="black"/>
<path d="M250.552 273.204C250.593 272.733 250.741 272.278 250.985 271.873C251.229 271.468 251.561 271.125 251.958 270.868C252.362 270.622 252.832 270.511 253.304 270.551C253.775 270.591 254.221 270.78 254.578 271.09L255.233 271.872C255.738 272.105 256.16 272.491 256.436 272.976C256.712 273.461 256.83 274.02 256.773 274.575C256.695 275.128 256.461 275.648 256.099 276.073C255.738 276.498 255.264 276.812 254.731 276.978C254.195 277.128 253.629 277.138 253.088 277.006C252.546 276.874 252.048 276.605 251.64 276.225C251.24 275.839 250.933 275.366 250.745 274.842C250.556 274.318 250.489 273.758 250.552 273.204Z" fill="black"/>
<path d="M251.37 276.003C251.216 275.754 251.139 275.466 251.149 275.173C251.288 274.473 251.621 273.828 252.112 273.311C252.574 272.761 253.14 272.308 253.778 271.979C254.26 271.718 254.597 271.621 254.587 271.582C254.28 271.611 253.983 271.699 253.711 271.843C253.035 272.152 252.437 272.607 251.958 273.175C251.691 273.486 251.464 273.83 251.284 274.199C251.125 274.497 251.033 274.826 251.014 275.163C251.011 275.396 251.075 275.623 251.197 275.82C251.284 275.965 251.37 276.012 251.37 276.003Z" fill="#455A64"/>
<path d="M265.961 282.904V279.044C265.961 279.044 269.341 278.667 270.286 274.333C270.729 271.461 270.902 268.553 270.806 265.647C270.806 263.012 268.543 259.422 265.287 259.412L263.842 259.248L258.305 261.449C257.919 261.468 257.555 261.631 257.284 261.906C257.013 262.182 256.855 262.549 256.841 262.935L256.677 281.466L259.209 285.027C259.674 285.656 260.322 286.124 261.064 286.365C261.807 286.606 262.606 286.608 263.35 286.371C264.093 286.133 264.744 285.668 265.211 285.041C265.678 284.414 265.936 283.657 265.951 282.875L265.961 282.904Z" fill="#FFBE9D"/>
<path d="M263.736 272.973C263.766 272.75 263.88 272.545 264.054 272.403C264.212 272.27 264.409 272.192 264.616 272.179C264.822 272.167 265.027 272.222 265.2 272.335C265.377 272.474 265.515 272.656 265.6 272.865C265.684 273.073 265.712 273.299 265.682 273.522C265.584 273.656 265.461 273.766 265.318 273.848C265.175 273.929 265.017 273.98 264.853 273.995H264.699C264.442 273.99 264.196 273.89 264.006 273.716C263.908 273.621 263.832 273.504 263.785 273.375C263.739 273.247 263.722 273.109 263.736 272.973Z" fill="#EB996E"/>
<path d="M268.773 268.755C268.756 268.892 268.688 269.017 268.585 269.109C268.481 269.2 268.348 269.251 268.21 269.251C268.072 269.251 267.939 269.2 267.835 269.109C267.731 269.017 267.665 268.892 267.646 268.755C267.654 268.607 267.718 268.469 267.826 268.367C267.934 268.266 268.077 268.212 268.225 268.215C268.296 268.213 268.367 268.226 268.434 268.253C268.501 268.28 268.561 268.319 268.612 268.369C268.663 268.419 268.704 268.48 268.731 268.546C268.759 268.611 268.773 268.683 268.773 268.755Z" fill="black"/>
<path d="M269.698 267.317C269.621 267.385 269.207 267.046 268.609 267.018C268.012 266.989 267.541 267.259 267.482 267.182C267.425 267.104 267.53 267.018 267.734 266.892C268.002 266.721 268.32 266.643 268.639 266.67C268.953 266.683 269.253 266.798 269.495 266.998C269.669 267.152 269.727 267.288 269.698 267.317Z" fill="black"/>
<path d="M265.894 271.892C266.21 271.817 266.532 271.774 266.857 271.766C267.011 271.766 267.164 271.766 267.194 271.631C267.215 271.472 267.188 271.311 267.117 271.168C266.991 270.791 266.857 270.395 266.721 269.971C266.356 268.953 266.069 267.907 265.865 266.844C266.316 267.828 266.687 268.849 266.973 269.894C267.107 270.318 267.223 270.714 267.348 271.1C267.429 271.292 267.446 271.505 267.396 271.709C267.369 271.762 267.333 271.808 267.285 271.845C267.238 271.882 267.184 271.908 267.126 271.92C267.04 271.934 266.952 271.934 266.866 271.92C266.542 271.955 266.215 271.945 265.894 271.892Z" fill="black"/>
<path d="M265.923 279.062C263.86 278.982 261.86 278.331 260.145 277.181C260.145 277.181 261.54 280.298 265.923 280.134V279.062Z" fill="#EB996E"/>
<path d="M264.092 272.21C264.199 272.21 264.16 272.867 264.699 273.368C265.239 273.87 265.932 273.832 265.932 273.918C265.932 274.005 265.769 274.034 265.48 274.034C265.092 274.018 264.724 273.864 264.44 273.6C264.165 273.352 263.999 273.005 263.977 272.635C263.967 272.364 264.054 272.21 264.092 272.21Z" fill="black"/>
<path d="M269.573 265.038C269.466 265.183 269.004 265.038 268.465 265.038C267.926 265.038 267.502 265.174 267.357 265.038C267.213 264.904 267.357 264.827 267.569 264.691C267.833 264.52 268.141 264.429 268.455 264.431C268.771 264.418 269.084 264.502 269.352 264.673C269.554 264.827 269.621 264.972 269.573 265.038Z" fill="black"/>
<path d="M262.147 268.677C262.145 268.824 262.199 268.966 262.301 269.073C262.401 269.18 262.54 269.242 262.686 269.248C262.757 269.255 262.83 269.249 262.899 269.228C262.966 269.208 263.03 269.173 263.085 269.126C263.141 269.081 263.185 269.025 263.218 268.96C263.25 268.896 263.269 268.826 263.274 268.754C263.277 268.607 263.222 268.464 263.121 268.356C263.021 268.248 262.882 268.183 262.735 268.176C262.663 268.17 262.591 268.177 262.522 268.198C262.454 268.221 262.39 268.256 262.336 268.302C262.28 268.349 262.236 268.407 262.204 268.471C262.172 268.536 262.152 268.605 262.147 268.677Z" fill="black"/>
<path d="M261.415 267.095C261.483 267.172 261.916 266.864 262.522 266.882C263.129 266.902 263.563 267.201 263.631 267.123C263.698 267.046 263.631 266.96 263.399 266.815C263.141 266.63 262.831 266.53 262.513 266.525C262.2 266.523 261.894 266.617 261.636 266.796C261.445 266.93 261.377 267.066 261.415 267.095Z" fill="black"/>
<path d="M261.068 265.801C261.184 265.937 261.656 265.801 262.215 265.801C262.774 265.801 263.245 265.908 263.361 265.801C263.476 265.695 263.361 265.599 263.129 265.464C262.85 265.3 262.53 265.212 262.206 265.212C261.881 265.212 261.561 265.3 261.281 265.464C261.079 265.589 261.011 265.734 261.068 265.801Z" fill="black"/>
<path d="M257.553 269.962C257.553 269.633 257.246 268.851 256.918 268.784C256.071 268.6 254.519 268.581 254.385 270.762C254.202 273.744 257.274 273.32 257.274 273.234C257.274 273.146 257.496 271.09 257.553 269.962Z" fill="#FFBE9D"/>
<path d="M256.485 272.094C256.485 272.094 256.437 272.094 256.34 272.162C256.216 272.209 256.079 272.209 255.955 272.162C255.769 272.029 255.621 271.849 255.529 271.641C255.436 271.431 255.4 271.202 255.425 270.975C255.435 270.719 255.5 270.468 255.617 270.241C255.652 270.15 255.708 270.069 255.779 270.003C255.851 269.938 255.938 269.89 256.032 269.865C256.091 269.853 256.154 269.862 256.208 269.89C256.262 269.917 256.305 269.964 256.33 270.019C256.338 270.071 256.338 270.122 256.33 270.173C256.33 270.173 256.398 270.125 256.378 270C256.364 269.926 256.327 269.858 256.273 269.807C256.234 269.775 256.19 269.75 256.141 269.735C256.093 269.72 256.043 269.715 255.993 269.72C255.87 269.734 255.752 269.781 255.652 269.855C255.552 269.93 255.474 270.03 255.425 270.145C255.281 270.394 255.202 270.677 255.194 270.965C255.162 271.229 255.209 271.497 255.329 271.733C255.449 271.971 255.637 272.167 255.868 272.296C255.943 272.333 256.025 272.353 256.109 272.353C256.193 272.353 256.275 272.333 256.349 272.296C256.484 272.162 256.485 272.094 256.485 272.094Z" fill="#EB996E"/>
<path d="M256.802 268.755L257.553 269.547C260.827 266.409 267.232 258.563 266.876 259.036C265.383 258.476 263.773 258.3 262.195 258.525C259.759 258.94 255.146 260.155 255.213 263.032C255.358 265.026 255.897 266.973 256.802 268.755Z" fill="black"/>
<path d="M252.468 268.128C252.468 268.128 252.468 268.07 252.468 267.954C252.527 267.796 252.594 267.642 252.67 267.49C252.982 266.936 253.409 266.456 253.922 266.082C254.702 265.541 255.569 265.139 256.485 264.895C257.448 264.566 258.603 264.315 259.711 263.842C260.754 263.409 261.742 262.855 262.658 262.192C263.404 261.652 264.102 261.044 264.738 260.377C265.278 259.799 265.701 259.296 265.942 258.949C266.057 258.775 266.164 258.64 266.241 258.534C266.317 258.428 266.346 258.389 266.356 258.399L266.269 258.553L265.99 258.978C265.636 259.496 265.243 259.986 264.815 260.445C264.183 261.131 263.485 261.754 262.735 262.307C261.811 262.965 260.811 263.508 259.759 263.929C258.641 264.403 257.505 264.653 256.514 264.972C255.627 265.216 254.787 265.608 254.029 266.13C253.517 266.485 253.087 266.946 252.767 267.481C252.654 267.69 252.554 267.906 252.468 268.128Z" fill="#455A64"/>
<path d="M253.335 268.6C253.328 268.376 253.368 268.152 253.451 267.945C253.671 267.374 254.061 266.885 254.567 266.545C255.326 266.059 256.175 265.731 257.062 265.579C258.124 265.371 259.161 265.048 260.154 264.614C261.139 264.165 262.064 263.595 262.908 262.915C264.068 261.984 265.064 260.865 265.855 259.606C265.961 259.432 266.048 259.296 266.105 259.18C266.137 259.133 266.172 259.088 266.212 259.046C266.191 259.099 266.165 259.151 266.135 259.2L265.903 259.634C265.608 260.158 265.266 260.656 264.883 261.12C264.314 261.833 263.668 262.481 262.956 263.051C262.106 263.744 261.171 264.325 260.173 264.779C259.168 265.215 258.118 265.539 257.043 265.743C256.168 265.899 255.333 266.226 254.587 266.708C254.082 267.028 253.689 267.498 253.46 268.05C253.401 268.229 253.359 268.413 253.335 268.6Z" fill="#455A64"/>
<path d="M251.592 295.557C251.451 293.658 251.451 291.752 251.592 289.853C251.72 291.752 251.72 293.658 251.592 295.557Z" fill="black"/>
<path d="M272.029 295.162C272.001 294.825 272.001 294.485 272.029 294.148C272.086 293.34 272.058 292.528 271.942 291.725C271.791 290.931 271.558 290.155 271.249 289.409C271.105 289.098 270.988 288.775 270.902 288.444C271.09 288.726 271.249 289.027 271.374 289.341C271.732 290.085 271.988 290.874 272.135 291.686C272.249 292.503 272.249 293.331 272.135 294.148C272.143 294.489 272.107 294.83 272.029 295.162Z" fill="black"/>
<path d="M375.983 288.908H302.356C300.601 288.905 298.917 288.204 297.677 286.959C296.437 285.714 295.739 284.027 295.739 282.267V266.014L287.621 258.795H375.983C377.738 258.797 379.419 259.497 380.659 260.739C381.9 261.982 382.598 263.668 382.6 265.425V282.267C382.6 284.027 381.903 285.714 380.663 286.959C379.422 288.204 377.74 288.905 375.983 288.908Z" fill="#EBEBEB"/>
<path d="M375.04 267.664C375.04 267.809 358.966 267.915 339.136 267.915C319.306 267.915 303.242 267.809 303.242 267.664C303.242 267.519 319.306 267.413 339.136 267.413C358.966 267.413 375.04 267.529 375.04 267.664Z" fill="white"/>
<path d="M375.04 272.953C375.04 273.089 358.966 273.204 339.136 273.204C319.306 273.204 303.242 273.089 303.242 272.953C303.242 272.819 319.306 272.702 339.136 272.702C358.966 272.702 375.04 272.819 375.04 272.953Z" fill="white"/>
<path d="M375.04 278.242C375.04 278.378 358.966 278.493 339.136 278.493C319.306 278.493 303.242 278.378 303.242 278.242C303.242 278.108 319.306 277.991 339.136 277.991C358.966 277.991 375.04 278.097 375.04 278.242Z" fill="white"/>
<path d="M375.04 148.825C375.04 148.961 358.966 149.077 339.136 149.077C319.306 149.077 303.242 148.961 303.242 148.825C303.242 148.691 319.306 148.574 339.136 148.574C358.966 148.574 375.04 148.681 375.04 148.825Z" fill="white"/>
<path d="M375.04 154.105C375.04 154.25 358.966 154.356 339.136 154.356C319.306 154.356 303.242 154.25 303.242 154.105C303.242 153.96 319.306 153.854 339.136 153.854C358.966 153.854 375.04 153.969 375.04 154.105Z" fill="white"/>
<path d="M375.04 160.456C375.04 160.6 358.966 160.706 339.136 160.706C319.306 160.706 303.242 160.6 303.242 160.456C303.242 160.311 319.306 160.205 339.136 160.205C358.966 160.205 375.04 160.321 375.04 160.456Z" fill="white"/>
<path d="M303.676 68.6123C303.727 67.8624 303.996 67.1438 304.449 66.5447C304.902 65.9457 305.52 65.4923 306.227 65.2402C306.934 64.9881 307.699 64.9482 308.427 65.1255C309.156 65.3027 309.817 65.6894 310.331 66.2381L309.3 67.2032C309.087 66.9446 308.819 66.7368 308.516 66.5949C308.212 66.453 307.882 66.3806 307.547 66.3828C306.954 66.3828 306.386 66.6187 305.967 67.0387C305.548 67.4585 305.312 68.0281 305.312 68.622C305.312 69.2158 305.548 69.7853 305.967 70.2053C306.386 70.6252 306.954 70.8611 307.547 70.8611C307.882 70.8636 308.214 70.7902 308.518 70.6466C308.821 70.5028 309.089 70.2924 309.3 70.031L310.331 70.9963C309.818 71.5445 309.158 71.9312 308.43 72.1088C307.701 72.2865 306.937 72.2475 306.23 71.9964C305.525 71.7455 304.906 71.2934 304.452 70.6958C303.999 70.0981 303.728 69.3808 303.676 68.6316V68.6123Z" fill="black"/>
<path d="M316.734 69.0273V72.1062H315.232V69.2686C315.232 68.4 314.828 68.0043 314.144 68.0043C313.46 68.0043 312.863 68.4675 312.863 69.452V72.1062H311.303V64.7034H312.863V67.2997C313.089 67.0822 313.357 66.9128 313.65 66.8017C313.942 66.6905 314.255 66.6399 314.568 66.6531C314.873 66.6407 315.178 66.6952 315.46 66.8131C315.743 66.931 315.996 67.1091 316.202 67.3353C316.408 67.5615 316.563 67.83 316.655 68.1223C316.747 68.4146 316.774 68.7234 316.734 69.0273Z" fill="black"/>
<path d="M322.88 69.0466V72.1061H321.425V71.4402C321.244 71.7006 320.997 71.9072 320.709 72.038C320.421 72.1689 320.102 72.2191 319.788 72.1833C318.536 72.1833 317.795 71.4884 317.795 70.5619C317.795 69.6353 318.459 68.9501 320.096 68.9501H321.328C321.328 68.2841 320.924 67.898 320.096 67.898C319.54 67.8924 318.996 68.0649 318.545 68.3903L317.986 67.3093C318.674 66.8633 319.479 66.6346 320.299 66.653C321.974 66.653 322.88 67.4155 322.88 69.0466ZM321.328 70.4074V69.8573H320.26C319.538 69.8573 319.297 70.1275 319.297 70.4943C319.297 70.861 319.624 71.1409 320.173 71.1409C320.419 71.1594 320.664 71.0981 320.872 70.9659C321.08 70.8338 321.24 70.6379 321.328 70.4074Z" fill="black"/>
<path d="M327.752 71.8649C327.373 72.1038 326.929 72.2216 326.481 72.2026C326.216 72.2391 325.948 72.215 325.693 72.1318C325.44 72.0488 325.208 71.9091 325.017 71.7232C324.824 71.5372 324.677 71.3101 324.585 71.0587C324.494 70.8074 324.461 70.5384 324.487 70.2723V68.0621H323.659V66.8654H324.487V65.5527H326.038V66.8654H327.377V68.0621H326.038V70.2531C326.027 70.345 326.036 70.4385 326.065 70.5265C326.093 70.6147 326.14 70.6954 326.204 70.7627C326.268 70.8301 326.345 70.8825 326.432 70.9162C326.518 70.9499 326.61 70.9641 326.702 70.9576C326.929 70.9657 327.15 70.894 327.329 70.755L327.752 71.8649Z" fill="black"/>
<path d="M355.229 79.3834C355.229 79.5184 338.856 79.6343 318.565 79.6343C298.272 79.6343 281.91 79.5184 281.91 79.3834C281.91 79.2483 298.282 79.1228 318.565 79.1228C338.847 79.1228 355.229 79.2386 355.229 79.3834Z" fill="black"/>
<path d="M387.714 68.6123C388.655 68.6123 389.419 67.8475 389.419 66.9041C389.419 65.9605 388.655 65.1957 387.714 65.1957C386.772 65.1957 386.01 65.9605 386.01 66.9041C386.01 67.8475 386.772 68.6123 387.714 68.6123Z" fill="black"/>
<path d="M389.39 71.8649C389.391 72.2055 389.293 72.5389 389.105 72.8229C388.918 73.107 388.65 73.3286 388.336 73.4598C388.022 73.5911 387.677 73.6259 387.344 73.5599C387.01 73.494 386.704 73.3302 386.464 73.0893C386.223 72.8484 386.06 72.5415 385.994 72.2073C385.928 71.8731 385.962 71.5269 386.094 71.2126C386.225 70.8983 386.445 70.6301 386.729 70.4421C387.012 70.254 387.346 70.1547 387.685 70.1565C388.136 70.1591 388.569 70.3398 388.888 70.6597C389.207 70.9795 389.387 71.4126 389.39 71.8649Z" fill="black"/>
<path d="M389.39 76.8739C389.391 77.2145 389.293 77.548 389.105 77.832C388.918 78.116 388.65 78.3377 388.336 78.4689C388.022 78.6002 387.677 78.635 387.344 78.5689C387.01 78.5029 386.704 78.3392 386.464 78.0984C386.223 77.8575 386.06 77.5505 385.994 77.2164C385.928 76.8822 385.962 76.536 386.094 76.2217C386.225 75.9073 386.445 75.6391 386.729 75.4511C387.012 75.2631 387.346 75.1637 387.685 75.1656C388.137 75.1656 388.571 75.3456 388.891 75.666C389.21 75.9864 389.39 76.4208 389.39 76.8739Z" fill="black"/>
<path d="M249.088 72.6948C248.983 72.6971 248.881 72.663 248.798 72.5984L244.283 69.2782C244.22 69.2322 244.17 69.1726 244.135 69.104C244.1 69.0354 244.081 68.9596 244.08 68.8826C244.081 68.8066 244.099 68.7319 244.134 68.6647C244.169 68.5975 244.22 68.5399 244.283 68.4965L248.798 65.2343C248.851 65.1972 248.909 65.1709 248.972 65.1566C249.033 65.1424 249.098 65.1406 249.16 65.1513C249.223 65.1621 249.282 65.1853 249.337 65.2194C249.39 65.2535 249.436 65.2979 249.473 65.3501C249.546 65.4529 249.576 65.5803 249.555 65.7047C249.536 65.8291 249.468 65.9408 249.368 66.0161L245.38 68.9114L249.368 71.8069C249.469 71.8838 249.537 71.9972 249.556 72.1233C249.576 72.2493 249.546 72.3781 249.473 72.4825C249.431 72.5466 249.374 72.5994 249.307 72.6364C249.239 72.6734 249.164 72.6934 249.088 72.6948Z" fill="black"/>
<path d="M366.96 234.975C378.89 234.975 388.562 225.304 388.562 213.375C388.562 201.446 378.89 191.775 366.96 191.775C355.029 191.775 345.357 201.446 345.357 213.375C345.357 225.304 355.029 234.975 366.96 234.975Z" fill="#6FE3BC"/>
<path d="M372.873 226.144H361.509C361.12 226.144 360.748 225.989 360.473 225.714C360.199 225.439 360.044 225.066 360.044 224.676C360.044 224.287 360.198 223.913 360.473 223.636C360.747 223.359 361.119 223.203 361.509 223.2H372.873C373.262 223.203 373.634 223.359 373.909 223.636C374.183 223.913 374.336 224.287 374.336 224.676C374.336 225.066 374.183 225.439 373.908 225.714C373.634 225.989 373.261 226.144 372.873 226.144Z" fill="black"/>
<path d="M367.836 199.332H366.834V204.39H367.836V199.332Z" fill="black"/>
<path d="M352.61 219.552C354.226 219.552 355.538 218.238 355.538 216.618C355.538 214.998 354.226 213.683 352.61 213.683C350.993 213.683 349.682 214.998 349.682 216.618C349.682 218.238 350.993 219.552 352.61 219.552Z" fill="#6FE3BC"/>
<path d="M382.215 219.359C383.832 219.359 385.143 218.045 385.143 216.425C385.143 214.804 383.832 213.49 382.215 213.49C380.597 213.49 379.287 214.804 379.287 216.425C379.287 218.045 380.597 219.359 382.215 219.359Z" fill="#6FE3BC"/>
<path d="M367.769 203.327C367.769 203.327 379.692 203.183 381.579 213.538C383.467 223.895 373.384 224.078 370.485 224.272C369.174 224.358 366.363 224.368 363.877 224.329C358.379 224.233 354.497 223.171 353.178 218.056C353.019 217.456 352.92 216.841 352.88 216.222C352.532 210.624 356.308 203.057 367.769 203.327Z" fill="#6FE3BC"/>
<path d="M359.12 219.088L376.456 219.359C377.327 219.372 378.169 219.037 378.796 218.43C379.422 217.821 379.782 216.989 379.798 216.116C379.808 215.242 379.472 214.399 378.863 213.774C378.255 213.148 377.424 212.789 376.552 212.776L359.217 212.506C358.784 212.498 358.355 212.576 357.952 212.735C357.55 212.894 357.184 213.131 356.874 213.432C356.563 213.734 356.315 214.093 356.144 214.491C355.972 214.889 355.881 215.316 355.875 215.749C355.868 216.182 355.947 216.612 356.107 217.015C356.267 217.416 356.505 217.783 356.806 218.094C357.108 218.404 357.466 218.652 357.864 218.822C358.261 218.993 358.688 219.083 359.12 219.088Z" fill="black"/>
<path d="M372.854 215.759C372.879 215.896 372.932 216.025 373.007 216.141C373.083 216.257 373.181 216.358 373.296 216.436C373.41 216.514 373.539 216.569 373.675 216.596C373.81 216.624 373.951 216.625 374.086 216.599C374.233 216.583 374.375 216.538 374.503 216.465C374.632 216.392 374.742 216.293 374.831 216.175C374.919 216.056 374.98 215.92 375.013 215.776C375.046 215.633 375.048 215.484 375.019 215.339C374.992 215.194 374.933 215.056 374.849 214.935C374.765 214.814 374.656 214.712 374.53 214.635C374.404 214.558 374.264 214.508 374.118 214.49C373.971 214.47 373.824 214.482 373.682 214.523C373.547 214.55 373.418 214.603 373.303 214.679C373.188 214.756 373.089 214.855 373.013 214.969C372.936 215.084 372.881 215.212 372.855 215.348C372.827 215.484 372.827 215.623 372.854 215.759Z" fill="white"/>
<path d="M360.748 215.566C360.762 215.713 360.808 215.855 360.881 215.983C360.953 216.111 361.052 216.223 361.17 216.312C361.288 216.399 361.423 216.462 361.568 216.495C361.712 216.527 361.86 216.53 362.005 216.501C362.149 216.472 362.287 216.415 362.408 216.33C362.529 216.245 362.63 216.137 362.707 216.011C362.783 215.884 362.833 215.744 362.852 215.598C362.871 215.451 362.86 215.302 362.818 215.16C362.744 214.906 362.578 214.689 362.352 214.552C362.127 214.414 361.858 214.367 361.599 214.417C361.339 214.467 361.109 214.613 360.951 214.826C360.794 215.039 360.721 215.303 360.748 215.566Z" fill="white"/>
<path d="M368.982 199.264C368.984 199.591 368.889 199.911 368.709 200.184C368.53 200.456 368.273 200.67 367.972 200.796C367.671 200.922 367.34 200.956 367.02 200.894C366.7 200.831 366.406 200.675 366.174 200.445C365.942 200.213 365.786 199.92 365.721 199.6C365.656 199.279 365.688 198.946 365.813 198.644C365.937 198.342 366.149 198.084 366.419 197.902C366.69 197.72 367.009 197.624 367.335 197.624C367.771 197.624 368.188 197.797 368.497 198.104C368.805 198.411 368.98 198.828 368.982 199.264Z" fill="#6FE3BC"/>
<path d="M369.819 215.276C369.819 215.276 369.887 215.353 369.926 215.527C369.956 215.773 369.933 216.024 369.858 216.26C369.753 216.627 369.554 216.959 369.281 217.225C368.947 217.56 368.508 217.768 368.038 217.814C367.569 217.853 367.1 217.731 366.709 217.467C366.4 217.257 366.145 216.976 365.968 216.647C365.853 216.425 365.788 216.181 365.775 215.933C365.775 215.759 365.775 215.662 365.833 215.662C365.89 215.662 365.929 216.029 366.247 216.482C366.433 216.734 366.664 216.947 366.931 217.11C367.253 217.301 367.626 217.39 367.999 217.361C368.358 217.315 368.695 217.16 368.963 216.917C369.205 216.715 369.4 216.461 369.531 216.174C369.782 215.672 369.743 215.276 369.819 215.276Z" fill="white"/>
<path d="M381.56 213.201C381.596 213.282 381.625 213.366 381.646 213.452C381.684 213.553 381.716 213.657 381.743 213.76C381.743 213.876 381.81 214.012 381.839 214.175C381.913 214.536 381.964 214.9 381.993 215.267C382.027 215.716 382.027 216.168 381.993 216.618C381.953 217.066 381.879 217.512 381.771 217.95C381.681 218.304 381.565 218.653 381.425 218.992C381.378 219.126 381.322 219.259 381.261 219.387C381.219 219.484 381.171 219.578 381.117 219.668L380.982 219.908C381.003 219.82 381.039 219.735 381.088 219.658L381.214 219.359C381.261 219.243 381.319 219.117 381.367 218.972C381.497 218.633 381.603 218.285 381.685 217.93C381.788 217.495 381.862 217.053 381.907 216.608C381.936 216.161 381.936 215.713 381.907 215.267C381.882 214.904 381.837 214.543 381.771 214.186C381.752 214.036 381.722 213.888 381.685 213.742C381.685 213.616 381.637 213.52 381.618 213.433C381.588 213.359 381.568 213.28 381.56 213.201Z" fill="black"/>
<path d="M353.313 213.259C353.272 213.342 353.239 213.429 353.216 213.52C353.216 213.597 353.159 213.703 353.12 213.819C353.082 213.935 353.053 214.079 353.023 214.234C352.95 214.594 352.901 214.957 352.88 215.324C352.846 215.774 352.846 216.225 352.88 216.676C352.918 217.125 352.992 217.57 353.101 218.007C353.19 218.366 353.306 218.717 353.448 219.06C353.496 219.204 353.563 219.33 353.611 219.445C353.659 219.561 353.718 219.658 353.755 219.735L353.891 219.967C353.865 219.879 353.829 219.794 353.784 219.715C353.784 219.638 353.707 219.542 353.659 219.426C353.611 219.31 353.553 219.185 353.505 219.04C353.376 218.697 353.269 218.345 353.187 217.988C353.084 217.553 353.01 217.111 352.966 216.666C352.937 216.222 352.937 215.777 352.966 215.334C352.991 214.968 353.035 214.604 353.101 214.243C353.121 214.107 353.15 213.971 353.187 213.838C353.187 213.712 353.236 213.606 353.255 213.529C353.275 213.452 353.313 213.259 353.313 213.259Z" fill="black"/>
<path d="M355.884 231.925C355.884 231.925 359.428 228.46 366.834 228.46C374.241 228.46 378.035 231.925 378.035 231.925C374.693 233.945 370.863 235.014 366.96 235.014C363.056 235.014 359.226 233.945 355.884 231.925Z" fill="#6FE3BC"/>
<path d="M248.78 235.4H322.398C323.267 235.401 324.128 235.23 324.931 234.897C325.734 234.564 326.464 234.076 327.079 233.46C327.694 232.844 328.181 232.113 328.513 231.308C328.845 230.503 329.016 229.64 329.015 228.768V207.361L337.133 200.143H248.78C247.91 200.143 247.05 200.314 246.247 200.647C245.445 200.98 244.715 201.469 244.101 202.085C243.487 202.7 243 203.431 242.667 204.236C242.334 205.04 242.163 205.902 242.163 206.773V228.768C242.162 229.64 242.332 230.503 242.664 231.308C242.997 232.113 243.484 232.844 244.098 233.46C244.713 234.076 245.443 234.564 246.246 234.897C247.049 235.23 247.91 235.401 248.78 235.4Z" fill="#EBEBEB"/>
<path d="M319.085 210.604C319.085 210.749 303.926 210.855 285.223 210.855C266.519 210.855 251.361 210.749 251.361 210.604C251.361 210.46 266.519 210.354 285.223 210.354C303.926 210.354 319.085 210.47 319.085 210.604Z" fill="white"/>
<path d="M319.085 216.338C319.085 216.482 303.926 216.588 285.223 216.588C266.519 216.588 251.361 216.482 251.361 216.338C251.361 216.193 266.519 216.087 285.223 216.087C303.926 216.087 319.085 216.203 319.085 216.338Z" fill="white"/>
<path d="M319.085 222.071C319.085 222.206 303.926 222.321 285.223 222.321C266.519 222.321 251.361 222.206 251.361 222.071C251.361 221.936 266.519 221.82 285.223 221.82C303.926 221.82 319.085 221.936 319.085 222.071Z" fill="white"/>
<path d="M319.085 227.803C319.085 227.939 303.926 228.054 285.223 228.054C266.519 228.054 251.361 227.939 251.361 227.803C251.361 227.669 266.519 227.553 285.223 227.553C303.926 227.553 319.085 227.659 319.085 227.803Z" fill="white"/>
<path d="M366.96 354.923C378.89 354.923 388.562 345.253 388.562 333.324C388.562 321.394 378.89 311.723 366.96 311.723C355.029 311.723 345.357 321.394 345.357 333.324C345.357 345.253 355.029 354.923 366.96 354.923Z" fill="#6FE3BC"/>
<path d="M372.873 346.093H361.509C361.316 346.093 361.124 346.053 360.946 345.979C360.768 345.905 360.606 345.797 360.47 345.659C360.333 345.522 360.227 345.359 360.153 345.18C360.08 345 360.043 344.809 360.044 344.616C360.044 344.226 360.199 343.853 360.473 343.578C360.748 343.303 361.12 343.148 361.509 343.148H372.873C373.261 343.148 373.634 343.303 373.908 343.578C374.183 343.853 374.336 344.226 374.336 344.616C374.338 344.809 374.301 345 374.228 345.18C374.155 345.359 374.047 345.522 373.912 345.659C373.775 345.797 373.613 345.905 373.435 345.979C373.257 346.053 373.066 346.093 372.873 346.093Z" fill="black"/>
<path d="M367.836 319.28H366.834V324.337H367.836V319.28Z" fill="black"/>
<path d="M352.61 339.5C354.226 339.5 355.538 338.186 355.538 336.566C355.538 334.946 354.226 333.632 352.61 333.632C350.993 333.632 349.682 334.946 349.682 336.566C349.682 338.186 350.993 339.5 352.61 339.5Z" fill="#6FE3BC"/>
<path d="M382.215 339.297C383.832 339.297 385.143 337.984 385.143 336.363C385.143 334.743 383.832 333.429 382.215 333.429C380.597 333.429 379.287 334.743 379.287 336.363C379.287 337.984 380.597 339.297 382.215 339.297Z" fill="#6FE3BC"/>
<path d="M367.769 323.276C367.769 323.276 379.692 323.131 381.579 333.478C383.467 343.824 373.384 344.027 370.485 344.219C369.174 344.307 366.363 344.316 363.877 344.278C358.379 344.181 354.497 343.109 353.178 338.004C353.019 337.404 352.92 336.79 352.88 336.17C352.532 330.573 356.308 322.996 367.769 323.276Z" fill="#6FE3BC"/>
<path d="M359.12 339.037L376.456 339.307C377.327 339.32 378.169 338.986 378.796 338.378C379.422 337.77 379.782 336.938 379.798 336.064C379.808 335.191 379.472 334.348 378.863 333.722C378.255 333.096 377.424 332.738 376.552 332.724L359.217 332.445C358.344 332.432 357.503 332.767 356.877 333.374C356.25 333.982 355.889 334.814 355.875 335.688C355.868 336.122 355.947 336.552 356.107 336.955C356.267 337.358 356.504 337.725 356.805 338.036C357.106 338.348 357.466 338.595 357.863 338.767C358.26 338.939 358.688 339.031 359.12 339.037Z" fill="black"/>
<path d="M372.854 335.708C372.877 335.844 372.927 335.976 373.001 336.094C373.075 336.212 373.172 336.315 373.285 336.395C373.399 336.476 373.527 336.534 373.664 336.565C373.799 336.595 373.939 336.6 374.077 336.576C374.214 336.552 374.346 336.502 374.463 336.428C374.581 336.353 374.683 336.256 374.764 336.142C374.844 336.029 374.901 335.901 374.932 335.764C374.963 335.629 374.967 335.488 374.943 335.35C374.929 335.203 374.884 335.061 374.811 334.933C374.738 334.804 374.639 334.692 374.521 334.604C374.403 334.517 374.268 334.454 374.124 334.421C373.979 334.388 373.831 334.386 373.686 334.415C373.542 334.443 373.404 334.501 373.283 334.585C373.163 334.67 373.061 334.779 372.984 334.905C372.908 335.031 372.859 335.172 372.839 335.318C372.82 335.465 372.831 335.614 372.873 335.755L372.854 335.708Z" fill="white"/>
<path d="M360.748 335.514C360.788 335.72 360.888 335.91 361.036 336.059C361.182 336.208 361.371 336.31 361.576 336.352C361.782 336.393 361.995 336.374 362.188 336.293C362.382 336.214 362.548 336.079 362.666 335.905C362.783 335.731 362.846 335.526 362.847 335.316C362.848 335.105 362.786 334.9 362.671 334.725C362.555 334.551 362.39 334.414 362.198 334.333C362.004 334.252 361.792 334.229 361.585 334.269C361.449 334.296 361.319 334.349 361.203 334.426C361.087 334.503 360.987 334.602 360.91 334.718C360.832 334.833 360.777 334.963 360.75 335.099C360.722 335.236 360.721 335.377 360.748 335.514Z" fill="white"/>
<path d="M368.982 319.175C368.982 319.5 368.885 319.82 368.705 320.091C368.523 320.362 368.266 320.574 367.965 320.698C367.664 320.824 367.333 320.857 367.014 320.793C366.694 320.729 366.401 320.572 366.171 320.341C365.94 320.111 365.783 319.816 365.72 319.496C365.656 319.176 365.689 318.844 365.813 318.543C365.938 318.241 366.149 317.984 366.42 317.802C366.691 317.621 367.01 317.524 367.335 317.524C367.772 317.524 368.191 317.698 368.5 318.007C368.808 318.316 368.982 318.737 368.982 319.175Z" fill="#6FE3BC"/>
<path d="M369.819 335.214C369.819 335.214 369.887 335.302 369.926 335.475C369.956 335.722 369.932 335.972 369.858 336.209C369.75 336.575 369.552 336.907 369.281 337.174C368.947 337.508 368.508 337.717 368.038 337.763C367.569 337.802 367.1 337.68 366.709 337.415C366.4 337.206 366.145 336.924 365.968 336.595C365.854 336.372 365.789 336.13 365.775 335.881C365.775 335.708 365.775 335.611 365.833 335.611C365.89 335.611 365.929 335.977 366.247 336.422C366.429 336.678 366.662 336.894 366.931 337.058C367.255 337.244 367.627 337.331 367.999 337.31C368.358 337.263 368.695 337.108 368.963 336.866C369.201 336.659 369.395 336.406 369.531 336.122C369.782 335.601 369.743 335.225 369.819 335.214Z" fill="white"/>
<path d="M381.56 333.14C381.56 333.14 381.56 333.236 381.646 333.401C381.685 333.501 381.718 333.604 381.743 333.709C381.743 333.825 381.81 333.961 381.839 334.115C381.911 334.474 381.963 334.839 381.993 335.205C382.027 335.655 382.027 336.106 381.993 336.556C381.955 337.005 381.88 337.451 381.771 337.888C381.682 338.247 381.566 338.599 381.425 338.94C381.378 339.072 381.322 339.2 381.261 339.327C381.221 339.426 381.173 339.523 381.117 339.616L380.982 339.848C381.008 339.76 381.042 339.676 381.088 339.597C381.088 339.519 381.165 339.423 381.214 339.307C381.261 339.191 381.319 339.066 381.367 338.921C381.498 338.579 381.604 338.227 381.685 337.869C381.789 337.437 381.863 336.998 381.907 336.556C381.936 336.109 381.936 335.661 381.907 335.215C381.883 334.853 381.838 334.491 381.771 334.134C381.751 333.994 381.722 333.855 381.685 333.719C381.685 333.594 381.637 333.497 381.618 333.41C381.585 333.324 381.565 333.232 381.56 333.14Z" fill="black"/>
<path d="M353.313 333.208C353.272 333.291 353.239 333.378 353.216 333.469C353.216 333.546 353.159 333.651 353.12 333.768C353.082 333.883 353.053 334.028 353.023 334.183C352.95 334.542 352.901 334.906 352.88 335.273C352.846 335.723 352.846 336.174 352.88 336.624C352.919 337.073 352.993 337.518 353.101 337.956C353.19 338.315 353.306 338.666 353.448 339.008C353.496 339.153 353.563 339.279 353.611 339.394C353.659 339.51 353.718 339.606 353.755 339.683L353.891 339.916C353.867 339.827 353.831 339.742 353.784 339.664C353.784 339.587 353.707 339.49 353.659 339.375C353.611 339.259 353.553 339.134 353.505 338.98C353.376 338.639 353.269 338.291 353.187 337.937C353.084 337.502 353.01 337.06 352.966 336.614C352.937 336.171 352.937 335.726 352.966 335.282C352.991 334.916 353.035 334.553 353.101 334.192C353.121 334.055 353.15 333.92 353.187 333.786C353.187 333.661 353.236 333.555 353.255 333.478C353.275 333.401 353.313 333.208 353.313 333.208Z" fill="black"/>
<path d="M355.884 351.874C355.884 351.874 359.428 348.409 366.834 348.409C374.241 348.409 378.035 351.874 378.035 351.874C374.693 353.894 370.863 354.963 366.96 354.963C363.056 354.963 359.226 353.894 355.884 351.874Z" fill="#6FE3BC"/>
<path d="M248.78 355.348H322.398C323.267 355.349 324.128 355.179 324.931 354.846C325.734 354.513 326.464 354.025 327.079 353.409C327.694 352.792 328.181 352.061 328.513 351.256C328.845 350.452 329.016 349.588 329.015 348.717V327.31L337.133 320.091H248.78C247.91 320.091 247.05 320.263 246.247 320.596C245.445 320.929 244.715 321.418 244.101 322.033C243.487 322.649 243 323.38 242.667 324.184C242.334 324.989 242.163 325.851 242.163 326.721V348.717C242.162 349.588 242.332 350.452 242.664 351.256C242.997 352.061 243.484 352.792 244.098 353.409C244.713 354.025 245.443 354.513 246.246 354.846C247.049 355.179 247.91 355.349 248.78 355.348Z" fill="#EBEBEB"/>
<path d="M248.78 388.828H322.398C323.267 388.828 324.129 388.657 324.931 388.323C325.735 387.99 326.465 387.5 327.08 386.883C327.694 386.267 328.181 385.535 328.513 384.729C328.845 383.924 329.016 383.06 329.015 382.189V375.094L337.133 367.876H248.78C247.91 367.876 247.05 368.047 246.247 368.38C245.445 368.713 244.715 369.202 244.101 369.818C243.487 370.433 243 371.164 242.667 371.969C242.334 372.773 242.163 373.635 242.163 374.506V382.227C242.171 383.981 242.872 385.66 244.111 386.898C245.351 388.135 247.03 388.828 248.78 388.828Z" fill="#EBEBEB"/>
<path d="M319.085 330.524C319.085 330.669 303.926 330.775 285.223 330.775C266.519 330.775 251.361 330.669 251.361 330.524C251.361 330.38 266.519 330.274 285.223 330.274C303.926 330.274 319.085 330.419 319.085 330.524Z" fill="white"/>
<path d="M319.085 336.315C319.085 336.451 303.926 336.566 285.223 336.566C266.519 336.566 251.361 336.451 251.361 336.315C251.361 336.18 266.519 336.064 285.223 336.064C303.926 336.064 319.085 336.152 319.085 336.315Z" fill="white"/>
<path d="M319.085 342.019C319.085 342.155 303.926 342.27 285.223 342.27C266.519 342.27 251.361 342.155 251.361 342.019C251.361 341.884 266.519 341.768 285.223 341.768C303.926 341.768 319.085 341.874 319.085 342.019Z" fill="white"/>
<path d="M319.085 347.752C319.085 347.888 303.926 348.003 285.223 348.003C266.519 348.003 251.361 347.888 251.361 347.752C251.361 347.617 266.519 347.501 285.223 347.501C303.926 347.501 319.085 347.607 319.085 347.752Z" fill="white"/>
<path d="M319.316 378.656C319.316 378.792 304.311 378.907 285.81 378.907C267.309 378.907 252.295 378.792 252.295 378.656C252.295 378.522 267.3 378.405 285.81 378.405C304.321 378.405 319.316 378.511 319.316 378.656Z" fill="white"/>
<path d="M72.9593 364.681C74.2564 364.994 75.4772 365.567 76.5479 366.364C77.6187 367.162 78.5176 368.168 79.1905 369.323C80.5216 371.648 81.3086 374.245 81.4922 376.918C81.9833 382.053 80.2017 387.719 77.9865 392.361C72.9882 389.562 70.6671 383.337 69.6848 380.104C68.1343 374.998 68.4231 364.816 72.9593 364.661" fill="#455A64"/>
<path d="M84.6319 399.619C84.035 398.251 83.8097 396.75 83.9789 395.266C84.148 393.783 84.7056 392.372 85.5949 391.174C86.5103 389.996 87.6514 389.011 88.9513 388.281C90.2512 387.55 91.6837 387.087 93.1647 386.918C93.8294 386.774 94.5172 386.774 95.1818 386.919C95.8464 387.064 96.4722 387.35 97.0171 387.758C97.46 388.229 97.7687 388.811 97.911 389.442C98.0533 390.074 98.0239 390.732 97.8261 391.348C97.4169 392.576 96.6928 393.674 95.7265 394.533C92.558 397.602 88.9272 399.986 84.5355 399.619" fill="#455A64"/>
<path d="M82.4745 416.152C82.4176 415.802 82.3951 415.445 82.407 415.091C82.407 414.337 82.4071 413.363 82.33 412.195C82.1339 408.995 82.4591 405.784 83.2931 402.689C84.1886 399.584 85.894 396.776 88.2338 394.552C88.9501 393.891 89.7423 393.318 90.5933 392.844C90.8205 392.714 91.0552 392.598 91.2964 392.497C91.376 392.448 91.4643 392.415 91.5564 392.4C90.4346 393.075 89.3829 393.86 88.4167 394.745C86.1561 396.975 84.499 399.746 83.6013 402.794C82.7726 405.856 82.4058 409.025 82.5131 412.195C82.5131 413.421 82.5131 414.405 82.5131 415.091C82.5261 415.445 82.5133 415.8 82.4745 416.152Z" fill="black"/>
<path d="M73.4216 372.46C73.4832 372.599 73.5315 372.745 73.566 372.894C73.6623 373.222 73.7779 373.647 73.9127 374.169C74.2112 375.278 74.6254 376.89 75.1069 378.887C76.07 382.884 77.3605 388.423 78.6318 394.561C79.9031 400.7 80.9239 406.298 81.6077 410.351C81.9448 412.379 82.2048 414.019 82.3782 415.177C82.4552 415.718 82.5131 416.143 82.5612 416.49C82.5765 416.644 82.5765 416.8 82.5612 416.953C82.5113 416.805 82.4728 416.654 82.4456 416.5C82.3782 416.161 82.3011 415.737 82.1952 415.197C81.9737 414.029 81.6751 412.397 81.3091 410.419C80.5579 406.376 79.4986 400.768 78.2273 394.658C76.956 388.549 75.7233 382.98 74.8179 378.975C74.3653 377.045 73.9994 375.394 73.7393 374.226C73.6238 373.695 73.5275 373.261 73.46 372.932C73.4289 372.777 73.416 372.619 73.4216 372.46Z" fill="black"/>
<path d="M77.9865 404.223C76.8283 401.298 74.9931 398.691 72.632 396.618C70.271 394.544 67.4519 393.061 64.407 392.293C62.8565 391.917 60.9303 391.869 59.9865 393.163C59.0427 394.455 59.7072 396.29 60.5836 397.631C62.4573 400.39 65.1018 402.532 68.1857 403.791C71.2695 405.049 74.6555 405.368 77.9192 404.706" fill="#455A64"/>
<path d="M66.1021 396.859C66.4282 396.899 66.7503 396.967 67.0652 397.061C67.4464 397.151 67.8225 397.26 68.192 397.389C68.6158 397.544 69.1551 397.679 69.6462 397.921C70.1374 398.162 70.7634 398.393 71.351 398.722C71.9959 399.049 72.6199 399.417 73.2193 399.822C74.6001 400.74 75.8702 401.815 77.0042 403.026C78.1162 404.254 79.0856 405.604 79.8935 407.051C80.2495 407.677 80.571 408.321 80.8565 408.981C81.1032 409.561 81.3186 410.154 81.5018 410.757C81.6944 411.298 81.7715 411.819 81.8871 412.263C81.9792 412.644 82.05 413.031 82.0989 413.421C82.1579 413.739 82.1901 414.062 82.1952 414.386C82.1086 414.386 81.9544 412.977 81.2321 410.806C81.0414 410.218 80.8196 409.641 80.5676 409.077C80.282 408.417 79.9605 407.772 79.6045 407.147C78.7876 405.733 77.8188 404.413 76.7152 403.21C75.5961 402.025 74.3567 400.961 73.017 400.034C72.3814 399.628 71.7843 399.233 71.1872 398.934C70.6476 398.626 70.0914 398.349 69.521 398.103C67.4697 397.255 66.0732 396.936 66.1021 396.859Z" fill="black"/>
<path d="M96.7089 114.042L93.1455 102.895C98.2138 94.6521 100.022 84.8081 98.2157 75.2974C96.409 65.7867 91.1178 57.2972 83.3821 51.4976C75.6465 45.6982 66.0258 43.0081 56.4115 43.9564C46.7971 44.9048 37.8844 49.4227 31.4254 56.6223C24.9663 63.8218 21.4281 73.1823 21.5064 82.8635C21.5845 92.5446 25.2734 101.846 31.8479 108.94C38.4224 116.035 47.4069 120.407 57.0353 121.199C66.6637 121.991 76.2397 119.146 83.8806 113.221L96.7089 114.042Z" fill="#F1F1F1" fill-opacity="0.945098"/>
<path d="M96.7088 114.042H95.8999L93.4537 113.917L83.8228 113.385C83.8081 113.385 83.7935 113.382 83.78 113.376C83.7664 113.371 83.7543 113.362 83.7443 113.351C83.7343 113.34 83.7267 113.327 83.722 113.313C83.7173 113.299 83.7156 113.285 83.7169 113.269C83.7127 113.251 83.7127 113.231 83.7169 113.212L83.871 113.366C77.1789 118.605 68.9497 121.485 60.4584 121.56C58.3139 121.549 56.1733 121.378 54.054 121.049C44.2068 119.504 35.3376 114.202 29.3027 106.253C25.9416 101.778 23.5742 96.6348 22.3589 91.1679C21.0383 85.3551 21.0911 79.3136 22.513 73.5249C22.6959 72.7914 22.8886 72.0482 23.0812 71.3147C23.2739 70.5812 23.5916 69.8671 23.842 69.1432C24.0861 68.4111 24.369 67.6926 24.6895 66.9909C25.017 66.2959 25.3541 65.6011 25.6527 64.8965C25.984 64.1922 26.3638 63.5118 26.789 62.8601L28.0122 60.8525L29.4183 58.9223L30.1309 57.9571C30.3718 57.6483 30.651 57.3684 30.9111 57.0692C35.0759 52.2703 40.3592 48.577 46.2915 46.3174C51.939 44.1609 58.0033 43.3258 64.0219 43.8757C69.6772 44.4391 75.139 46.245 80.0187 49.1646C88.6904 54.3259 95.0154 62.6688 97.6527 72.4246C98.2098 74.5149 98.609 76.6443 98.8469 78.7946C99.0012 80.8047 99.0366 82.8222 98.9528 84.8365C98.5839 91.2557 96.6172 97.4803 93.2321 102.943V102.856C94.3686 106.485 95.2354 109.283 95.8325 111.195C96.1214 112.159 96.3334 112.825 96.4874 113.318L96.6993 114.032C96.6993 114.032 96.6029 113.772 96.4393 113.289L95.7362 111.157C95.1198 109.226 94.2049 106.504 93.0299 102.923C93.0196 102.896 93.0196 102.865 93.0299 102.836C96.3512 97.3864 98.2675 91.1941 98.6061 84.8172C98.6801 82.8216 98.6351 80.8234 98.4713 78.8333C98.2309 76.7016 97.8284 74.5914 97.2675 72.5211C95.2018 65.011 90.9172 58.3029 84.9767 53.2781C79.0364 48.2533 71.7179 45.1472 63.9833 44.3679C58.0406 43.8228 52.0522 44.6447 46.4745 46.771C40.6324 49.0114 35.4298 52.6573 31.3252 57.3877C31.0748 57.6869 30.7955 57.9571 30.5547 58.266L29.8517 59.2311L28.4649 61.0938L27.2706 63.082C26.8469 63.7314 26.4673 64.4084 26.1342 65.1089C25.8067 65.7941 25.4793 66.489 25.1711 67.1742C24.8569 67.8665 24.5804 68.5754 24.3428 69.2976C24.0924 70.0118 23.7938 70.7164 23.582 71.4402C23.3701 72.164 23.2064 72.8975 23.0235 73.6215C21.627 79.3211 21.5676 85.2676 22.8501 90.9941C24.5189 98.5141 28.4032 105.359 33.9996 110.64C39.596 115.922 46.6464 119.396 54.2369 120.615C56.3369 120.945 58.4581 121.122 60.5836 121.145C62.5678 121.137 64.5482 120.972 66.5067 120.653C72.8168 119.623 78.7733 117.04 83.8421 113.135C83.8521 113.124 83.8639 113.116 83.8772 113.11C83.8905 113.104 83.9048 113.102 83.9191 113.102C83.9336 113.102 83.9478 113.104 83.9612 113.11C83.9744 113.116 83.9863 113.124 83.9962 113.135C84.0103 113.154 84.0179 113.178 84.0179 113.202C84.0179 113.226 84.0103 113.25 83.9962 113.269L83.9191 113.096L93.4344 113.752L95.8999 113.926L96.7088 114.042Z" fill="black"/>
<path d="M49.3637 82.6166C49.3637 83.3935 49.1339 84.153 48.7031 84.799C48.2724 85.4449 47.6603 85.9485 46.944 86.2458C46.2278 86.543 45.4397 86.6208 44.6792 86.4693C43.9189 86.3177 43.2205 85.9436 42.6723 85.3943C42.1241 84.8449 41.7508 84.1449 41.5995 83.383C41.4483 82.621 41.5259 81.8312 41.8226 81.1134C42.1193 80.3956 42.6217 79.7822 43.2663 79.3505C43.9109 78.9189 44.6688 78.6885 45.444 78.6885C46.4828 78.691 47.4783 79.1057 48.2129 79.8419C48.9474 80.5779 49.3612 81.5756 49.3637 82.6166Z" fill="black"/>
<path d="M65.062 82.6166C65.062 83.3935 64.8321 84.153 64.4014 84.799C63.9707 85.4449 63.3585 85.9485 62.6422 86.2458C61.926 86.543 61.1379 86.6208 60.3775 86.4693C59.6172 86.3177 58.9188 85.9436 58.3706 85.3943C57.8224 84.8449 57.4491 84.1449 57.2978 83.383C57.1466 82.621 57.2242 81.8312 57.5208 81.1134C57.8175 80.3956 58.3199 79.7822 58.9645 79.3505C59.6092 78.9189 60.367 78.6885 61.1423 78.6885C62.181 78.691 63.1766 79.1057 63.9112 79.8419C64.6457 80.5779 65.0594 81.5756 65.062 82.6166Z" fill="black"/>
<path d="M80.7217 80.6573C81.1082 81.3302 81.287 82.1027 81.2356 82.8773C81.1843 83.652 80.905 84.3939 80.4332 85.0096C79.9613 85.6254 79.318 86.0871 78.5845 86.3366C77.8509 86.5862 77.06 86.6123 76.3116 86.4116C75.5632 86.211 74.891 85.7927 74.3797 85.2094C73.8684 84.6261 73.5411 83.9042 73.439 83.1347C73.3369 82.3651 73.4646 81.5825 73.806 80.8856C74.1474 80.1887 74.6873 79.6089 75.3573 79.2193C75.8036 78.9598 76.2965 78.7911 76.808 78.723C77.3193 78.6548 77.8391 78.6886 78.3374 78.8221C78.8358 78.9558 79.303 79.1866 79.7121 79.5016C80.1212 79.8166 80.4643 80.2093 80.7217 80.6573Z" fill="black"/>
<path d="M82.2818 256.208L41.7168 252L24.5354 212.921L11.1871 216.405C11.1871 216.405 21.049 257.704 32.086 264.102C43.123 270.502 80.8276 271.65 80.8276 271.65L82.2818 256.208Z" fill="#6FE3BC"/>
<path d="M103.847 276.084C110.447 268.642 109.777 257.246 102.351 250.632C94.9248 244.017 83.5537 244.688 76.9531 252.131C70.3526 259.573 71.0222 270.969 78.4488 277.583C85.8753 284.198 97.2465 283.527 103.847 276.084Z" fill="black"/>
<path d="M90.4007 282.151C86.2318 282.151 82.1919 280.702 78.9694 278.052C75.7469 275.402 73.5409 271.714 72.7277 267.616C71.9144 263.519 72.544 259.266 74.5092 255.581C76.4744 251.897 79.6535 249.009 83.505 247.41C87.3567 245.811 91.6421 245.601 95.6315 246.813C99.6209 248.026 103.067 250.587 105.384 254.061C107.699 257.535 108.742 261.706 108.334 265.864C107.925 270.021 106.09 273.908 103.142 276.862C101.473 278.544 99.4871 279.878 97.3 280.786C95.1129 281.693 92.7679 282.157 90.4007 282.151ZM90.4007 246.094C86.243 246.089 82.2125 247.529 78.9958 250.169C75.7792 252.809 73.5755 256.485 72.7601 260.571C71.9447 264.656 72.568 268.899 74.5241 272.576C76.4801 276.253 79.6477 279.135 83.4872 280.734C87.3266 282.333 91.6004 282.548 95.5804 281.342C99.5603 280.137 103.001 277.587 105.314 274.125C107.627 270.663 108.672 266.504 108.269 262.358C107.866 258.21 106.04 254.332 103.104 251.383C101.44 249.703 99.4613 248.371 97.2808 247.462C95.1003 246.555 92.7619 246.09 90.4007 246.094Z" fill="black"/>
<path d="M38.0806 267.19C45.3265 265.446 49.7902 258.146 48.0506 250.885C46.3111 243.624 39.0268 239.15 31.7809 240.894C24.5349 242.637 20.0711 249.937 21.8107 257.199C23.5503 264.46 30.8346 268.933 38.0806 267.19Z" fill="black"/>
<path d="M24.6846 216.081C28.9911 211.765 28.9911 204.768 24.6846 200.453C20.3782 196.137 13.3962 196.137 9.0897 200.453C4.78327 204.768 4.78327 211.765 9.0897 216.081C13.3962 220.397 20.3782 220.397 24.6846 216.081Z" fill="black"/>
<path d="M34.0748 202.286L24.9948 209.971L21.7202 206.084L30.8002 198.4C31.2782 197.995 31.8972 197.798 32.5208 197.85C33.1444 197.903 33.7215 198.201 34.1253 198.681L34.3489 198.946C34.5504 199.184 34.7031 199.458 34.7984 199.754C34.8936 200.051 34.9295 200.362 34.9041 200.673C34.8785 200.983 34.7922 201.285 34.6499 201.563C34.5075 201.839 34.3121 202.085 34.0748 202.286Z" fill="black"/>
<path d="M22.5418 188.213V199.795C22.5418 199.885 22.5063 199.971 22.4432 200.034C22.3799 200.097 22.2942 200.133 22.2048 200.133H17.8132C17.7238 200.133 17.638 200.097 17.5748 200.034C17.5116 199.971 17.476 199.885 17.476 199.795V188.213C17.476 187.586 17.7247 186.985 18.1671 186.541C18.6096 186.098 19.2098 185.849 19.8356 185.849H20.1823C20.8081 185.849 21.4082 186.098 21.8508 186.541C22.2933 186.985 22.5418 187.586 22.5418 188.213Z" fill="black"/>
<path d="M14.3642 188.257L16.8874 199.56C16.9068 199.647 16.8909 199.739 16.8431 199.815C16.7952 199.89 16.7192 199.943 16.6319 199.963L12.3463 200.923C12.259 200.943 12.1675 200.928 12.0921 200.879C12.0166 200.831 11.9632 200.755 11.9437 200.668L9.42065 189.365C9.28403 188.754 9.3956 188.112 9.73083 187.582C10.066 187.053 10.5974 186.679 11.2082 186.541L11.5465 186.466C12.1572 186.328 12.7971 186.441 13.3256 186.777C13.854 187.113 14.2277 187.645 14.3642 188.257Z" fill="black"/>
<path d="M5.56692 191.089L11.3455 201.12C11.3902 201.197 11.4023 201.289 11.3791 201.376C11.3559 201.463 11.2994 201.536 11.222 201.581L7.41875 203.781C7.34133 203.826 7.24932 203.839 7.16297 203.815C7.07661 203.793 7.00299 203.736 6.95828 203.658L1.17978 193.628C0.866891 193.085 0.782102 192.44 0.94407 191.833C1.10604 191.228 1.5015 190.711 2.04346 190.398L2.34372 190.224C2.88566 189.911 3.52972 189.825 4.13418 189.988C4.73866 190.15 5.25402 190.547 5.56692 191.089Z" fill="black"/>
<path d="M258.583 357.442L270.725 352.267L235.689 269.713L223.547 274.888L258.583 357.442Z" fill="#6FE3BC"/>
<path d="M237.43 277.602C243.852 270.005 242.913 258.628 235.332 252.192C227.75 245.756 216.398 246.697 209.976 254.295C203.554 261.892 204.493 273.269 212.074 279.704C219.654 286.14 231.007 285.199 237.43 277.602Z" fill="black"/>
<path d="M223.74 284.043C220.917 284.044 218.134 283.381 215.613 282.108C213.093 280.835 210.907 278.986 209.229 276.711C207.553 274.436 206.432 271.798 205.958 269.01C205.483 266.221 205.67 263.361 206.501 260.657C207.485 257.469 209.333 254.617 211.839 252.418C214.344 250.219 217.409 248.758 220.692 248.2C223.976 247.642 227.35 248.008 230.439 249.256C233.528 250.504 236.211 252.586 238.19 255.27C240.169 257.955 241.366 261.137 241.649 264.463C241.932 267.788 241.288 271.127 239.791 274.109C238.294 277.09 236.001 279.597 233.167 281.351C230.334 283.105 227.07 284.037 223.74 284.043ZM223.74 247.966C220.414 247.969 217.156 248.897 214.325 250.646C211.495 252.394 209.205 254.896 207.708 257.871C206.212 260.847 205.57 264.181 205.851 267.501C206.132 270.821 207.328 273.997 209.304 276.677C211.28 279.357 213.958 281.435 217.043 282.68C220.126 283.926 223.495 284.289 226.773 283.73C230.05 283.171 233.109 281.711 235.609 279.514C238.109 277.316 239.95 274.468 240.931 271.283C242.329 266.721 241.865 261.788 239.638 257.569C237.412 253.349 233.606 250.187 229.055 248.777C227.315 248.236 225.503 247.963 223.682 247.966H223.74Z" fill="black"/>
<path d="M260.128 319.853C262.124 312.658 257.92 305.204 250.741 303.205C243.561 301.205 236.123 305.417 234.128 312.612C232.133 319.808 236.336 327.262 243.516 329.261C250.695 331.26 258.133 327.048 260.128 319.853Z" fill="black"/>
<path d="M267.473 369.372C273.563 369.372 278.5 364.424 278.5 358.321C278.5 352.217 273.563 347.269 267.473 347.269C261.383 347.269 256.446 352.217 256.446 358.321C256.446 364.424 261.383 369.372 267.473 369.372Z" fill="black"/>
<path d="M253.051 369.45L259.225 359.296L263.559 361.943L257.384 372.097C257.059 372.632 256.534 373.016 255.926 373.164C255.318 373.312 254.676 373.212 254.142 372.885L253.845 372.704C253.58 372.543 253.348 372.331 253.164 372.081C252.98 371.83 252.847 371.545 252.773 371.242C252.699 370.94 252.686 370.626 252.733 370.318C252.781 370.011 252.889 369.715 253.051 369.45Z" fill="black"/>
<path d="M268.425 379.134L264.765 368.148C264.737 368.063 264.743 367.97 264.783 367.89C264.823 367.81 264.893 367.749 264.978 367.72L269.143 366.327C269.229 366.298 269.321 366.305 269.401 366.346C269.481 366.386 269.542 366.455 269.57 366.541L273.23 377.526C273.324 377.822 273.36 378.133 273.334 378.442C273.309 378.753 273.222 379.054 273.081 379.33C272.938 379.606 272.744 379.851 272.508 380.052C272.271 380.253 271.997 380.405 271.702 380.5L271.374 380.61C270.787 380.798 270.15 380.748 269.599 380.473C269.048 380.198 268.627 379.717 268.425 379.134Z" fill="black"/>
<path d="M276.176 376.5L270.212 366.581C270.188 366.543 270.174 366.501 270.167 366.456C270.161 366.412 270.163 366.368 270.173 366.325C270.184 366.282 270.203 366.242 270.229 366.206C270.255 366.17 270.289 366.14 270.327 366.117L274.088 363.845C274.126 363.823 274.168 363.807 274.212 363.801C274.255 363.794 274.3 363.796 274.343 363.807C274.386 363.818 274.426 363.837 274.462 363.863C274.498 363.89 274.528 363.922 274.55 363.96L280.515 373.881C280.838 374.418 280.935 375.062 280.784 375.67C280.633 376.279 280.247 376.802 279.711 377.126L279.415 377.306C278.879 377.63 278.237 377.726 277.629 377.575C277.022 377.424 276.499 377.038 276.176 376.5Z" fill="black"/>
<path d="M283.621 371.031L274.971 363.351C274.904 363.291 274.863 363.207 274.858 363.118C274.853 363.028 274.883 362.941 274.942 362.874L277.848 359.587C277.907 359.52 277.991 359.479 278.08 359.474C278.169 359.469 278.257 359.499 278.324 359.558L286.974 367.239C287.443 367.655 287.727 368.239 287.765 368.865C287.803 369.492 287.59 370.108 287.175 370.576L286.945 370.836C286.53 371.303 285.947 371.585 285.323 371.622C284.701 371.658 284.089 371.445 283.621 371.031Z" fill="black"/>
<path d="M85.0556 245.341C85.0556 245.341 86.3558 371.91 157.229 374.38C228.103 376.852 231.078 246.248 231.078 245.341C231.078 245.341 222.709 226.472 158.067 227.205C93.4248 227.939 85.0556 245.341 85.0556 245.341Z" fill="#6FE3BC"/>
<path d="M124.85 223.065H184.754C188.664 223.065 191.832 219.889 191.832 215.971V214.938C191.832 211.021 188.664 207.844 184.754 207.844H124.85C120.941 207.844 117.772 211.021 117.772 214.938V215.971C117.772 219.889 120.941 223.065 124.85 223.065Z" fill="black"/>
<path d="M152.221 110.519H157.393V84.3153H152.221V110.519Z" fill="black"/>
<path d="M233.885 188.529C242.051 186.584 247.097 178.373 245.156 170.19C243.215 162.006 235.022 156.949 226.857 158.895C218.691 160.84 213.645 169.05 215.586 177.233C217.526 185.417 225.719 190.474 233.885 188.529Z" fill="#6FE3BC"/>
<path d="M80.3233 187.54C88.5087 185.679 93.6392 177.521 91.7825 169.319C89.9258 161.115 81.7851 155.974 73.5998 157.834C65.4143 159.695 60.2839 167.853 62.1406 176.057C63.9973 184.259 72.138 189.401 80.3233 187.54Z" fill="#6FE3BC"/>
<path d="M151.797 104.835C151.797 104.835 90.0058 104.091 80.2402 157.763C70.4744 211.435 122.712 212.4 137.746 213.413C144.555 213.876 159.136 213.925 172.003 213.693C200.491 213.201 220.619 207.68 227.467 181.197C228.282 178.091 228.795 174.914 228.998 171.71C230.799 142.639 211.219 103.406 151.797 104.835Z" fill="#6FE3BC"/>
<path d="M196.619 186.525L106.85 187.923C104.61 187.963 102.385 187.56 100.301 186.736C98.2166 185.913 96.3151 184.686 94.7049 183.125C93.0947 181.564 91.8074 179.7 90.9169 177.641C90.0262 175.581 89.5497 173.365 89.5146 171.121C89.4764 168.876 89.8802 166.645 90.7029 164.557C91.5255 162.468 92.751 160.562 94.3092 158.949C95.8674 157.335 97.7277 156.045 99.7837 155.153C101.84 154.26 104.052 153.783 106.291 153.748L196.061 152.349C198.3 152.308 200.527 152.711 202.611 153.533C204.696 154.356 206.598 155.583 208.209 157.145C209.819 158.706 211.106 160.57 211.997 162.63C212.887 164.69 213.363 166.907 213.396 169.152C213.435 171.397 213.032 173.628 212.21 175.717C211.388 177.807 210.162 179.713 208.605 181.326C207.046 182.94 205.185 184.23 203.128 185.122C201.072 186.014 198.859 186.491 196.619 186.525Z" fill="black"/>
<path d="M125.505 169.258C125.296 170.322 124.777 171.3 124.014 172.067C123.251 172.836 122.277 173.36 121.217 173.574C120.157 173.788 119.056 173.682 118.056 173.27C117.056 172.857 116.2 172.157 115.597 171.257C114.994 170.357 114.67 169.297 114.668 168.213C114.665 167.129 114.982 166.068 115.581 165.166C116.18 164.263 117.032 163.558 118.031 163.141C119.03 162.724 120.129 162.612 121.19 162.82C121.896 162.959 122.566 163.235 123.165 163.634C123.764 164.033 124.278 164.545 124.679 165.144C125.08 165.742 125.358 166.413 125.5 167.119C125.643 167.825 125.644 168.551 125.505 169.258Z" fill="white"/>
<path d="M188.192 168.254C187.985 169.319 187.467 170.298 186.705 171.068C185.942 171.837 184.969 172.363 183.909 172.578C182.848 172.794 181.747 172.689 180.747 172.277C179.745 171.865 178.888 171.165 178.284 170.265C177.68 169.365 177.356 168.306 177.353 167.221C177.349 166.137 177.667 165.076 178.266 164.172C178.865 163.269 179.718 162.563 180.717 162.146C181.716 161.729 182.816 161.617 183.877 161.826C185.299 162.106 186.552 162.94 187.361 164.146C188.17 165.351 188.469 166.829 188.192 168.254Z" fill="white"/>
<path d="M179.168 295.606C178.816 300.435 177.043 305.052 174.073 308.872C171.104 312.691 167.07 315.544 162.482 317.066C157.895 318.589 152.96 318.714 148.302 317.427C143.643 316.139 139.471 313.496 136.312 309.832C133.153 306.167 131.148 301.647 130.552 296.841C129.956 292.036 130.796 287.161 132.965 282.834C135.134 278.505 138.535 274.92 142.737 272.529C146.939 270.139 151.754 269.05 156.574 269.402C163.037 269.875 169.048 272.903 173.284 277.816C177.521 282.73 179.637 289.129 179.168 295.606Z" fill="black"/>
<path d="M172.552 295.123C172.294 298.643 171.002 302.007 168.837 304.791C166.671 307.575 163.731 309.653 160.387 310.762C157.043 311.871 153.447 311.962 150.052 311.023C146.657 310.082 143.616 308.156 141.314 305.484C139.013 302.813 137.553 299.518 137.12 296.014C136.686 292.511 137.299 288.959 138.881 285.805C140.464 282.652 142.943 280.039 146.006 278.298C149.07 276.557 152.58 275.765 156.093 276.023C158.426 276.192 160.701 276.821 162.792 277.873C164.882 278.926 166.744 280.381 168.273 282.154C169.8 283.928 170.965 285.986 171.699 288.212C172.434 290.437 172.724 292.786 172.552 295.123Z" fill="white"/>
<path d="M163.971 298.366C163.835 297.391 163.78 296.406 163.807 295.422C163.759 293.578 163.72 290.943 163.72 287.701L163.913 288.058L154.754 282.701H155.264L146.018 287.904C145.768 288.328 146.356 287.334 146.298 287.44V288.811V290.191C146.298 291.099 146.298 292.005 146.25 292.894C146.25 294.669 146.182 296.388 146.154 298.047L145.903 297.603L154.956 303.143H154.552C157.374 301.618 159.704 300.402 161.294 299.572C162.148 299.084 163.04 298.665 163.961 298.317C163.243 298.904 162.469 299.418 161.649 299.852C160.089 300.818 157.797 302.178 154.907 303.848L154.705 303.963L154.503 303.848L145.335 298.491L145.084 298.346V298.038C145.084 296.377 145.104 294.659 145.143 292.883C145.143 291.996 145.143 291.099 145.143 290.181V288.811V287.479C145.084 287.585 145.672 286.601 145.421 287.016L154.696 281.861L154.966 281.717L155.216 281.872L164.259 287.412L164.462 287.537V287.768C164.356 291.108 164.25 293.791 164.154 295.615C164.178 296.536 164.117 297.456 163.971 298.366Z" fill="#6FE3BC"/>
<path d="M160.839 89.8242C164.168 86.4885 164.168 81.0803 160.839 77.7446C157.511 74.4089 152.114 74.4089 148.786 77.7446C145.457 81.0803 145.457 86.4885 148.786 89.8242C152.114 93.1599 157.511 93.1599 160.839 89.8242Z" fill="#6FE3BC"/>
<path d="M141.194 166.729C141.598 166.777 141.396 168.66 142.59 171.236C143.267 172.716 144.251 174.032 145.479 175.097C146.919 176.366 148.709 177.163 150.613 177.384C152.526 177.509 154.433 177.05 156.083 176.072C157.479 175.258 158.687 174.156 159.627 172.838C161.264 170.551 161.409 168.63 161.814 168.66C161.977 168.66 162.141 169.142 162.141 170.049C162.104 171.342 161.775 172.609 161.178 173.756C160.281 175.488 158.954 176.96 157.325 178.031C155.313 179.453 152.86 180.111 150.407 179.885C147.954 179.661 145.661 178.569 143.939 176.806C142.532 175.458 141.497 173.769 140.933 171.902C140.532 170.658 140.427 169.335 140.626 168.041C140.789 167.144 141.04 166.7 141.194 166.729Z" fill="white"/>
<path d="M223.47 191.736C223.374 191.736 224.481 189.999 225.55 186.958C226.879 182.978 227.72 178.848 228.055 174.663C228.44 170.492 228.536 166.3 228.343 162.116C228.276 160.504 228.198 159.22 228.121 158.256C228.057 157.789 228.04 157.316 228.073 156.846C228.197 157.301 228.277 157.766 228.314 158.236C228.449 159.133 228.584 160.436 228.7 162.097C229.001 166.314 228.953 170.55 228.555 174.759C228.215 178.984 227.319 183.145 225.887 187.132C225.434 188.335 224.886 189.501 224.25 190.617C224.023 191.011 223.761 191.386 223.47 191.736Z" fill="black"/>
<path d="M80.3557 155.968C80.3012 156.437 80.2012 156.899 80.0571 157.348C79.9319 157.783 79.7971 158.313 79.6719 158.95C79.5467 159.587 79.3541 160.282 79.2385 161.083C78.9009 162.943 78.6757 164.823 78.5643 166.71C78.4348 169.02 78.467 171.335 78.6606 173.64C78.8759 175.94 79.2491 178.224 79.7778 180.473C80.2201 182.313 80.7732 184.124 81.4343 185.897C81.6944 186.659 81.993 187.325 82.2337 187.923C82.4745 188.522 82.7056 189.024 82.8982 189.43C83.1178 189.846 83.2983 190.283 83.4376 190.733C83.1635 190.349 82.925 189.943 82.7249 189.516C82.4526 189.034 82.2051 188.538 81.9833 188.03C81.7137 187.451 81.3863 186.785 81.1069 186.022C80.3918 184.255 79.7998 182.439 79.3348 180.588C78.7713 178.318 78.3784 176.008 78.1598 173.679C77.9636 171.35 77.9443 169.011 78.1021 166.681C78.2364 164.777 78.5003 162.884 78.8919 161.016C79.0362 160.214 79.2385 159.51 79.4022 158.882C79.566 158.255 79.7201 157.724 79.8646 157.29C79.9922 156.836 80.1565 156.394 80.3557 155.968Z" fill="black"/>
<path d="M84.7281 245.235L85.0941 245.34L86.1727 245.707L90.2755 247.155L93.2418 248.217C94.3301 248.584 95.5339 248.931 96.8149 249.327C99.3863 250.089 102.285 251.083 105.578 251.855L110.712 253.177C112.503 253.631 114.391 253.969 116.337 254.394C120.188 255.281 124.417 255.89 128.856 256.604C138.458 257.923 148.135 258.617 157.826 258.679C167.518 258.622 177.195 257.929 186.795 256.604C191.207 255.89 195.406 255.291 199.316 254.394C201.242 253.978 203.168 253.64 204.94 253.187L210.083 251.865C213.367 251.093 216.267 250.098 218.837 249.336C220.118 248.94 221.322 248.593 222.411 248.226L225.377 247.164L229.48 245.717L230.559 245.35C230.68 245.302 230.806 245.266 230.934 245.244L230.577 245.398L229.518 245.813L225.444 247.348L222.411 248.487C221.332 248.863 220.128 249.221 218.847 249.636C216.276 250.427 213.386 251.44 210.093 252.241L204.95 253.592C203.168 254.056 201.271 254.403 199.326 254.838C195.473 255.745 191.235 256.362 186.806 257.096C177.184 258.449 167.484 259.154 157.768 259.21C148.057 259.147 138.36 258.438 128.741 257.086C124.321 256.363 120.074 255.735 116.221 254.828C114.294 254.394 112.369 254.046 110.597 253.583L105.453 252.232C102.16 251.43 99.2707 250.417 96.6993 249.626C95.4184 249.21 94.2242 248.854 93.1358 248.477L90.1792 247.367L86.1054 245.833L85.0459 245.418C84.9345 245.367 84.828 245.306 84.7281 245.235Z" fill="black"/>
<g opacity="0.3">
<path d="M85.0556 245.34C85.0556 245.34 93.4248 227.968 158.067 227.205C222.709 226.443 231.078 245.34 231.078 245.34C231.078 245.34 165.839 277.567 85.0556 245.34Z" fill="black"/>
</g>
<path d="M143.967 108.85C143.894 108.857 143.82 108.857 143.746 108.85L143.101 108.917C142.523 108.975 141.676 108.994 140.587 109.12C137.517 109.418 134.469 109.924 131.467 110.635C115.936 114.199 102.238 123.321 92.9433 136.289C88.4525 142.52 85.0524 149.472 82.8887 156.846C82.5515 157.889 82.3686 158.719 82.2048 159.269L82.0218 159.906C82.0046 159.979 81.9787 160.051 81.9448 160.118C81.9321 160.045 81.9321 159.97 81.9448 159.896C81.9448 159.722 82.0219 159.51 82.0796 159.249C82.2145 158.689 82.359 157.85 82.6671 156.788C83.471 153.79 84.5012 150.857 85.7489 148.016C89.8655 138.571 96.1325 130.225 104.048 123.645C111.996 117.115 121.36 112.541 131.39 110.287C134.41 109.6 137.478 109.145 140.567 108.927C141.665 108.83 142.494 108.839 143.091 108.811H143.746C143.9 108.83 143.967 108.839 143.967 108.85Z" fill="white"/>
<path d="M83.5147 183.146C83.1287 182.549 82.8303 181.898 82.6286 181.216C81.4862 177.991 80.9538 174.58 81.0587 171.159C81.0313 170.449 81.1159 169.739 81.3091 169.056C81.4633 169.056 81.2514 172.279 81.8678 176.178C82.4841 180.078 83.6591 183.088 83.5147 183.146Z" fill="white"/>
<path d="M67.3059 178.157C67.3059 178.157 67.0845 178.002 66.7859 177.635C66.3603 177.116 65.9952 176.549 65.6976 175.947C64.6691 173.951 64.2757 171.688 64.5701 169.461C64.8646 167.236 65.8329 165.154 67.3445 163.496C67.7873 162.989 68.2883 162.534 68.8373 162.145C69.0259 161.986 69.241 161.861 69.4729 161.778C69.5307 161.855 68.6639 162.444 67.6142 163.708C66.2365 165.361 65.3549 167.373 65.0719 169.509C64.7889 171.644 65.1161 173.816 66.0155 175.773C66.6896 177.307 67.3734 178.098 67.3059 178.157Z" fill="white"/>
<path d="M155.361 77.8295C154.609 77.7466 153.851 77.7305 153.098 77.7812C152.199 77.8602 151.331 78.1444 150.559 78.6118C149.788 79.0794 149.133 79.7177 148.645 80.4782C148.158 81.2385 147.852 82.1005 147.748 82.9982C147.646 83.896 147.749 84.8055 148.051 85.6568C148.311 86.363 148.633 87.0445 149.013 87.6933C149.013 87.6933 148.822 87.5775 148.552 87.2686C148.182 86.8218 147.889 86.3163 147.685 85.7727C147.317 84.8715 147.172 83.8947 147.261 82.9253C147.35 81.9557 147.67 81.022 148.196 80.2031C148.721 79.3841 149.436 78.7039 150.279 78.2202C151.122 77.7365 152.069 77.4635 153.039 77.4241C153.616 77.384 154.195 77.4395 154.754 77.5882C155.187 77.6558 155.361 77.8005 155.361 77.8295Z" fill="white"/>
<path d="M239.303 166.45C239.197 166.565 237.705 165.127 235.451 164.046C233.197 162.965 231.145 162.646 231.165 162.492C232.734 162.453 234.287 162.832 235.662 163.593C237.11 164.199 238.368 165.187 239.303 166.45Z" fill="white"/>
<path d="M107.207 335.418C107.163 335.36 107.124 335.299 107.091 335.234L106.773 334.665C106.484 334.115 106.099 333.381 105.598 332.445C105.348 331.962 105.078 331.421 104.769 330.843L103.865 328.912C103.21 327.513 102.478 325.921 101.755 324.086C101.39 323.189 101.004 322.243 100.6 321.269C100.195 320.294 99.8485 319.232 99.4536 318.16C98.6254 316.028 97.9224 313.682 97.1037 311.251C95.5917 306.328 94.1085 300.875 92.8084 295.085C91.5082 289.293 90.5644 283.705 89.794 278.618C89.0235 273.533 88.5227 268.967 88.2145 265.049C88.0315 263.118 87.9159 261.362 87.8196 259.817C87.7234 258.274 87.6366 256.923 87.6078 255.861C87.5789 254.798 87.55 253.978 87.521 253.361V252.715C87.5107 252.641 87.5107 252.566 87.521 252.493C87.5321 252.566 87.5321 252.641 87.521 252.715L87.5789 253.361C87.5789 253.969 87.6848 254.809 87.7522 255.851C87.8196 256.893 87.9159 258.264 88.0508 259.799C88.1856 261.333 88.3108 263.089 88.5227 265.02C88.8693 268.881 89.4857 273.474 90.2081 278.532C90.9304 283.589 91.9801 289.148 93.2514 294.94C94.5227 300.73 96.0155 306.173 97.489 311.086C98.3076 313.519 98.9914 315.854 99.8003 317.987C100.186 319.068 100.552 320.1 100.918 321.095L102.035 323.932C102.728 325.737 103.441 327.339 104.076 328.758L104.943 330.689C105.223 331.278 105.492 331.817 105.733 332.309L106.812 334.568L107.082 335.157C107.139 335.235 107.182 335.323 107.207 335.418Z" fill="white"/>
<path d="M69.521 256.729C67.1714 256.819 64.8183 256.735 62.4809 256.479C60.1326 256.395 57.7929 256.148 55.4793 255.735C57.829 255.646 60.182 255.73 62.5195 255.986C64.8679 256.068 67.2076 256.316 69.521 256.729Z" fill="white"/>
<path d="M33.2899 236.123C31.9239 234.129 30.6979 232.043 29.6205 229.879C28.3995 227.794 27.3247 225.627 26.4038 223.393C27.7655 225.391 28.9883 227.481 30.0636 229.647C31.2908 231.727 32.369 233.891 33.2899 236.123Z" fill="white"/>
<path d="M141.396 365.849C141.016 365.842 140.639 365.797 140.269 365.713C139.251 365.532 138.244 365.287 137.254 364.98C135.786 364.532 134.35 363.98 132.96 363.329C131.265 362.51 129.635 361.562 128.086 360.492C126.554 359.396 125.111 358.179 123.771 356.854C122.686 355.764 121.682 354.596 120.767 353.36C120.139 352.535 119.57 351.667 119.062 350.763C118.854 350.446 118.683 350.106 118.552 349.75C118.629 349.701 119.438 351.101 121.046 353.147C121.991 354.337 123.011 355.465 124.099 356.526C126.764 359.12 129.823 361.277 133.162 362.914C134.526 363.575 135.927 364.152 137.361 364.643C139.826 365.472 141.415 365.753 141.396 365.849Z" fill="white"/>
<path d="M156.17 321.201C155.947 321.24 155.722 321.263 155.495 321.269C154.855 321.323 154.212 321.343 153.569 321.326C151.174 321.274 148.798 320.886 146.509 320.177C144.928 319.684 143.389 319.065 141.906 318.325C140.206 317.448 138.593 316.411 137.091 315.226C133.61 312.547 130.866 309.024 129.117 304.988C127.368 300.953 126.672 296.539 127.094 292.16C127.251 290.259 127.59 288.378 128.106 286.542C128.567 284.95 129.163 283.401 129.887 281.91C130.932 279.748 132.274 277.743 133.874 275.955C134.303 275.466 134.76 275.002 135.242 274.565C135.401 274.405 135.571 274.257 135.752 274.121C135.752 274.121 135.116 274.806 134.019 276.051C132.478 277.867 131.183 279.879 130.167 282.035C128.652 285.212 127.75 288.648 127.509 292.16C127.118 296.46 127.813 300.792 129.53 304.753C131.246 308.715 133.929 312.181 137.332 314.831C138.79 316.007 140.358 317.041 142.012 317.92C143.463 318.686 144.973 319.332 146.529 319.85C148.784 320.582 151.125 321.014 153.492 321.133C155.236 321.201 156.17 321.143 156.17 321.201Z" fill="white"/>
<path d="M39.5691 245.196C39.5691 245.273 38.8276 244.916 37.643 244.636C36.0579 244.288 34.4147 244.305 32.8369 244.684C31.259 245.063 29.7873 245.796 28.5322 246.826C27.5692 247.628 27.1069 248.265 27.0394 248.217C27.3037 247.578 27.7126 247.009 28.2337 246.556C29.4837 245.407 31.0056 244.597 32.6556 244.201C34.3055 243.806 36.0288 243.839 37.6623 244.299C38.3583 244.447 39.0109 244.754 39.5691 245.196Z" fill="white"/>
<path d="M181.787 149.231C181.787 149.366 169.961 149.482 155.38 149.482C140.799 149.482 128.963 149.366 128.963 149.231C128.963 149.095 140.789 148.98 155.38 148.98C169.971 148.98 181.787 149.077 181.787 149.231Z" fill="white"/>
<path d="M136.716 209.582C136.571 209.622 136.423 209.645 136.272 209.649L134.982 209.765C134.423 209.813 133.739 209.852 132.94 209.871C132.14 209.89 131.235 209.929 130.234 209.871C128.221 209.871 125.832 209.727 123.184 209.446C120.318 209.112 117.472 208.619 114.66 207.97C111.856 207.296 109.09 206.464 106.378 205.48C104.169 204.669 102.002 203.744 99.8871 202.709C98.924 202.285 98.1825 201.841 97.4793 201.465C96.7763 201.088 96.1792 200.751 95.6977 200.5L94.5902 199.824C94.4588 199.751 94.3361 199.664 94.2241 199.564C94.2241 199.564 94.3782 199.564 94.6383 199.738L95.794 200.326C96.2851 200.596 96.8919 200.914 97.6045 201.291C98.3172 201.667 99.1262 202.054 100.041 202.459C101.852 203.309 104.057 204.216 106.542 205.113C111.942 207.053 117.545 208.375 123.242 209.051C125.861 209.36 128.24 209.534 130.234 209.582C131.197 209.64 132.16 209.582 132.94 209.582C133.721 209.582 134.414 209.582 134.973 209.582H136.263C136.412 209.556 136.565 209.556 136.716 209.582Z" fill="white"/>
<path d="M213.598 253.071C213.527 253.118 213.449 253.154 213.367 253.177L212.674 253.438L209.996 254.403C208.831 254.828 207.406 255.32 205.72 255.813C204.035 256.305 202.138 256.941 199.99 257.481L196.638 258.369C195.473 258.669 194.24 258.92 192.979 259.219C190.455 259.828 187.72 260.309 184.85 260.86C172.35 263.042 159.645 263.822 146.972 263.186C144.083 263.003 141.28 262.858 138.699 262.559C137.409 262.423 136.157 262.327 134.962 262.163L131.524 261.69C129.329 261.43 127.364 261.034 125.639 260.725C123.916 260.416 122.423 260.127 121.219 259.846L118.445 259.228L117.723 259.055C117.64 259.041 117.558 259.016 117.482 258.978C117.57 258.97 117.656 258.97 117.743 258.978L118.465 259.103L121.258 259.634C122.471 259.876 123.955 260.155 125.688 260.416C127.422 260.676 129.377 261.052 131.572 261.294L135.001 261.729C136.195 261.883 137.447 261.97 138.738 262.095C141.31 262.375 144.083 262.5 146.991 262.674C152.818 262.915 159.222 262.926 165.945 262.53C172.667 262.133 179.014 261.294 184.763 260.349C187.653 259.817 190.369 259.384 192.892 258.766C194.154 258.476 195.386 258.235 196.552 257.945L199.903 257.086C202.051 256.575 203.948 255.976 205.633 255.494C207.319 255.011 208.764 254.528 209.929 254.172L212.636 253.303L213.348 253.091L213.598 253.071Z" fill="white"/>
</g>
<defs>
<clipPath id="clip0_176_2070">
<rect width="440" height="417" fill="white"/>
</clipPath>
</defs>
</svg>
