<svg width="440" height="417" viewBox="0 0 440 417" fill="none" xmlns="http://www.w3.org/2000/svg">
<g clip-path="url(#clip0_176_2260)">
<path d="M440 280.576H271.203V186.265H440V280.576ZM272.234 279.581H438.97V187.259H272.234V279.581Z" fill="#6FE3BC"/>
<path d="M405.177 236.552H293.811V239.705H405.177V236.552Z" fill="white"/>
<path d="M412.851 248.306H293.811V251.748H412.851V248.306Z" fill="white"/>
<path d="M412.851 260.2H293.811V263.641H412.851V260.2Z" fill="white"/>
<path d="M332.732 219.478H293.811V227.663H332.732V219.478Z" fill="white"/>
<path d="M439.485 186.762H271.749V201.777H439.485V186.762Z" fill="#6FE3BC"/>
<path d="M426.58 199.53C426.363 199.332 428.527 196.815 431.4 193.912C434.273 191.008 436.798 188.81 437.003 188.999C437.209 189.188 435.057 191.714 432.183 194.627C429.309 197.542 426.786 199.729 426.58 199.53Z" fill="white"/>
<path d="M437.024 199.53C436.817 199.729 434.304 197.542 431.421 194.627C428.536 191.714 426.384 189.199 426.601 188.999C426.817 188.801 429.32 190.989 432.203 193.912C435.088 196.836 437.22 199.332 437.024 199.53Z" fill="white"/>
<path d="M232.292 0H64.5566V93.3263H232.292V0Z" fill="white"/>
<path d="M197.995 49.8005H86.6281V52.9528H197.995V49.8005Z" fill="white"/>
<path d="M205.669 61.5546H86.6281V64.9953H205.669V61.5546Z" fill="white"/>
<path d="M205.669 73.4479H86.6281V76.8886H205.669V73.4479Z" fill="white"/>
<path d="M125.549 32.7264H86.6281V40.9105H125.549V32.7264Z" fill="white"/>
<path d="M232.292 0H64.5566V15.0157H232.292V0Z" fill="#6FE3BC"/>
<path d="M218.821 12.6987C218.605 12.5098 220.767 9.98397 223.641 7.08027C226.515 4.17656 229.038 1.97889 229.244 2.17779C229.45 2.37667 227.297 4.89255 224.424 7.79625C221.55 10.6999 219.027 12.8777 218.821 12.6987Z" fill="white"/>
<path d="M229.244 12.6988C229.038 12.8977 226.525 10.71 223.64 7.7963C220.757 4.88265 218.605 2.37672 218.821 2.17784C219.037 1.97895 221.539 4.16666 224.424 7.08032C227.307 9.99397 229.46 12.5098 229.244 12.6988Z" fill="white"/>
<path d="M168.766 173.367H0V79.0464H168.766V173.367ZM1.02994 172.373H167.735V80.0409H1.02994V172.373Z" fill="#6FE3BC"/>
<path d="M133.953 129.344H22.5865V132.497H133.953V129.344Z" fill="white"/>
<path d="M141.627 141.098H22.5865V144.539H141.627V141.098Z" fill="white"/>
<path d="M141.627 152.991H22.5865V156.433H141.627V152.991Z" fill="white"/>
<path d="M61.5079 112.27H22.5865V120.454H61.5079V112.27Z" fill="white"/>
<path d="M168.251 79.5436H0.514954V94.5594H168.251V79.5436Z" fill="#6FE3BC"/>
<path d="M363.537 194.976H165.48V366.175H363.537V194.976Z" fill="white"/>
<path d="M175.44 141.048H20.2897V296.686H175.44V141.048Z" fill="white"/>
<path d="M175.44 141.048H20.2897V158.004H175.44V141.048Z" fill="#6FE3BC"/>
<path d="M33.1022 149.352C33.074 149.967 32.8593 150.56 32.485 151.058C32.1106 151.557 31.5931 151.938 30.9964 152.154C30.3998 152.37 29.7504 152.414 29.1289 152.277C28.5073 152.14 27.941 151.831 27.5002 151.386C27.0592 150.942 26.7634 150.382 26.649 149.777C26.5346 149.17 26.607 148.547 26.857 147.981C27.1071 147.414 27.5237 146.931 28.0553 146.592C28.587 146.252 29.2102 146.071 29.8476 146.07C30.7291 146.091 31.5662 146.448 32.176 147.063C32.7858 147.677 33.1188 148.5 33.1022 149.352Z" fill="white"/>
<path d="M46.3163 149.352C46.2901 149.97 46.0763 150.566 45.7015 151.067C45.3267 151.569 44.8075 151.953 44.2085 152.171C43.6094 152.39 42.9571 152.434 42.3327 152.297C41.7081 152.161 41.1389 151.849 40.6961 151.402C40.2532 150.956 39.9561 150.394 39.8418 149.786C39.7274 149.178 39.8009 148.55 40.0531 147.982C40.3051 147.413 40.7248 146.929 41.2598 146.589C41.7948 146.249 42.4214 146.069 43.0618 146.07C43.9432 146.091 44.7803 146.448 45.3901 147.063C46 147.677 46.3329 148.5 46.3163 149.352Z" fill="white"/>
<path d="M59.5304 149.352C59.5042 149.97 59.2903 150.566 58.9155 151.067C58.5407 151.569 58.0216 151.953 57.4226 152.171C56.8236 152.39 56.1712 152.434 55.5467 152.297C54.9221 152.161 54.3531 151.849 53.9101 151.402C53.4673 150.956 53.1702 150.394 53.0559 149.786C52.9415 149.178 53.0149 148.55 53.2671 147.982C53.5192 147.413 53.9388 146.929 54.4739 146.589C55.0088 146.249 55.6355 146.069 56.2759 146.07C57.1573 146.091 57.9943 146.448 58.6042 147.063C59.214 147.677 59.5471 148.5 59.5304 149.352Z" fill="white"/>
<path d="M417.846 34.0391H219.788V224.629H417.846V34.0391Z" fill="white"/>
<path d="M417.846 34.0391H219.788V56.3638H417.846V34.0391Z" fill="#6FE3BC"/>
<path d="M236.659 44.9775C236.623 45.7891 236.341 46.5726 235.847 47.2305C235.354 47.8885 234.671 48.392 233.884 48.6786C233.096 48.9652 232.239 49.0223 231.419 48.8426C230.598 48.6629 229.85 48.2546 229.268 47.6681C228.686 47.0818 228.294 46.3431 228.143 45.5439C227.992 44.7448 228.087 43.9204 228.417 43.1731C228.747 42.4257 229.298 41.7884 229.999 41.3401C230.701 40.8919 231.523 40.6526 232.364 40.6519C233.527 40.678 234.632 41.1478 235.437 41.9584C236.242 42.7691 236.682 43.8547 236.659 44.9775Z" fill="white"/>
<path d="M252.798 42.0541C253.369 42.6527 253.745 43.4003 253.879 44.2039C254.013 45.0074 253.9 45.8311 253.552 46.5726C253.204 47.314 252.638 47.9404 251.925 48.3736C251.212 48.8067 250.381 49.0276 249.539 49.0086C248.697 48.9896 247.878 48.7316 247.186 48.2668C246.494 47.8019 245.96 47.1509 245.647 46.3945C245.336 45.6382 245.263 44.8102 245.435 44.0136C245.607 43.217 246.019 42.4871 246.619 41.9148C247.458 41.1436 248.58 40.7252 249.739 40.7513C250.897 40.7774 251.998 41.2459 252.798 42.0541Z" fill="white"/>
<path d="M271.45 44.9775C271.414 45.7891 271.131 46.5726 270.638 47.2305C270.145 47.8885 269.462 48.392 268.674 48.6786C267.888 48.9652 267.031 49.0223 266.21 48.8426C265.39 48.6629 264.642 48.2546 264.059 47.6681C263.477 47.0818 263.086 46.3431 262.935 45.5439C262.783 44.7448 262.879 43.9204 263.208 43.1731C263.538 42.4257 264.088 41.7884 264.79 41.3401C265.491 40.8919 266.314 40.6526 267.156 40.6519C268.319 40.678 269.424 41.1478 270.228 41.9584C271.033 42.7691 271.472 43.8547 271.45 44.9775Z" fill="white"/>
<path d="M375.063 416.741C375.063 416.881 303.544 417 215.35 417C127.156 417 55.6064 416.881 55.6064 416.741C55.6064 416.602 127.115 416.483 215.35 416.483C303.585 416.483 375.063 416.613 375.063 416.741Z" fill="black"/>
<path d="M305.376 295.004C289.464 284.275 285.859 264.356 286.487 246.447C286.59 243.464 286.251 240.301 287.724 237.686C289.197 235.071 292.636 233.271 295.407 234.524C297.704 235.568 298.703 238.153 299.99 240.292C301.708 243.139 304.226 245.46 307.251 246.984C309.218 247.978 311.659 248.575 313.606 247.541C316.284 246.118 316.593 242.569 316.572 239.586C316.572 234.037 316.538 228.494 316.469 222.958C316.284 219.986 316.598 217.004 317.396 214.128C318.354 211.304 320.486 208.689 323.401 207.894C326.315 207.097 329.951 208.738 330.611 211.642C330.724 212.872 330.755 214.108 330.703 215.342C330.786 216.584 331.383 217.947 332.587 218.325C333.793 218.703 335.05 217.838 335.976 216.962C339.149 213.979 341.312 210.091 343.32 206.253C345.329 202.415 347.296 198.466 350.179 195.195C353.063 191.923 357.049 189.327 361.508 189.079C365.967 188.831 370.613 191.476 371.725 195.652C372.838 199.829 370.315 204.095 367.605 207.486C363.519 212.519 358.7 216.957 353.299 220.662C352.246 221.218 351.404 222.086 350.9 223.138C350.231 225.127 352.177 227.116 354.206 227.742C356.503 228.478 358.995 228.249 361.415 228.528C363.836 228.806 366.411 229.821 367.327 232.008C368.584 235.051 365.947 238.234 363.362 240.322C358.172 244.498 352.277 247.784 345.936 250.037C343.67 250.832 341.291 251.539 339.458 253.07C337.624 254.601 336.532 257.276 337.635 259.374C338.736 261.473 341.569 262.139 343.948 261.711C346.327 261.284 348.438 260.051 350.704 259.225C354.937 257.684 360.396 257.962 363.064 261.492C363.89 262.709 364.413 264.093 364.592 265.537C364.771 266.982 364.6 268.446 364.094 269.816C363.062 272.542 361.476 275.041 359.428 277.164C352.683 284.946 343.917 290.859 334.029 294.298C324.214 297.581 315.12 298.475 305.366 295.025" fill="#6FE3BC"/>
<path d="M367.194 191.535C367.194 191.535 367.101 191.635 366.895 191.814L365.978 192.599C365.175 193.296 363.991 194.31 362.497 195.652C358.263 199.448 354.331 203.547 350.735 207.913C348.438 210.668 346.059 213.79 343.526 217.181C340.993 220.572 338.376 224.232 335.781 228.12C333.014 232.22 330.479 236.462 328.189 240.828C326.995 243.105 325.944 245.482 324.863 247.908L321.67 255.317C317.462 264.649 313.797 274.201 310.691 283.927C308.19 291.885 306.466 300.051 305.541 308.32C304.943 313.9 304.846 319.52 305.253 325.115C305.417 327.105 305.573 328.625 305.717 329.66C305.779 330.158 305.82 330.555 305.861 330.843V331.251C305.817 331.121 305.786 330.989 305.769 330.853C305.717 330.564 305.655 330.177 305.573 329.68C305.387 328.685 305.191 327.115 305.006 325.125C304.509 319.519 304.544 313.88 305.109 308.28C305.976 299.976 307.663 291.772 310.146 283.778C313.225 274.024 316.88 264.449 321.094 255.099L324.369 247.719C325.45 245.304 326.512 242.907 327.716 240.62C330.022 236.24 332.577 231.988 335.369 227.882C338.005 223.904 340.662 220.304 343.166 216.943C345.668 213.582 348.088 210.439 350.375 207.694C354.007 203.339 357.992 199.269 362.291 195.522C363.815 194.2 365.031 193.206 365.854 192.539L366.813 191.793C366.931 191.695 367.057 191.608 367.194 191.535Z" fill="black"/>
<path d="M327.85 240.6C327.704 240.19 327.605 239.767 327.551 239.337C327.387 238.512 327.201 237.348 326.985 235.836C326.542 232.853 326.088 228.766 325.605 224.242C325.121 219.717 324.575 215.62 324.121 212.667C323.884 211.195 323.678 210.012 323.534 209.186C323.422 208.764 323.363 208.329 323.359 207.894C323.537 208.291 323.665 208.709 323.74 209.136C323.967 209.952 324.224 211.125 324.513 212.607C325.1 215.59 325.677 219.647 326.16 224.182C326.645 228.717 327.057 232.694 327.376 235.787C327.531 237.179 327.664 238.362 327.767 239.307C327.847 239.734 327.875 240.167 327.85 240.6Z" fill="black"/>
<path d="M367.482 233.46C366.981 233.565 366.471 233.625 365.957 233.639C364.928 233.729 363.465 233.848 361.652 234.046C358.028 234.424 353.042 235.121 347.574 236.115C342.104 237.109 337.192 238.234 333.659 239.098C331.898 239.536 330.476 239.933 329.539 240.202C329.038 240.374 328.521 240.493 327.994 240.56C328.47 240.329 328.966 240.14 329.477 239.993C330.445 239.665 331.846 239.208 333.597 238.721C337.11 237.726 342.022 236.542 347.512 235.528C352.161 234.67 356.854 234.039 361.57 233.639C363.393 233.49 364.866 233.43 365.895 233.41C366.425 233.375 366.957 233.393 367.482 233.46Z" fill="black"/>
<path d="M310.65 283.081C310.54 282.937 310.45 282.78 310.382 282.614L309.703 281.231C309.115 280.028 308.322 278.248 307.374 276.071C305.459 271.695 303.018 265.57 300.423 258.768C297.827 251.966 295.438 245.841 293.625 241.415C292.739 239.267 292.008 237.507 291.463 236.195L290.886 234.773C290.806 234.608 290.75 234.435 290.72 234.256C290.83 234.4 290.92 234.557 290.989 234.722L291.668 236.105C292.245 237.309 293.049 239.089 293.996 241.266C295.912 245.642 298.352 251.767 300.948 258.569C303.544 265.37 305.933 271.496 307.746 275.922C308.631 278.07 309.362 279.83 309.899 281.142C310.135 281.709 310.331 282.137 310.485 282.564C310.565 282.729 310.62 282.902 310.65 283.081Z" fill="black"/>
<path d="M363.259 266.703C363.094 266.795 362.918 266.865 362.734 266.912L361.209 267.409L355.575 269.169C350.817 270.662 344.247 272.789 337.037 275.136C329.827 277.483 323.226 279.571 318.437 280.963C316.046 281.669 314.101 282.207 312.751 282.564L311.196 282.952C311.015 283.007 310.828 283.044 310.64 283.062C310.804 282.97 310.981 282.9 311.165 282.853L312.689 282.356L318.323 280.595C323.081 279.103 329.652 276.975 336.861 274.629C344.072 272.282 350.663 270.194 355.452 268.802C357.853 268.096 359.788 267.558 361.148 267.201L362.703 266.812C362.884 266.758 363.07 266.721 363.259 266.703Z" fill="black"/>
<path d="M341.795 25.487L336.491 27.3167L334.215 20.6243C330.033 8.28354 316.706 1.73031 304.46 5.89693C292.214 10.0635 285.695 23.5976 289.876 35.9384L292.152 42.6308L286.828 44.4704C284.797 45.2309 283.149 46.7175 282.223 48.6213C281.299 50.5251 281.17 52.6998 281.863 54.6931L296.622 98.2388C296.929 99.2256 297.437 100.143 298.118 100.936C298.799 101.729 299.638 102.382 300.585 102.857C301.532 103.33 302.568 103.616 303.632 103.695C304.696 103.775 305.766 103.648 306.777 103.32L361.745 84.3368C363.802 83.5777 365.475 82.0779 366.41 80.1528C367.346 78.2278 367.471 76.0275 366.761 74.0146L351.992 30.4691C351.677 29.485 351.16 28.5722 350.473 27.7851C349.786 26.9979 348.94 26.3527 347.989 25.8877C347.037 25.4227 345.999 25.1476 344.934 25.0788C343.87 25.0099 342.803 25.1488 341.795 25.487ZM299.898 32.4479C298.77 29.2391 298.972 25.7336 300.463 22.6657C301.952 19.5978 304.613 17.2056 307.89 15.9903C309.507 15.4559 311.22 15.2416 312.925 15.3602C314.63 15.4788 316.293 15.9278 317.816 16.6805C319.337 17.4331 320.685 18.474 321.782 19.741C322.878 21.0081 323.698 22.4753 324.193 24.055L326.459 30.7474L302.163 39.1404L299.898 32.4479ZM330.796 71.0911L334.565 82.2087C334.634 82.4316 334.612 82.6718 334.503 82.8791C334.393 83.0865 334.206 83.2453 333.978 83.3224L328.695 85.1422C328.485 85.1985 328.259 85.1741 328.067 85.074C327.876 84.9739 327.731 84.8059 327.664 84.6053L323.864 73.5373C321.768 73.4272 319.758 72.7014 318.102 71.4574C316.444 70.2133 315.222 68.5103 314.595 66.5765C313.699 64.0197 313.862 61.2275 315.05 58.7845C316.238 56.3415 318.36 54.437 320.97 53.4699C322.259 53.0449 323.622 52.8746 324.981 52.9694C326.339 53.064 327.663 53.4218 328.876 54.0212C330.087 54.6207 331.162 55.4496 332.035 56.4586C332.909 57.4675 333.562 58.6358 333.957 59.8939C334.62 61.8584 334.675 63.967 334.115 65.961C333.556 67.9552 332.405 69.7484 330.806 71.1209L330.796 71.0911Z" fill="#6FE3BC"/>
<path d="M336.254 27.1974C336.254 27.3365 326.419 30.9065 314.183 35.1528C301.947 39.3989 291.967 42.8097 291.915 42.7103C291.864 42.6109 301.752 39.0111 313.998 34.755C326.243 30.4989 336.203 27.0681 336.254 27.1974Z" fill="black"/>
<path d="M347.934 29.0271C347.98 29.1134 348.018 29.2032 348.047 29.2956C348.13 29.4945 348.222 29.753 348.346 30.0712C348.613 30.7971 348.984 31.8015 349.448 33.0545L353.402 44.1721C355.05 48.8857 357.018 54.4743 359.201 60.6795C360.232 63.792 361.446 67.0338 362.58 70.4447C363.186 72.2023 363.448 74.0537 363.352 75.904C363.265 76.8664 362.981 77.8024 362.518 78.6586C362.023 79.5118 361.362 80.2649 360.571 80.8762C358.98 81.9976 357.213 82.8671 355.339 83.4517L350.035 85.2914L339.993 88.7619L322.989 94.6091L311.504 98.5072L308.415 99.5016L307.591 99.7602C307.503 99.798 307.409 99.8215 307.313 99.8298C307.313 99.8298 307.395 99.8298 307.57 99.7105L308.374 99.4022L311.463 98.2785L322.886 94.2212L339.859 88.2548L349.881 84.7544L355.184 82.9048C357.006 82.3439 358.721 81.5009 360.262 80.4087C360.998 79.8415 361.613 79.1426 362.075 78.3504C362.511 77.5586 362.774 76.6886 362.847 75.7947C362.942 74.0118 362.691 72.2277 362.106 70.5342C360.993 67.1532 359.82 63.8815 358.758 60.7689C356.616 54.5539 354.639 48.9454 353.073 44.2318C351.508 39.5183 350.189 35.7295 349.282 33.0644C348.85 31.7617 348.521 30.7475 348.253 30.0115L348.006 29.2161C347.975 29.1558 347.951 29.0925 347.934 29.0271Z" fill="black"/>
<path d="M318.931 15.314C318.931 15.314 318.385 15.0554 317.375 14.6576C315.937 14.1239 314.415 13.8281 312.875 13.7825C310.592 13.707 308.319 14.1213 306.222 14.9957C303.671 16.0847 301.49 17.8459 299.929 20.0772C298.357 22.3023 297.514 24.9318 297.508 27.6249C297.529 29.8322 297.877 32.0254 298.538 34.1384C299.073 35.9482 299.63 37.3901 300.001 38.3945C300.219 38.9046 300.399 39.4298 300.536 39.9657C300.243 39.4887 299.998 38.9859 299.805 38.464C299.383 37.4696 298.775 36.0576 298.178 34.2378C297.444 32.1027 297.045 29.8738 296.993 27.6249C296.965 24.83 297.829 22.0945 299.465 19.7889C301.08 17.4759 303.351 15.6603 306.005 14.5582C308.168 13.679 310.512 13.2911 312.854 13.4246C314.428 13.502 315.974 13.8558 317.417 14.4688C317.802 14.6405 318.174 14.8399 318.529 15.0654C318.676 15.1276 318.811 15.2114 318.931 15.314Z" fill="black"/>
<path d="M319.404 54.2257C319.569 54.1295 319.741 54.0464 319.919 53.9771C320.435 53.7525 320.969 53.5696 321.516 53.4301C322.384 53.1828 323.279 53.0358 324.183 52.9926C325.414 52.9287 326.643 53.1082 327.798 53.5196C330.435 54.4147 332.856 57.0101 334.05 60.4806C334.623 62.343 334.623 64.3261 334.05 66.1886C333.415 68.21 332.276 70.0503 330.734 71.5484L330.796 71.2799C332.165 74.9096 333.659 78.8475 335.204 82.9545L335.297 83.2031L335.039 83.2926L332.681 84.0483L327.531 85.709L327.273 85.7885L327.191 85.5399C325.78 81.4231 324.234 77.5846 323.071 73.8157L323.298 73.9848C321.285 73.8233 319.364 73.0936 317.777 71.8865C316.341 70.8187 315.163 69.4613 314.327 67.9089C313.572 66.5322 313.196 64.9913 313.235 63.434C313.283 61.8424 313.695 60.2806 314.44 58.8606C315.186 57.4405 316.249 56.1973 317.55 55.2201C318.087 54.8 318.688 54.4644 319.332 54.2257C318.75 54.5589 318.187 54.9208 317.643 55.3096C316.213 56.4779 315.118 57.9809 314.461 59.675C313.897 60.9526 313.634 62.3347 313.689 63.7221C313.744 65.1096 314.117 66.4681 314.78 67.7001C315.602 69.1935 316.752 70.4964 318.148 71.5186C319.662 72.666 321.493 73.3576 323.411 73.5075H323.586L323.637 73.6567C324.771 77.3559 326.325 81.2241 327.757 85.3609L327.417 85.2019L332.567 83.5412L334.916 82.7755L334.751 83.1136C333.216 79.0066 331.733 75.0587 330.373 71.4291V71.2799L330.496 71.1606C331.995 69.7246 333.111 67.961 333.751 66.0194C334.298 64.2379 334.298 62.3417 333.751 60.5601C332.628 57.2189 330.311 54.6831 327.798 53.7881C326.687 53.374 325.498 53.1811 324.306 53.2213C323.418 53.2409 322.532 53.3578 321.67 53.5694C320.135 53.9373 319.415 54.2754 319.404 54.2257Z" fill="black"/>
<path d="M287.569 341.354L184.689 340.897C178.747 340.865 173.062 338.558 168.881 334.483C164.7 330.407 162.365 324.895 162.391 319.159L163.482 70.1464C163.494 67.3044 164.087 64.4926 165.225 61.8717C166.363 59.2507 168.025 56.8721 170.117 54.8718C172.207 52.8713 174.686 51.2885 177.41 50.2136C180.136 49.1387 183.054 48.5928 185.996 48.6072L288.867 49.0647C294.808 49.0937 300.495 51.3982 304.677 55.4721C308.86 59.546 311.197 65.0563 311.175 70.7928L310.084 319.795C310.071 322.639 309.479 325.451 308.341 328.074C307.203 330.695 305.542 333.075 303.451 335.077C301.361 337.079 298.882 338.664 296.157 339.741C293.432 340.818 290.513 341.367 287.569 341.354Z" fill="black"/>
<path d="M288.712 57.6267H268.773C268.122 57.6383 267.48 57.7736 266.883 58.0248C266.287 58.276 265.748 58.6381 265.297 59.0907C264.845 59.5432 264.491 60.0771 264.253 60.6619C264.015 61.2468 263.899 61.8712 263.912 62.4993V65.9897C263.923 66.6175 263.808 67.2413 263.57 67.8256C263.332 68.4099 262.977 68.9431 262.526 69.3949C262.074 69.8465 261.534 70.2078 260.938 70.4579C260.342 70.708 259.701 70.8421 259.05 70.8525L220.181 70.6834C218.865 70.6496 217.618 70.1132 216.713 69.1921C215.807 68.2711 215.316 67.0406 215.35 65.7709V62.2806C215.383 61.0126 214.894 59.7836 213.991 58.8628C213.087 57.942 211.843 57.4045 210.53 57.3681H203.516L186.058 57.2886C181.906 57.2647 177.913 58.8304 174.953 61.6428C171.995 64.4554 170.31 68.2854 170.27 72.2943L169.239 315.351C169.23 317.339 169.626 319.31 170.406 321.152C171.185 322.992 172.333 324.667 173.782 326.08C175.233 327.493 176.956 328.616 178.856 329.386C180.756 330.155 182.794 330.556 184.854 330.566L287.518 331.023C289.579 331.032 291.622 330.649 293.529 329.896C295.438 329.142 297.173 328.034 298.637 326.633C300.102 325.232 301.266 323.567 302.064 321.731C302.861 319.896 303.276 317.927 303.285 315.938L304.316 72.8811C304.34 68.8608 302.711 64.9956 299.784 62.1351C296.859 59.2745 292.876 57.653 288.712 57.6267Z" fill="white"/>
<path d="M274.901 298.595L198.562 298.276C197.769 298.276 197.131 297.441 197.141 296.427L197.223 277.145C197.223 276.15 197.872 275.295 198.664 275.295L275.004 275.633C275.443 275.707 275.837 275.941 276.101 276.288C276.366 276.634 276.482 277.066 276.426 277.493L276.354 296.754C276.354 297.779 275.694 298.604 274.901 298.595Z" fill="#6FE3BC"/>
<path d="M219.57 281.851C219.521 281.851 219.475 281.844 219.43 281.831C219.386 281.816 219.352 281.798 219.328 281.775L219.355 281.728C219.378 281.747 219.409 281.765 219.446 281.778C219.487 281.791 219.527 281.799 219.57 281.799C219.611 281.799 219.644 281.794 219.669 281.785C219.695 281.776 219.714 281.763 219.726 281.747C219.738 281.732 219.745 281.714 219.745 281.696C219.745 281.673 219.737 281.655 219.722 281.64C219.708 281.627 219.689 281.616 219.665 281.608C219.642 281.599 219.616 281.592 219.587 281.586C219.559 281.58 219.53 281.574 219.501 281.567C219.473 281.56 219.446 281.55 219.422 281.539C219.4 281.527 219.38 281.512 219.365 281.492C219.35 281.473 219.344 281.448 219.344 281.416C219.344 281.388 219.352 281.361 219.369 281.337C219.386 281.313 219.412 281.293 219.448 281.279C219.483 281.263 219.529 281.256 219.584 281.256C219.62 281.256 219.657 281.261 219.692 281.27C219.729 281.28 219.76 281.292 219.785 281.307L219.762 281.357C219.735 281.34 219.705 281.328 219.673 281.321C219.642 281.313 219.612 281.309 219.583 281.309C219.544 281.309 219.512 281.314 219.486 281.323C219.46 281.332 219.442 281.346 219.429 281.362C219.418 281.377 219.411 281.395 219.411 281.415C219.411 281.438 219.419 281.456 219.433 281.47C219.448 281.484 219.467 281.494 219.491 281.503C219.515 281.511 219.541 281.517 219.57 281.523C219.599 281.529 219.626 281.537 219.655 281.544C219.683 281.551 219.708 281.56 219.732 281.572C219.756 281.583 219.776 281.598 219.79 281.617C219.804 281.636 219.812 281.661 219.812 281.692C219.812 281.72 219.803 281.746 219.786 281.771C219.769 281.795 219.743 281.814 219.706 281.83C219.671 281.844 219.626 281.851 219.57 281.851ZM219.962 281.846V281.261H220.031V281.846H219.962ZM220.243 281.846V281.261H220.3L220.749 281.769H220.719V281.261H220.787V281.846H220.731L220.283 281.338H220.312V281.846H220.243ZM221.286 281.851C221.235 281.851 221.19 281.844 221.147 281.83C221.106 281.814 221.069 281.794 221.039 281.767C221.008 281.74 220.985 281.708 220.967 281.672C220.95 281.636 220.941 281.596 220.941 281.554C220.941 281.511 220.95 281.471 220.967 281.435C220.985 281.399 221.009 281.367 221.04 281.34C221.071 281.314 221.107 281.293 221.148 281.279C221.191 281.263 221.236 281.256 221.286 281.256C221.336 281.256 221.381 281.263 221.422 281.277C221.463 281.291 221.498 281.313 221.528 281.34L221.485 281.379C221.457 281.356 221.427 281.337 221.394 281.327C221.362 281.317 221.327 281.312 221.289 281.312C221.249 281.312 221.211 281.318 221.177 281.33C221.144 281.341 221.114 281.359 221.089 281.38C221.064 281.402 221.044 281.428 221.031 281.458C221.017 281.486 221.01 281.518 221.01 281.554C221.01 281.588 221.017 281.62 221.031 281.65C221.044 281.679 221.064 281.705 221.089 281.728C221.114 281.749 221.144 281.766 221.177 281.778C221.211 281.79 221.248 281.796 221.288 281.796C221.325 281.796 221.36 281.79 221.393 281.781C221.426 281.771 221.457 281.753 221.485 281.73L221.524 281.777C221.493 281.802 221.457 281.82 221.415 281.833C221.374 281.845 221.33 281.851 221.286 281.851ZM221.458 281.769V281.554H221.524V281.777L221.458 281.769ZM222.225 281.851C222.141 281.851 222.076 281.829 222.028 281.786C221.981 281.744 221.957 281.681 221.957 281.596V281.261H222.026V281.594C222.026 281.663 222.043 281.713 222.077 281.746C222.113 281.779 222.162 281.796 222.225 281.796C222.289 281.796 222.338 281.779 222.372 281.746C222.408 281.713 222.425 281.663 222.425 281.594V281.261H222.491V281.596C222.491 281.681 222.467 281.744 222.42 281.786C222.372 281.829 222.308 281.851 222.225 281.851ZM222.699 281.846V281.261H222.943C222.998 281.261 223.045 281.269 223.085 281.286C223.125 281.301 223.154 281.324 223.176 281.354C223.198 281.384 223.208 281.419 223.208 281.462C223.208 281.503 223.198 281.539 223.176 281.568C223.154 281.598 223.125 281.621 223.085 281.637C223.045 281.654 222.998 281.661 222.943 281.661H222.737L222.768 281.632V281.846H222.699ZM222.768 281.637L222.737 281.608H222.941C223.006 281.608 223.055 281.594 223.088 281.57C223.122 281.544 223.14 281.508 223.14 281.462C223.14 281.415 223.122 281.378 223.088 281.353C223.055 281.327 223.006 281.315 222.941 281.315H222.737L222.768 281.286V281.637Z" fill="white"/>
<path d="M213.788 129.076L187.299 128.96L187.276 133.654L213.767 133.77L213.788 129.076Z" fill="#6FE3BC"/>
<path opacity="0.1" d="M213.788 129.076L187.299 128.96L187.276 133.654L213.767 133.77L213.788 129.076Z" fill="black"/>
<path d="M291.442 157.894C291.65 157.873 291.854 157.827 292.049 157.755C292.334 157.647 292.582 157.464 292.764 157.227C292.947 156.989 293.056 156.707 293.079 156.412C293.079 154.832 293.079 152.525 293.079 149.561C293.079 148.079 293.079 146.419 293.079 144.588C293.079 144.141 293.079 143.674 293.079 143.206C293.146 142.753 293.044 142.291 292.79 141.903C292.649 141.718 292.464 141.566 292.252 141.461C292.039 141.356 291.804 141.3 291.565 141.297H289.958H275.076L188.932 140.989C188.712 140.986 188.493 141.033 188.296 141.128C188.099 141.223 187.928 141.364 187.799 141.535C187.551 141.925 187.455 142.387 187.531 142.838C187.531 143.833 187.531 144.827 187.531 145.822C187.531 147.811 187.531 149.799 187.531 151.788C187.531 152.782 187.531 153.777 187.531 154.772C187.489 155.234 187.489 155.701 187.531 156.163C187.585 156.363 187.686 156.547 187.825 156.702C187.965 156.857 188.139 156.979 188.334 157.058C188.538 157.136 188.755 157.173 188.973 157.168H194.215L217.09 157.287L255.816 157.516L281.925 157.715L289.022 157.794H290.864C291.288 157.794 291.493 157.794 291.493 157.794H290.864H289.022H281.925H255.816L217.09 157.675L194.215 157.585H188.973C188.684 157.597 188.397 157.55 188.128 157.447C187.857 157.335 187.616 157.164 187.424 156.949C187.23 156.734 187.091 156.479 187.017 156.203C186.957 155.942 186.935 155.674 186.955 155.408V154.672C186.955 153.678 186.955 152.683 186.955 151.689C186.955 149.7 186.955 147.711 186.955 145.722C186.955 144.728 186.955 143.733 186.955 142.739C186.934 142.475 186.934 142.208 186.955 141.943C186.993 141.651 187.11 141.373 187.294 141.138C187.472 140.898 187.707 140.703 187.98 140.569C188.252 140.436 188.554 140.369 188.86 140.372L275.004 140.829L289.886 140.929H291.493C291.776 140.929 292.055 140.996 292.305 141.122C292.557 141.249 292.773 141.432 292.934 141.655C293.225 142.087 293.343 142.607 293.265 143.117C293.265 143.584 293.265 144.052 293.265 144.499C293.265 146.309 293.265 147.969 293.265 149.472C293.265 152.455 293.193 154.742 293.172 156.333C293.147 156.639 293.032 156.931 292.84 157.177C292.649 157.421 292.388 157.608 292.09 157.715C291.896 157.832 291.671 157.894 291.442 157.894Z" fill="#6FE3BC"/>
<path d="M243.704 145.981H195.256V150.367H243.704V145.981Z" fill="#6FE3BC"/>
<path opacity="0.2" d="M243.704 145.981H195.256V150.367H243.704V145.981Z" fill="white"/>
<path d="M213.608 171.895L187.118 171.779L187.097 176.472L213.586 176.588L213.608 171.895Z" fill="#6FE3BC"/>
<path opacity="0.1" d="M213.608 171.895L187.118 171.779L187.097 176.472L213.586 176.588L213.608 171.895Z" fill="black"/>
<path d="M290.772 200.714C290.98 200.689 291.187 200.652 291.39 200.604C291.678 200.516 291.943 200.369 292.166 200.173C292.39 199.978 292.569 199.739 292.687 199.47C292.85 199.07 292.914 198.637 292.873 198.208C292.873 197.731 292.873 197.214 292.873 196.636C292.873 195.483 292.873 194.17 292.873 192.658V186.344C292.922 185.888 292.818 185.427 292.574 185.032C292.32 184.627 291.921 184.326 291.452 184.187C290.939 184.099 290.417 184.072 289.897 184.107H275.076L189.231 183.799C188.769 183.8 188.323 183.963 187.976 184.257C187.63 184.552 187.405 184.958 187.346 185.399C187.346 186.344 187.346 187.389 187.346 188.383C187.346 190.372 187.346 192.36 187.346 194.35C187.346 195.344 187.346 196.338 187.346 197.333C187.307 197.797 187.328 198.265 187.408 198.724C187.536 199.128 187.801 199.479 188.159 199.719C188.54 199.952 188.987 200.063 189.437 200.038H190.869H193.845L216.637 200.147L255.229 200.376L281.245 200.574L288.321 200.654H281.245H255.229L216.617 200.614L193.824 200.535H189.344C188.787 200.567 188.234 200.424 187.768 200.127C187.299 199.814 186.957 199.353 186.8 198.824C186.708 198.32 186.68 197.805 186.718 197.293C186.718 196.298 186.718 195.305 186.718 194.31C186.718 192.32 186.718 190.332 186.718 188.344C186.718 187.349 186.718 186.354 186.718 185.359C186.792 184.791 187.079 184.268 187.526 183.89C187.97 183.511 188.545 183.301 189.138 183.301L274.983 183.758L289.804 183.868C290.357 183.836 290.91 183.872 291.452 183.977C291.987 184.147 292.438 184.5 292.718 184.972C292.985 185.41 293.1 185.918 293.049 186.424C293.049 186.892 293.049 187.349 293.049 187.806C293.049 189.606 293.049 191.257 293.049 192.779C293.049 194.3 293.049 195.583 293.049 196.756C293.049 197.323 293.049 197.85 293.049 198.337C293.085 198.782 293.011 199.229 292.832 199.64C292.699 199.914 292.504 200.158 292.265 200.353C292.025 200.548 291.744 200.692 291.442 200.773C291.217 200.791 290.99 200.771 290.772 200.714Z" fill="#6FE3BC"/>
<path d="M213.409 216.572L186.918 216.457L186.896 221.15L213.386 221.266L213.409 216.572Z" fill="#6FE3BC"/>
<path opacity="0.1" d="M213.409 216.572L186.918 216.457L186.896 221.15L213.386 221.266L213.409 216.572Z" fill="black"/>
<path d="M290.566 245.373C290.774 245.35 290.981 245.313 291.185 245.263C291.471 245.176 291.735 245.03 291.958 244.837C292.182 244.643 292.36 244.405 292.482 244.14C292.643 243.738 292.707 243.306 292.667 242.877C292.667 242.39 292.667 241.883 292.667 241.296C292.667 240.152 292.667 238.83 292.667 237.318V231.003C292.716 230.546 292.612 230.086 292.368 229.691C292.109 229.293 291.711 228.997 291.246 228.856C290.733 228.764 290.211 228.733 289.691 228.766H274.87L189.025 228.458C188.563 228.459 188.117 228.622 187.77 228.916C187.424 229.211 187.2 229.617 187.14 230.059C187.14 231.054 187.14 232.047 187.14 233.042C187.14 235.032 187.14 237.02 187.14 239.008C187.14 240.003 187.14 240.998 187.14 241.993C187.101 242.454 187.122 242.917 187.202 243.375C187.325 243.78 187.591 244.132 187.953 244.368C188.332 244.607 188.78 244.719 189.231 244.687H193.711L216.504 244.806L255.095 245.035L281.112 245.234L288.187 245.314H281.112H255.095L216.504 245.204L193.711 245.114H189.231C188.673 245.15 188.119 245.008 187.655 244.706C187.186 244.393 186.844 243.933 186.686 243.404C186.595 242.899 186.567 242.384 186.604 241.872C186.604 240.879 186.604 239.884 186.604 238.889C186.604 236.901 186.604 234.911 186.604 232.923C186.604 231.928 186.604 230.935 186.604 229.889C186.677 229.322 186.962 228.799 187.405 228.421C187.849 228.042 188.422 227.832 189.015 227.831L274.86 228.288L289.681 228.398C290.232 228.366 290.787 228.403 291.329 228.507C291.864 228.677 292.315 229.03 292.595 229.502C292.861 229.94 292.977 230.448 292.924 230.954C292.924 231.422 292.924 231.889 292.924 232.336C292.924 234.137 292.924 235.787 292.924 237.309C292.924 238.83 292.924 240.113 292.924 241.286C292.924 241.853 292.924 242.38 292.924 242.867C292.964 243.312 292.89 243.759 292.708 244.17C292.574 244.444 292.381 244.688 292.142 244.883C291.902 245.078 291.62 245.222 291.318 245.303C291.077 245.384 290.819 245.407 290.566 245.373Z" fill="#6FE3BC"/>
<path d="M242.67 190.04L194.222 189.828L194.202 194.213L242.65 194.426L242.67 190.04Z" fill="#6FE3BC"/>
<path opacity="0.2" d="M242.67 190.04L194.222 189.828L194.202 194.213L242.65 194.426L242.67 190.04Z" fill="white"/>
<path d="M198.603 237.258C198.573 237.658 198.421 238.041 198.168 238.359C197.914 238.676 197.57 238.916 197.176 239.045C196.784 239.176 196.36 239.192 195.958 239.093C195.556 238.992 195.192 238.78 194.914 238.483C194.635 238.186 194.453 237.816 194.39 237.42C194.327 237.023 194.386 236.617 194.56 236.253C194.732 235.889 195.014 235.581 195.366 235.37C195.718 235.158 196.128 235.05 196.543 235.061C197.117 235.092 197.655 235.34 198.041 235.751C198.427 236.163 198.628 236.704 198.603 237.258Z" fill="#6FE3BC"/>
<path d="M205.163 237.288C205.184 237.569 205.144 237.85 205.047 238.115C204.949 238.381 204.797 238.623 204.598 238.829C204.4 239.034 204.16 239.198 203.893 239.31C203.626 239.422 203.338 239.48 203.047 239.48C202.756 239.48 202.469 239.422 202.201 239.31C201.934 239.198 201.694 239.034 201.495 238.829C201.297 238.623 201.144 238.381 201.047 238.115C200.95 237.85 200.911 237.569 200.93 237.288C200.911 237.009 200.95 236.727 201.047 236.462C201.144 236.197 201.297 235.954 201.495 235.749C201.694 235.543 201.934 235.379 202.201 235.267C202.469 235.155 202.756 235.097 203.047 235.097C203.338 235.097 203.626 235.155 203.893 235.267C204.16 235.379 204.4 235.543 204.598 235.749C204.797 235.954 204.949 236.197 205.047 236.462C205.144 236.727 205.184 237.009 205.163 237.288Z" fill="#6FE3BC"/>
<path d="M211.735 237.318C211.704 237.719 211.553 238.101 211.299 238.419C211.046 238.736 210.701 238.976 210.309 239.106C209.916 239.236 209.492 239.252 209.09 239.152C208.687 239.053 208.325 238.84 208.045 238.543C207.766 238.246 207.585 237.876 207.522 237.479C207.459 237.083 207.517 236.677 207.691 236.313C207.865 235.948 208.145 235.641 208.497 235.429C208.851 235.218 209.259 235.11 209.675 235.121C210.247 235.154 210.784 235.403 211.169 235.814C211.555 236.225 211.757 236.764 211.735 237.318Z" fill="#6FE3BC"/>
<path d="M218.296 237.348C218.265 237.749 218.114 238.131 217.86 238.448C217.606 238.766 217.262 239.005 216.87 239.136C216.476 239.266 216.053 239.282 215.65 239.182C215.248 239.082 214.885 238.871 214.606 238.573C214.328 238.276 214.145 237.906 214.082 237.509C214.019 237.113 214.078 236.708 214.251 236.343C214.425 235.978 214.706 235.671 215.058 235.459C215.411 235.247 215.821 235.14 216.236 235.151C216.809 235.184 217.345 235.432 217.73 235.843C218.115 236.254 218.317 236.795 218.296 237.348Z" fill="#6FE3BC"/>
<path d="M224.856 237.368C224.828 237.769 224.678 238.152 224.425 238.471C224.174 238.791 223.829 239.031 223.437 239.163C223.044 239.295 222.619 239.313 222.217 239.213C221.813 239.114 221.449 238.904 221.17 238.606C220.89 238.309 220.707 237.939 220.643 237.542C220.579 237.145 220.637 236.739 220.811 236.375C220.984 236.009 221.265 235.702 221.617 235.489C221.971 235.277 222.38 235.169 222.796 235.181C223.367 235.213 223.903 235.461 224.287 235.87C224.672 236.278 224.876 236.817 224.856 237.368Z" fill="#6FE3BC"/>
<path d="M231.427 237.398C231.399 237.797 231.251 238.178 231.001 238.497C230.751 238.815 230.41 239.056 230.02 239.189C229.63 239.323 229.208 239.343 228.807 239.249C228.404 239.153 228.041 238.948 227.758 238.655C227.477 238.363 227.289 237.997 227.219 237.604C227.15 237.21 227.2 236.805 227.366 236.439C227.532 236.073 227.804 235.761 228.15 235.543C228.497 235.325 228.902 235.209 229.316 235.21C229.896 235.231 230.444 235.472 230.839 235.883C231.235 236.293 231.447 236.838 231.427 237.398Z" fill="#6FE3BC"/>
<path d="M237.988 237.428C238.008 237.708 237.968 237.989 237.871 238.254C237.774 238.519 237.622 238.762 237.423 238.967C237.225 239.173 236.985 239.337 236.717 239.449C236.451 239.561 236.162 239.619 235.872 239.619C235.58 239.619 235.292 239.561 235.025 239.449C234.759 239.337 234.519 239.173 234.32 238.967C234.121 238.762 233.969 238.519 233.871 238.254C233.774 237.989 233.734 237.708 233.755 237.428C233.734 237.147 233.774 236.866 233.871 236.601C233.969 236.336 234.121 236.093 234.32 235.888C234.519 235.682 234.759 235.519 235.025 235.407C235.292 235.295 235.58 235.236 235.872 235.236C236.162 235.236 236.451 235.295 236.717 235.407C236.985 235.519 237.225 235.682 237.423 235.888C237.622 236.093 237.774 236.336 237.871 236.601C237.968 236.866 238.008 237.147 237.988 237.428Z" fill="#6FE3BC"/>
<path d="M244.548 237.458C244.521 237.856 244.372 238.238 244.123 238.556C243.872 238.875 243.532 239.115 243.142 239.249C242.752 239.382 242.329 239.403 241.928 239.308C241.527 239.213 241.162 239.007 240.879 238.715C240.598 238.423 240.41 238.057 240.34 237.663C240.271 237.27 240.322 236.865 240.487 236.499C240.653 236.132 240.926 235.821 241.273 235.603C241.618 235.384 242.024 235.269 242.437 235.27C243.017 235.291 243.566 235.532 243.962 235.942C244.357 236.352 244.568 236.898 244.548 237.458Z" fill="#6FE3BC"/>
<path d="M251.109 237.488C251.081 237.888 250.932 238.272 250.679 238.591C250.426 238.91 250.083 239.15 249.689 239.282C249.297 239.414 248.873 239.432 248.469 239.333C248.066 239.234 247.703 239.023 247.422 238.726C247.143 238.428 246.959 238.058 246.896 237.661C246.832 237.265 246.891 236.859 247.064 236.494C247.237 236.129 247.517 235.821 247.871 235.608C248.224 235.396 248.634 235.289 249.049 235.3C249.621 235.333 250.155 235.58 250.54 235.989C250.925 236.397 251.129 236.936 251.109 237.488Z" fill="#6FE3BC"/>
<g opacity="0.2">
<path d="M198.603 237.258C198.573 237.658 198.421 238.041 198.168 238.359C197.914 238.676 197.57 238.916 197.176 239.045C196.784 239.176 196.36 239.192 195.958 239.093C195.556 238.992 195.192 238.78 194.914 238.483C194.635 238.186 194.453 237.816 194.39 237.42C194.327 237.023 194.386 236.617 194.56 236.253C194.732 235.889 195.014 235.581 195.366 235.37C195.718 235.158 196.128 235.05 196.543 235.061C197.117 235.092 197.655 235.34 198.041 235.751C198.427 236.163 198.628 236.704 198.603 237.258Z" fill="white"/>
<path d="M205.163 237.288C205.184 237.569 205.144 237.85 205.047 238.115C204.949 238.379 204.797 238.623 204.598 238.828C204.4 239.034 204.16 239.197 203.893 239.309C203.626 239.421 203.338 239.48 203.047 239.48C202.756 239.48 202.469 239.421 202.201 239.309C201.934 239.197 201.694 239.034 201.495 238.828C201.297 238.623 201.144 238.379 201.047 238.115C200.95 237.85 200.911 237.569 200.93 237.288C200.911 237.008 200.95 236.727 201.047 236.462C201.144 236.197 201.297 235.954 201.495 235.749C201.694 235.543 201.934 235.379 202.201 235.267C202.469 235.155 202.756 235.097 203.047 235.097C203.338 235.097 203.626 235.155 203.893 235.267C204.16 235.379 204.4 235.543 204.598 235.749C204.797 235.954 204.949 236.197 205.047 236.462C205.144 236.727 205.184 237.008 205.163 237.288Z" fill="white"/>
<path d="M211.735 237.318C211.704 237.719 211.553 238.101 211.299 238.418C211.046 238.736 210.701 238.975 210.309 239.106C209.916 239.236 209.492 239.252 209.09 239.152C208.687 239.053 208.325 238.841 208.045 238.543C207.766 238.246 207.585 237.876 207.522 237.479C207.459 237.083 207.517 236.678 207.691 236.313C207.865 235.948 208.145 235.641 208.497 235.429C208.851 235.218 209.259 235.11 209.675 235.121C210.247 235.154 210.784 235.402 211.169 235.814C211.555 236.225 211.757 236.765 211.735 237.318Z" fill="white"/>
<path d="M218.296 237.348C218.265 237.748 218.114 238.131 217.86 238.448C217.606 238.766 217.262 239.005 216.87 239.136C216.476 239.266 216.053 239.282 215.65 239.182C215.248 239.082 214.885 238.871 214.606 238.573C214.328 238.276 214.145 237.906 214.082 237.509C214.019 237.112 214.078 236.708 214.251 236.343C214.425 235.978 214.706 235.671 215.058 235.459C215.411 235.247 215.821 235.139 216.236 235.151C216.809 235.184 217.345 235.432 217.73 235.843C218.115 236.254 218.317 236.795 218.296 237.348Z" fill="white"/>
<path d="M224.856 237.368C224.828 237.769 224.678 238.152 224.425 238.471C224.174 238.79 223.829 239.031 223.437 239.162C223.044 239.295 222.619 239.312 222.217 239.213C221.813 239.114 221.449 238.903 221.17 238.605C220.89 238.309 220.707 237.939 220.643 237.542C220.579 237.145 220.637 236.739 220.811 236.375C220.984 236.01 221.265 235.701 221.617 235.489C221.971 235.277 222.38 235.169 222.796 235.18C223.367 235.213 223.903 235.461 224.287 235.87C224.672 236.278 224.876 236.816 224.856 237.368Z" fill="white"/>
<path d="M231.427 237.398C231.399 237.797 231.251 238.178 231.001 238.497C230.751 238.815 230.41 239.056 230.02 239.189C229.63 239.323 229.208 239.343 228.807 239.249C228.404 239.153 228.041 238.948 227.758 238.655C227.477 238.363 227.289 237.997 227.219 237.604C227.15 237.21 227.2 236.805 227.366 236.439C227.532 236.072 227.804 235.761 228.15 235.543C228.497 235.324 228.902 235.209 229.316 235.21C229.896 235.231 230.444 235.472 230.839 235.882C231.235 236.292 231.447 236.838 231.427 237.398Z" fill="white"/>
<path d="M237.988 237.428C238.008 237.708 237.968 237.989 237.871 238.254C237.774 238.519 237.622 238.762 237.423 238.967C237.225 239.173 236.985 239.337 236.717 239.449C236.45 239.561 236.162 239.619 235.872 239.619C235.58 239.619 235.292 239.561 235.025 239.449C234.759 239.337 234.519 239.173 234.32 238.967C234.121 238.762 233.969 238.519 233.871 238.254C233.774 237.989 233.734 237.708 233.755 237.428C233.734 237.147 233.774 236.866 233.871 236.601C233.969 236.337 234.121 236.093 234.32 235.888C234.519 235.682 234.759 235.519 235.025 235.407C235.292 235.295 235.58 235.237 235.872 235.237C236.162 235.237 236.45 235.295 236.717 235.407C236.985 235.519 237.225 235.682 237.423 235.888C237.622 236.093 237.774 236.337 237.871 236.601C237.968 236.866 238.008 237.147 237.988 237.428Z" fill="white"/>
<path d="M244.548 237.458C244.521 237.856 244.372 238.238 244.123 238.556C243.872 238.875 243.531 239.115 243.141 239.249C242.751 239.382 242.329 239.403 241.928 239.308C241.526 239.213 241.162 239.007 240.879 238.714C240.598 238.423 240.41 238.057 240.34 237.663C240.271 237.27 240.322 236.865 240.487 236.499C240.653 236.132 240.926 235.821 241.273 235.603C241.618 235.384 242.024 235.269 242.437 235.27C243.017 235.29 243.566 235.532 243.961 235.942C244.357 236.352 244.568 236.898 244.548 237.458Z" fill="white"/>
<path d="M251.109 237.488C251.081 237.888 250.932 238.272 250.679 238.591C250.426 238.91 250.083 239.15 249.689 239.282C249.297 239.414 248.873 239.432 248.469 239.333C248.066 239.233 247.703 239.023 247.422 238.726C247.143 238.428 246.959 238.058 246.896 237.661C246.832 237.265 246.891 236.859 247.064 236.494C247.237 236.129 247.517 235.821 247.871 235.609C248.224 235.396 248.634 235.288 249.049 235.3C249.621 235.333 250.155 235.58 250.54 235.989C250.925 236.397 251.129 236.936 251.109 237.488Z" fill="white"/>
</g>
<path d="M241.788 93.9329C242.503 93.6287 243.111 93.1281 243.534 92.4933C243.957 91.8586 244.178 91.1177 244.167 90.3629C244.194 89.8723 244.117 89.3815 243.941 88.9206C243.765 88.4597 243.494 88.0382 243.143 87.6817C242.793 87.3253 242.371 87.0415 241.904 86.8476C241.436 86.6536 240.933 86.5536 240.424 86.5536C239.915 86.5536 239.412 86.6536 238.944 86.8476C238.476 87.0415 238.054 87.3253 237.704 87.6817C237.354 88.0382 237.082 88.4597 236.907 88.9206C236.731 89.3815 236.653 89.8723 236.679 90.3629C236.664 91.1253 236.883 91.8749 237.308 92.5175C237.734 93.1599 238.346 93.6663 239.07 93.9727C233.302 94.808 233.559 100.854 233.559 100.854L247.196 100.914C247.196 100.914 247.515 94.7583 241.788 93.9329Z" fill="#6FE3BC"/>
<path opacity="0.1" d="M241.788 93.9329C242.503 93.6287 243.111 93.1281 243.534 92.4933C243.957 91.8586 244.178 91.1177 244.167 90.3629C244.194 89.8723 244.117 89.3815 243.941 88.9206C243.765 88.4597 243.494 88.0382 243.143 87.6817C242.793 87.3253 242.371 87.0415 241.904 86.8476C241.436 86.6536 240.933 86.5536 240.424 86.5536C239.915 86.5536 239.412 86.6536 238.944 86.8476C238.476 87.0415 238.054 87.3253 237.704 87.6817C237.354 88.0382 237.082 88.4597 236.907 88.9206C236.731 89.3815 236.653 89.8723 236.679 90.3629C236.664 91.1253 236.883 91.8749 237.308 92.5175C237.734 93.1599 238.346 93.6663 239.07 93.9727C233.302 94.808 233.559 100.854 233.559 100.854L247.196 100.914C247.196 100.914 247.515 94.7583 241.788 93.9329Z" fill="black"/>
<path d="M263.947 104.813L215.345 104.6L215.319 110.209L263.921 110.422L263.947 104.813Z" fill="#6FE3BC"/>
<path opacity="0.2" d="M263.947 104.813L215.345 104.6L215.319 110.209L263.921 110.422L263.947 104.813Z" fill="white"/>
<path d="M85.2686 133.879H84.7846L83.3838 133.978C82.6258 134.022 81.872 134.118 81.1283 134.266C80.6465 134.332 80.1687 134.421 79.6966 134.535L78.1003 134.963C75.3831 135.767 72.8195 136.993 70.5096 138.592C67.4577 140.731 64.9094 143.469 63.0322 146.627C61.929 148.447 61.0509 150.386 60.4162 152.404C59.7493 154.598 59.3654 156.863 59.2729 159.146C59.2116 160.347 59.2322 161.549 59.3348 162.747C59.3348 163.353 59.5098 163.96 59.5923 164.576C59.6616 165.198 59.7821 165.813 59.9527 166.416C60.8789 170.407 62.7581 174.133 65.4404 177.297C68.1227 180.462 71.5338 182.977 75.4019 184.644C78.2013 185.811 81.2018 186.461 84.249 186.563C87.3962 186.73 90.5466 186.295 93.5184 185.28L94.4248 184.952H94.5483L94.6514 185.012L107.639 191.376L107.258 191.695C105.867 187.538 104.528 183.51 103.231 179.642V179.493L103.344 179.383C106.495 176.32 108.834 172.567 110.162 168.445C111.366 164.676 111.717 160.701 111.192 156.79C110.725 153.314 109.568 149.958 107.783 146.906C106.245 144.283 104.26 141.93 101.912 139.945C99.9756 138.372 97.8319 137.055 95.5371 136.026C93.8008 135.304 91.9924 134.754 90.1402 134.385L88.0803 134.058L86.5869 133.949L85.6806 133.889H85.3716C85.4743 133.878 85.5779 133.878 85.6806 133.889H86.5972L88.0906 133.949L90.1505 134.236C92.0258 134.578 93.8587 135.108 95.6195 135.818C97.9537 136.834 100.136 138.148 102.108 139.726C104.499 141.703 106.526 144.056 108.102 146.687C109.938 149.772 111.131 153.174 111.614 156.701C112.183 160.672 111.856 164.716 110.657 168.554C109.319 172.762 106.944 176.594 103.735 179.721L103.797 179.463C105.095 183.331 106.444 187.358 107.845 191.506L108.041 192.112L107.453 191.823L94.466 185.469H94.6925L93.7656 185.797C90.7365 186.827 87.5279 187.273 84.321 187.11C81.2083 186.995 78.1449 186.321 75.2885 185.121C69.8398 182.869 65.3066 178.952 62.3834 173.974C61.0382 171.675 60.0558 169.194 59.4686 166.615C59.3078 165.996 59.1875 165.369 59.1081 164.736C59.0258 164.109 58.8918 163.492 58.861 162.876C58.5822 159.338 58.9696 155.78 60.0043 152.375C60.6547 150.329 61.5572 148.366 62.6924 146.527C64.6144 143.341 67.2157 140.586 70.3242 138.443C72.6721 136.84 75.2788 135.624 78.0384 134.844L79.6555 134.446C80.1314 134.339 80.6127 134.256 81.0974 134.197C81.8488 134.063 82.6096 133.983 83.3736 133.958L84.7846 133.909C84.9449 133.888 85.1068 133.878 85.2686 133.879Z" fill="#6FE3BC"/>
<path d="M91.1392 157.069H89.2338L85.1141 151.479V147.811C85.1141 147.811 82.1685 147.631 82.5187 152.434C82.8688 157.237 82.5187 156.014 82.5187 156.014C82.5187 156.014 76.2669 156.014 75.7519 156.561C75.237 157.109 75.2061 162.935 75.1339 166.187C75.0945 166.972 75.3275 167.745 75.7958 168.387C76.2642 169.028 76.9412 169.5 77.7192 169.728C77.9372 169.786 78.1624 169.816 78.3886 169.817C79.954 169.817 87.9156 168.594 87.9156 168.594H91.201L91.1392 157.069Z" fill="#6FE3BC"/>
<path d="M96.5876 156.084L95.4135 168.654H92.1589V156.343L96.5876 156.084Z" fill="#6FE3BC"/>
<path d="M135.406 411.978V403.476L119.617 403.367L119.483 416.224L120.462 416.294C124.818 416.562 142.625 416.96 145.551 416.085C148.805 415.11 135.406 411.978 135.406 411.978Z" fill="#6FE3BC"/>
<path d="M145.922 415.29C145.922 415.429 140.01 415.548 132.729 415.548C125.446 415.548 119.534 415.429 119.534 415.29C119.534 415.15 125.446 415.031 132.729 415.031C140.01 415.031 145.922 415.15 145.922 415.29Z" fill="black"/>
<path d="M135.684 413.719C135.55 413.649 135.684 413.201 136.003 412.724C136.322 412.246 136.756 412.048 136.859 412.148C136.962 412.246 136.745 412.624 136.435 413.032C136.127 413.44 135.818 413.788 135.684 413.719Z" fill="black"/>
<path d="M136.694 414.275C136.549 414.275 136.622 413.719 136.931 413.192C137.239 412.665 137.651 412.346 137.764 412.426C137.878 412.505 137.692 412.952 137.404 413.42C137.116 413.887 136.828 414.325 136.694 414.275Z" fill="black"/>
<path d="M124.293 415.25C124.232 415.25 123.994 415.071 123.654 414.693C123.24 414.207 122.777 413.761 122.275 413.36C121.779 412.979 121.19 412.728 120.565 412.635C120.081 412.575 119.771 412.635 119.74 412.575C119.709 412.515 120.009 412.306 120.575 412.267C121.322 412.251 122.052 412.491 122.635 412.943C123.181 413.373 123.641 413.895 123.994 414.484C124.232 414.921 124.355 415.21 124.293 415.25Z" fill="black"/>
<path d="M135.736 412.118C135.808 412.237 135.54 412.535 135.087 412.694C134.634 412.854 134.231 412.794 134.211 412.694C134.19 412.595 134.509 412.386 134.902 412.246C135.293 412.108 135.653 411.998 135.736 412.118Z" fill="black"/>
<path d="M135.488 411.292C135.488 411.442 135.077 411.561 134.541 411.57C134.005 411.58 133.583 411.461 133.593 411.321C133.603 411.183 134.026 411.053 134.541 411.043C135.056 411.034 135.468 411.153 135.488 411.292Z" fill="black"/>
<path d="M174.287 411.978V403.476L158.497 403.367L158.363 416.095L159.341 416.165C163.698 416.433 181.516 416.96 184.431 416.085C187.686 415.11 174.287 411.978 174.287 411.978Z" fill="#6FE3BC"/>
<path d="M184.802 415.31C184.802 415.448 178.901 415.569 171.608 415.569C164.317 415.569 158.425 415.448 158.425 415.31C158.425 415.17 164.327 415.051 171.608 415.051C178.89 415.051 184.802 415.17 184.802 415.31Z" fill="black"/>
<path d="M174.565 413.719C174.441 413.649 174.565 413.201 174.884 412.724C175.203 412.246 175.635 412.048 175.738 412.148C175.841 412.246 175.625 412.624 175.316 413.032C175.007 413.44 174.698 413.788 174.565 413.719Z" fill="black"/>
<path d="M175.573 414.275C175.44 414.275 175.501 413.719 175.82 413.192C176.139 412.665 176.542 412.346 176.655 412.426C176.769 412.505 176.573 412.952 176.285 413.42C175.995 413.887 175.717 414.325 175.573 414.275Z" fill="black"/>
<path d="M163.173 415.25C163.111 415.25 162.885 415.071 162.535 414.693C162.119 414.207 161.657 413.761 161.154 413.36C160.66 412.979 160.07 412.728 159.444 412.635C158.971 412.575 158.652 412.635 158.621 412.575C158.59 412.515 158.888 412.306 159.455 412.267C160.203 412.251 160.932 412.491 161.514 412.943C162.065 413.369 162.525 413.892 162.874 414.484C163.111 414.921 163.235 415.21 163.173 415.25Z" fill="black"/>
<path d="M174.616 412.118C174.688 412.237 174.42 412.535 173.966 412.694C173.513 412.854 173.112 412.794 173.091 412.694C173.071 412.595 173.39 412.386 173.781 412.246C174.173 412.108 174.534 411.998 174.616 412.118Z" fill="black"/>
<path d="M174.39 411.292C174.39 411.442 173.977 411.561 173.441 411.57C172.906 411.58 172.494 411.461 172.505 411.321C172.515 411.183 172.927 411.053 173.441 411.043C173.956 411.034 174.39 411.153 174.39 411.292Z" fill="black"/>
<path d="M232.457 159.495C232.045 159.087 231.026 159.286 231.026 159.286C231.128 158.714 231.128 158.128 231.026 157.556C230.84 156.999 229.542 157.109 229.542 157.109C229.483 156.639 229.483 156.165 229.542 155.697C229.553 155.592 229.53 155.488 229.476 155.397C229.422 155.306 229.341 155.233 229.244 155.189C228.63 154.948 227.97 154.833 227.307 154.851C226.515 154.304 229.728 149.959 230.923 148.566C232.117 147.174 231.901 146.091 230.84 146.091C230.108 146.091 226.36 150.267 225.206 151.669C224.052 153.071 220.994 156.969 220.891 153.856C220.788 150.744 219.49 148.398 218.677 148C217.862 147.601 216.998 148.537 217.44 149.402C217.829 150.384 218.073 151.416 218.162 152.465C218.273 153.299 218.235 154.147 218.049 154.97C217.707 156.501 217.242 158.004 216.658 159.465H216.576C216.576 159.465 194.102 180.278 192.475 181.76C191.023 183.093 161.814 180.179 155.954 179.582C153.962 179.301 151.95 179.168 149.939 179.185C147.395 179.294 146.941 179.642 144.407 179.672C138.009 179.741 131.625 180.282 125.312 181.292C122.454 181.762 119.784 182.981 117.593 184.815C115.403 186.649 113.777 189.029 112.891 191.695C106.99 209.495 93.6214 251.628 91.2628 275.295C89.4806 278.416 87.8715 281.626 86.4427 284.911C84.7844 289.267 85.1861 289.416 85.7423 289.515C87.246 289.784 88.9557 281.968 89.5943 283.857C90.2328 285.747 86.35 293.175 87.9258 293.394C89.9856 293.673 91.6233 285.439 91.819 284.782C92.0147 284.125 93.0343 284.335 92.8489 284.951C92.5503 285.826 89.6561 295.104 91.6747 295.402C92.7871 295.561 92.9107 293.603 92.9107 293.603C92.9107 293.603 94.9706 284.722 95.9079 284.901C96.845 285.08 95.846 290.321 95.3722 292.072C94.8985 293.822 95.5576 294.706 96.5258 294.279C97.185 293.981 98.7607 288.66 99.1933 286.93C99.626 285.2 100.707 280.406 102.16 283.181C103.612 285.955 105.816 287.567 106.722 287.606C106.926 287.583 107.119 287.502 107.275 287.373C107.431 287.244 107.543 287.072 107.598 286.881C107.652 286.689 107.646 286.487 107.579 286.299C107.513 286.111 107.391 285.946 107.227 285.826C106.447 285.091 105.778 284.255 105.239 283.34C104.759 282.628 104.41 281.841 104.209 281.014C103.794 279.363 103.553 277.678 103.488 275.981L103.323 274.987C105.63 263.959 112.274 231.59 121.862 210.917L125.796 218.733L127.506 224.52L117.021 249.51L161.742 248.943L155.067 224.142L163.173 198.288C171.937 198.477 194.442 198.794 198.191 197.153C202.908 195.165 227.307 165.412 227.307 165.412C228.898 164.219 230.421 162.944 231.87 161.593C231.87 161.593 233.353 160.39 232.457 159.495Z" fill="#FFBE9D"/>
<path d="M115.054 231.043C116.352 226.768 123.016 205.626 123.016 205.626C123.016 205.626 126.292 222.86 125.426 224.938C124.63 226.717 123.69 228.432 122.614 230.069C115.054 241.177 116.044 246.735 116.044 246.735L161.721 245.393C161.824 239.227 158.044 224.888 157.261 222.601C156.478 220.313 159.084 212.826 159.084 212.826C159.084 212.826 164.234 207.764 164.049 205.158C163.951 202.818 163.651 200.49 163.152 198.197L190.961 199.192L190.085 180.994L150.144 177.136C148.754 180.924 136.178 179.065 136.178 179.065C122.604 179.503 121.759 181.909 116.116 186.146C110.471 190.381 101.13 226.738 101.13 226.738L115.054 231.043Z" fill="#6FE3BC"/>
<path d="M142.059 226.738C141.268 226.875 140.461 226.915 139.66 226.857C138.166 226.857 136.116 226.757 133.861 226.538C131.605 226.32 129.566 226.011 128.114 225.733C127.313 225.633 126.528 225.44 125.776 225.156C126.581 225.156 127.385 225.23 128.175 225.375C129.638 225.554 131.667 225.803 133.912 226.022C136.158 226.24 138.197 226.389 139.67 226.489C140.473 226.498 141.272 226.582 142.059 226.738Z" fill="black"/>
<path d="M145.191 222.989C144.398 223.363 143.561 223.641 142.697 223.814C138.589 224.856 134.349 225.342 130.101 225.256C129.223 225.284 128.343 225.204 127.486 225.018C128.354 224.912 129.228 224.869 130.101 224.888C131.719 224.839 133.943 224.729 136.394 224.45C138.846 224.172 141.03 223.774 142.574 223.456C143.433 223.235 144.307 223.079 145.191 222.989Z" fill="black"/>
<path d="M160.557 206.263C160.536 207.02 160.429 207.775 160.238 208.51C159.97 209.892 159.557 211.781 159.032 213.85C158.507 215.918 158.003 217.828 157.55 219.12C157.367 219.86 157.098 220.577 156.746 221.259C156.803 220.502 156.949 219.755 157.178 219.031C157.571 217.479 158.013 215.69 158.507 213.73C159.002 211.772 159.475 209.982 159.867 208.43C160.007 207.684 160.238 206.956 160.557 206.263Z" fill="black"/>
<path d="M115.538 228.507C113.156 228.153 110.804 227.624 108.504 226.927C106.154 226.396 103.847 225.698 101.603 224.839C103.985 225.2 106.336 225.728 108.638 226.419C110.989 226.949 113.295 227.646 115.538 228.507Z" fill="black"/>
<path d="M163.646 197.979C163.259 198.043 162.862 198.043 162.473 197.979C161.397 197.873 160.341 197.628 159.331 197.253C157.646 196.641 156.112 195.697 154.828 194.479C153.545 193.262 152.538 191.798 151.875 190.183C151.142 188.405 150.828 186.493 150.958 184.585C151.004 183.009 151.492 181.477 152.369 180.15C152.987 179.254 153.908 178.597 154.974 178.29C155.26 178.214 155.554 178.177 155.851 178.18C156.056 178.18 156.159 178.18 156.159 178.18C156.159 178.18 155.727 178.18 155.036 178.449C154.058 178.797 153.228 179.452 152.678 180.308C151.278 182.436 150.886 186.324 152.379 189.954C153.075 191.666 154.162 193.202 155.562 194.449C156.708 195.469 158.029 196.29 159.465 196.875C160.813 197.39 162.215 197.76 163.646 197.979Z" fill="black"/>
<path d="M187.655 198.834C187.397 195.785 187.315 192.724 187.408 189.665C187.327 186.61 187.423 183.552 187.696 180.507C187.953 183.553 188.037 186.611 187.943 189.665C188.03 192.724 187.934 195.786 187.655 198.834Z" fill="black"/>
<path d="M149.877 178.25C149.99 176.032 150.227 173.527 150.227 173.527C150.227 173.527 155.912 172.919 156.252 167.251C156.592 161.583 156.252 148.507 156.252 148.507L145.953 143.415L134.52 152.096L136.281 180.437L146.766 181.084C147.568 181.105 148.345 180.819 148.929 180.287C149.511 179.756 149.853 179.023 149.877 178.25Z" fill="#FFBE9D"/>
<path d="M150.896 162.767C150.896 162.767 150.896 162.876 150.803 163.005C150.727 163.099 150.628 163.174 150.515 163.222C150.402 163.27 150.278 163.292 150.155 163.284C149.496 163.284 148.857 162.548 148.63 161.693C148.523 161.278 148.523 160.844 148.63 160.43C148.652 160.249 148.719 160.075 148.827 159.926C148.935 159.777 149.08 159.656 149.249 159.575C149.387 159.519 149.543 159.519 149.681 159.575C149.784 159.624 149.866 159.704 149.918 159.803C149.99 159.973 149.918 160.082 149.918 160.071C149.918 160.062 149.918 159.973 149.815 159.873C149.761 159.802 149.682 159.752 149.592 159.734C149.503 159.716 149.41 159.729 149.331 159.773C149.204 159.847 149.099 159.951 149.026 160.074C148.951 160.198 148.911 160.337 148.908 160.479C148.822 160.849 148.822 161.233 148.908 161.603C149.114 162.379 149.671 163.005 150.165 163.065C150.262 163.078 150.361 163.071 150.454 163.045C150.548 163.019 150.635 162.975 150.711 162.916C150.834 162.837 150.875 162.756 150.896 162.767Z" fill="#EB996E"/>
<path d="M159.785 145.443C158.991 142.838 156.118 141.546 153.502 140.829C149.516 139.736 145.211 139.258 141.318 140.64C137.425 142.024 132.749 144.45 132.749 148.596C130.452 148.417 129.134 150.356 128.227 152.763C127.648 154.229 127.3 155.771 127.197 157.337C126.909 162.767 125.333 170.265 121.687 174.242C119.627 176.459 116.774 177.992 115.6 180.756C114.57 183.152 115.106 185.997 114.148 188.423C113.293 190.561 111.408 192.082 110.028 193.942C108.622 196.052 107.795 198.472 107.624 200.975C107.453 203.478 107.943 205.981 109.05 208.251C110.164 210.463 111.734 212.433 113.662 214.039C115.591 215.646 117.837 216.857 120.266 217.599C125.077 219.012 130.207 219.061 135.046 217.738C138.677 216.9 142.064 215.278 144.954 212.995C147.91 210.664 149.94 207.418 150.7 203.806C151.432 199.749 150.258 195.622 149.383 191.585C146.642 178.827 147.426 178.16 150.886 166.317C150.968 166.108 151.009 165.89 151.071 165.68C151.133 165.471 151.163 165.372 151.206 165.213C151.303 164.745 151.356 164.269 151.36 163.791C150.855 163.972 150.306 164.011 149.778 163.901C149.251 163.792 148.767 163.54 148.383 163.175C147.999 162.784 147.73 162.301 147.606 161.776C147.484 161.251 147.51 160.703 147.683 160.192C147.926 159.631 148.288 159.127 148.746 158.711C149.203 158.295 149.746 157.975 150.34 157.775C151.484 157.317 152.709 157.079 153.832 156.571C156.211 155.478 157.859 153.21 158.981 150.833C159.904 149.186 160.189 147.276 159.785 145.443Z" fill="black"/>
<path d="M151.309 163.035C151.526 163.345 151.706 163.679 151.844 164.03C152.153 164.656 152.565 165.541 153.018 166.566L153.1 166.754H152.884L151.854 166.844C151.143 166.844 150.546 166.973 149.846 166.963C149.784 166.95 149.728 166.922 149.681 166.882C149.634 166.842 149.599 166.791 149.578 166.734C149.547 166.644 149.547 166.546 149.578 166.456C149.602 166.322 149.633 166.19 149.671 166.058L149.856 165.352C149.949 164.882 150.094 164.421 150.289 163.98C150.269 164.46 150.197 164.937 150.072 165.401L149.928 166.107C149.877 166.347 149.784 166.715 149.928 166.685C150.443 166.685 151.174 166.575 151.854 166.536L152.884 166.446L152.75 166.664C152.307 165.671 151.937 164.736 151.721 164.089C151.531 163.759 151.391 163.404 151.309 163.035Z" fill="#6FE3BC"/>
<path d="M116.044 246.736L161.721 245.393L181.599 320.313L177.942 406.25H153.791L156.746 322.142L139.083 269.985L141.802 409.582L117.392 409.93L114.828 278.716C114.715 275.067 113.479 266.843 113.942 263.223L116.044 246.736Z" fill="black"/>
<path d="M145.16 271.049C144.412 271.094 143.662 271.051 142.925 270.919C141.545 270.76 139.66 270.482 137.59 270.084C135.519 269.686 133.665 269.229 132.326 268.861C131.611 268.709 130.918 268.469 130.266 268.145C130.266 267.996 133.624 268.772 137.744 269.577C141.864 270.383 145.181 270.9 145.16 271.049Z" fill="black"/>
<path d="M177.695 401.537C177.695 401.676 172.227 401.796 165.48 401.796C158.734 401.796 153.254 401.676 153.254 401.537C153.254 401.398 158.724 401.278 165.48 401.278C172.237 401.278 177.695 401.388 177.695 401.537Z" fill="black"/>
<path d="M141.586 405.952C141.586 406.101 136.271 406.21 129.721 406.21C123.17 406.21 117.867 406.101 117.867 405.952C117.867 405.803 123.181 405.693 129.721 405.693C136.26 405.693 141.586 405.813 141.586 405.952Z" fill="black"/>
<path d="M138.434 405.594C138.289 405.594 137.651 375.096 137.003 337.476C136.353 299.858 135.972 269.339 136.106 269.339C136.24 269.339 136.9 299.828 137.538 337.466C138.176 375.105 138.588 405.594 138.434 405.594Z" fill="black"/>
<path d="M174.451 401.537C174.44 401.401 174.44 401.264 174.451 401.129V399.936C174.451 398.862 174.534 397.32 174.595 395.362C174.74 391.384 174.945 385.606 175.203 378.526C175.759 364.286 176.542 344.656 177.397 322.988C177.397 322.778 177.397 322.58 177.397 322.401V322.47C171.989 301.587 167.097 282.634 163.543 268.921L159.424 252.702C158.95 250.802 158.59 249.321 158.333 248.287C158.209 247.8 158.127 247.421 158.055 247.134C158.015 247.004 157.991 246.871 157.983 246.736C158.036 246.86 158.077 246.991 158.106 247.123C158.188 247.402 158.291 247.78 158.435 248.257C158.713 249.252 159.115 250.763 159.631 252.652C160.66 256.491 162.113 262.019 163.925 268.831C167.509 282.534 172.453 301.438 177.932 322.351V322.421C177.932 322.6 177.932 322.808 177.932 323.007C177.016 344.675 176.181 364.295 175.573 378.536C175.254 385.626 174.987 391.363 174.801 395.362C174.698 397.35 174.616 398.862 174.565 399.936C174.565 400.443 174.503 400.841 174.493 401.129C174.494 401.266 174.48 401.403 174.451 401.537Z" fill="black"/>
<path d="M166.572 320.65C164.837 321.201 163.05 321.584 161.236 321.794C159.012 322.162 157.117 322.421 156.262 322.461V322.261C156.54 322.342 156.684 322.391 156.684 322.431C156.684 322.47 156.509 322.431 156.221 322.431H155.604L156.221 322.251C157.024 322.023 158.919 321.645 161.144 321.257C162.928 320.883 164.747 320.68 166.572 320.65Z" fill="black"/>
<path d="M166.15 323.505C164.543 323.576 162.934 323.506 161.339 323.296C159.731 323.264 158.128 323.094 156.551 322.789C159.769 322.535 163.009 322.776 166.15 323.505Z" fill="black"/>
<path opacity="0.2" d="M115.848 248.316C116.389 248.987 117.069 249.54 117.847 249.94C118.625 250.339 119.48 250.575 120.359 250.634C122.198 250.844 124.059 250.81 125.889 250.534C137.682 249.271 150.175 248.108 161.721 245.393C146.776 246.198 130.988 245.93 116.044 246.736L115.889 247.969" fill="black"/>
<g opacity="0.2">
<path d="M131.245 268.653L139.67 300.215L139.083 269.985L131.245 268.653Z" fill="black"/>
</g>
</g>
<defs>
<clipPath id="clip0_176_2260">
<rect width="440" height="417" fill="white"/>
</clipPath>
</defs>
</svg>
