<svg width="30" height="32" viewBox="0 0 30 32" fill="none" xmlns="http://www.w3.org/2000/svg">
<g clip-path="url(#clip0_153_127)">
<path d="M0.696929 31.0552C0.528472 31.0552 0.364593 30.9881 0.243057 30.8642C0.0828402 30.7009 0.0210422 30.4637 0.0812381 30.242L2.03154 23.0636C0.817321 20.8505 0.177139 18.347 0.178055 15.8056C0.181488 7.54084 6.8543 0.817139 15.0533 0.817139C19.0301 0.818754 22.7668 2.38012 25.5754 5.2131C28.3836 8.0463 29.9294 11.8125 29.9283 15.8176C29.9246 24.0826 23.2518 30.8068 15.0533 30.8068C15.0533 30.8068 15.0471 30.8068 15.0469 30.8068C12.6521 30.8058 10.2779 30.2176 8.16396 29.1033L0.858748 31.0342C0.80519 31.0483 0.750716 31.0552 0.696929 31.0552Z" fill="#E5E5E5"/>
<path d="M0.696899 30.4118L2.71656 22.978C1.47075 20.8023 0.81546 18.3343 0.816376 15.8058C0.81958 7.89589 7.20585 1.46057 15.0533 1.46057C18.8614 1.46219 22.4359 2.95618 25.1239 5.66781C27.8117 8.37943 29.2914 11.9839 29.29 15.8174C29.2866 23.7271 22.8994 30.1633 15.0533 30.1633C15.0528 30.1633 15.0535 30.1633 15.0533 30.1633H15.0471C12.6645 30.1624 10.3235 29.56 8.24406 28.4169L0.696899 30.4118ZM8.59356 25.82L9.02592 26.0781C10.8423 27.1647 12.9249 27.7394 15.0487 27.7405H15.0533C21.5751 27.7405 26.8833 22.3911 26.8861 15.8164C26.8872 12.6303 25.6576 9.63419 23.4235 7.38051C21.1892 5.12682 18.2185 3.88497 15.0577 3.88359C8.53062 3.88359 3.22261 9.23232 3.2201 15.8067C3.21918 18.0597 3.84449 20.2537 5.02918 22.1523L5.31071 22.6036L4.11503 27.0034L8.59356 25.82Z" fill="white"/>
<path d="M1.19202 29.911L3.14186 22.7342C1.93886 20.6339 1.30646 18.2511 1.30714 15.8105C1.31012 8.17439 7.4755 1.96191 15.0508 1.96191C18.7276 1.96353 22.1784 3.40586 24.7728 6.02359C27.3678 8.64132 28.7961 12.1209 28.7947 15.8213C28.7915 23.4577 22.6259 29.6709 15.0515 29.6709H15.0453C12.7453 29.6699 10.4851 29.0881 8.47778 27.9854L1.19202 29.911Z" fill="url(#paint0_linear_153_127)"/>
<path d="M0.696899 30.4118L2.71656 22.978C1.47075 20.8023 0.81546 18.3343 0.816376 15.8058C0.81958 7.89589 7.20585 1.46057 15.0533 1.46057C18.8614 1.46219 22.4359 2.95618 25.1239 5.66781C27.8117 8.37943 29.2914 11.9839 29.29 15.8174C29.2866 23.7271 22.8994 30.1633 15.0533 30.1633C15.0528 30.1633 15.0535 30.1633 15.0533 30.1633H15.0471C12.6645 30.1624 10.3235 29.56 8.24406 28.4169L0.696899 30.4118ZM8.59356 25.82L9.02592 26.0781C10.8423 27.1647 12.9249 27.7394 15.0487 27.7405H15.0533C21.5751 27.7405 26.8833 22.3911 26.8861 15.8164C26.8872 12.6303 25.6576 9.63419 23.4235 7.38051C21.1892 5.12682 18.2185 3.88497 15.0577 3.88359C8.53062 3.88359 3.22261 9.23232 3.2201 15.8067C3.21918 18.0597 3.84449 20.2537 5.02918 22.1523L5.31071 22.6036L4.11503 27.0034L8.59356 25.82Z" fill="white"/>
<path fill-rule="evenodd" clip-rule="evenodd" d="M11.495 9.80863C11.2286 9.21158 10.948 9.19959 10.6944 9.1892C10.487 9.18021 10.2497 9.18067 10.0128 9.18067C9.77568 9.18067 9.39024 9.27064 9.06431 9.62938C8.73816 9.98812 7.81897 10.8555 7.81897 12.6197C7.81897 14.3841 9.09384 16.0887 9.27168 16.3282C9.44952 16.5674 11.7326 20.3034 15.3482 21.7406C18.3532 22.9352 18.9646 22.6976 19.6169 22.6378C20.2692 22.5781 21.7214 21.7704 22.0178 20.9332C22.3145 20.096 22.3145 19.3785 22.2254 19.2283C22.1364 19.0791 21.8993 18.9893 21.5436 18.8101C21.1879 18.6308 19.439 17.7632 19.1129 17.6436C18.7867 17.5239 18.5496 17.4644 18.3125 17.8234C18.0751 18.1819 17.394 18.9893 17.1864 19.2283C16.9788 19.468 16.7712 19.498 16.4155 19.3185C16.0598 19.1388 14.9141 18.7605 13.555 17.5389C12.4975 16.5887 11.7834 15.4149 11.5758 15.0559C11.3685 14.6974 11.5724 14.5202 11.7322 14.3243C12.0199 13.9716 12.5026 13.3374 12.6211 13.0984C12.7397 12.8589 12.6804 12.6497 12.5916 12.4702C12.5026 12.291 11.8111 10.5178 11.495 9.80863Z" fill="white"/>
</g>
<defs>
<linearGradient id="paint0_linear_153_127" x1="10.0436" y1="29.911" x2="27.6996" y2="23.5744" gradientUnits="userSpaceOnUse">
<stop stop-color="#6FE3BC"/>
<stop offset="1" stop-color="#008891"/>
</linearGradient>
<clipPath id="clip0_153_127">
<rect width="30" height="30.2381" fill="white" transform="translate(0 0.817139)"/>
</clipPath>
</defs>
</svg>
